<?xml version="1.0" standalone="no"?>
<!DOCTYPE svg PUBLIC "-//W3C//DTD SVG 1.1//EN" "http://www.w3.org/Graphics/SVG/1.1/DTD/svg11.dtd" >
<svg xmlns="http://www.w3.org/2000/svg" xmlns:xlink="http://www.w3.org/1999/xlink" version="1.1">
<metadata></metadata>
<defs>
<font id="commeextralight" horiz-adv-x="1217" >
<font-face units-per-em="2048" ascent="1638" descent="-410" />
<missing-glyph horiz-adv-x="485" />
<glyph unicode="&#xfb01;" horiz-adv-x="1223" d="M74 1011h210v-1011h121v1011h261v71h-261v87q0 67 7 113t20 74.5t36 43.5t49.5 20.5t67.5 5.5l108 -8l7 81q-56 15 -136 15h-3q-143 0 -210 -77t-67 -270v-87l-205 -15zM915 1414q0 -91 93 -91q91 0 91 91q0 90 -91 90q-93 0 -93 -90zM945 0h120v1082h-120v-1082z" />
<glyph unicode="&#xfb02;" horiz-adv-x="1345" d="M74 1011h210v-1011h121v1011h261v71h-261v87q0 67 7 113t20 74.5t36 43.5t49.5 20.5t67.5 5.5l108 -8l7 81q-56 15 -136 15h-3q-143 0 -210 -77t-67 -270v-87l-205 -15zM922 267q0 -68 14.5 -118.5t37.5 -80t58 -47.5t69.5 -24t77.5 -6q63 0 108 3l6 88q-7 -2 -93 -2 q-94 2 -125.5 42.5t-31.5 146.5v1291l-121 -20v-1273z" />
<glyph unicode="&#xfb03;" horiz-adv-x="1962" d="M74 1011h210v-1011h121v1011h261v71h-261v87q0 67 7 113t20 74.5t36 43.5t49.5 20.5t67.5 5.5l108 -8l7 81q-56 15 -136 15h-3q-143 0 -210 -77t-67 -270v-87l-205 -15zM812 1011h210v-1011h121v1011h261v71h-261v87q0 67 7 113t20 74.5t36 43.5t49.5 20.5t67.5 5.5 l108 -8l7 81q-56 15 -136 15h-3q-143 0 -210 -77t-67 -270v-87l-205 -15zM1654 1414q0 -91 93 -91q91 0 91 91q0 90 -91 90q-93 0 -93 -90zM1684 0h120v1082h-120v-1082z" />
<glyph unicode="&#xfb04;" horiz-adv-x="2084" d="M74 1011h210v-1011h121v1011h261v71h-261v87q0 67 7 113t20 74.5t36 43.5t49.5 20.5t67.5 5.5l108 -8l7 81q-56 15 -136 15h-3q-143 0 -210 -77t-67 -270v-87l-205 -15zM812 1011h210v-1011h121v1011h261v71h-261v87q0 67 7 113t20 74.5t36 43.5t49.5 20.5t67.5 5.5 l108 -8l7 81q-56 15 -136 15h-3q-143 0 -210 -77t-67 -270v-87l-205 -15zM1661 267q0 -68 14.5 -118.5t37.5 -80t58 -47.5t69.5 -24t77.5 -6q63 0 108 3l6 88q-7 -2 -93 -2q-94 2 -125.5 42.5t-31.5 146.5v1291l-121 -20v-1273z" />
<glyph horiz-adv-x="0" />
<glyph unicode="&#xd;" horiz-adv-x="600" />
<glyph unicode=" "  horiz-adv-x="485" />
<glyph unicode="&#x09;" horiz-adv-x="485" />
<glyph unicode="&#xa0;" horiz-adv-x="485" />
<glyph unicode="!" horiz-adv-x="594" d="M196 84q0 -40 23 -69.5t76 -29.5t76 28.5t23 70.5q0 41 -23 69.5t-76 28.5t-76 -28.5t-23 -69.5zM215 1390l53 -977h44l49 977v81h-146v-81z" />
<glyph unicode="&#x22;" horiz-adv-x="608" d="M118 1512l43 -466h51l31 466h-125zM359 1512l43 -466h51l32 466h-126z" />
<glyph unicode="#" horiz-adv-x="1171" d="M136 438h170l-90 -446h80l91 446h298l-88 -446h80l90 446h205l13 76h-203l94 461h187l14 75h-186l92 447h-79l-94 -447h-298l92 447h-82l-92 -447h-185l-10 -75h179l-93 -461h-174zM402 514l94 461h298l-93 -461h-299z" />
<glyph unicode="$" horiz-adv-x="1202" d="M139 151q24 -27 59 -53t90 -54.5t136 -45.5t175 -17q79 0 147 12t131 41.5t107.5 75.5t71 117.5t26.5 163.5q0 51 -11 94t-23.5 73.5t-45.5 61.5t-52 47.5t-70 41.5t-72 34t-84 35q-1 1 -2 1l-224 92q-60 25 -94 41.5t-65 37.5t-44.5 44.5t-21.5 54.5t-8 76 q0 70 31.5 122t86 80t116 41t131.5 13q112 0 198 -36.5t140 -88.5h11l52 70q-59 63 -166 106t-231 43q-73 0 -137 -9t-130 -34.5t-112.5 -65.5t-76 -106t-29.5 -152q0 -49 8.5 -88.5t29.5 -71t43.5 -54.5t63 -46t76 -39t92.5 -39l222 -91q89 -36 139.5 -62t87 -59.5 t49.5 -72t13 -96.5q0 -164 -97 -237.5t-277 -73.5q-130 0 -222.5 35.5t-169.5 106.5h-9zM572 21v-341h84l7 341h-91zM579 1437h93v294h-86z" />
<glyph unicode="%" horiz-adv-x="1721" d="M78 1091q0 -82 18 -149.5t55 -119.5t98.5 -81t143.5 -29q81 0 143.5 29t100 81t56.5 119.5t19 149.5q0 173 -78.5 275.5t-240.5 102.5q-158 0 -236.5 -104t-78.5 -274zM173 1092q0 299 223 299q220 0 220 -299q0 -302 -220 -302q-223 0 -223 302zM370 0h111l821 1456 h-101zM955 371q0 -170 79 -274.5t239 -104.5q81 0 143.5 29t100 81t56.5 119.5t19 149.5q0 173 -78.5 275.5t-240.5 102.5q-158 0 -238 -104t-80 -274zM1052 371q0 299 223 299q221 0 221 -299q0 -302 -221 -302q-223 0 -223 302z" />
<glyph unicode="&#x26;" horiz-adv-x="1467" d="M165 371q0 -185 124 -287.5t356 -102.5q236 0 431 175l170 -180l66 67l-170 179q133 144 219 343l-71 50q-95 -204 -208 -330l-464 489q84 39 145.5 76t116 85t83 106t28.5 125q0 142 -91 225.5t-240 83.5q-169 0 -272.5 -85t-103.5 -222q0 -93 41.5 -174.5t144.5 -196.5 q-154 -87 -229.5 -188.5t-75.5 -237.5zM278 377q0 110 63.5 194.5t193.5 158.5l482 -511q-163 -146 -354 -146q-188 0 -286.5 78.5t-98.5 225.5zM380 1170q0 97 77.5 157.5t200.5 60.5q109 0 172 -59t63 -159q0 -56 -27 -105.5t-79 -90.5t-103.5 -71t-125.5 -65 q-107 118 -142.5 184.5t-35.5 147.5z" />
<glyph unicode="'" horiz-adv-x="289" d="M80 1473l22 -486h73l18 486h-113z" />
<glyph unicode="(" horiz-adv-x="720" d="M216 693q0 496 253 891h106v-21q-138 -222 -189 -426.5t-51 -443.5t50.5 -443.5t189.5 -426.5v-21h-106q-253 397 -253 891z" />
<glyph unicode=")" horiz-adv-x="719" d="M148 -177v-21h106q253 397 253 891q0 496 -253 891h-106v-21q138 -222 189 -426.5t51 -443.5t-50.5 -443.5t-189.5 -426.5z" />
<glyph unicode="*" horiz-adv-x="1109" d="M129 1100l366 -84l-246 -342l101 -72l199 376l214 -375q42 26 51 35t52 36q-100 128 -256 342l374 84l-35 122l-364 -152l39 412h-137l37 -412l-363 152z" />
<glyph unicode="+" horiz-adv-x="1146" d="M144 607h370v-398h111v398h363v97h-363v388h-110v-388h-371v-97z" />
<glyph unicode="," horiz-adv-x="518" d="M171 -296h59q93 428 93 458v49h-134z" />
<glyph unicode="-" horiz-adv-x="825" d="M154 534h496v96h-496v-96z" />
<glyph unicode="." horiz-adv-x="517" d="M177 77q0 -94 86 -94q85 0 85 94q0 93 -85 93q-86 0 -86 -93z" />
<glyph unicode="/" horiz-adv-x="999" d="M131 -149h85l686 1709h-88z" />
<glyph unicode="0" horiz-adv-x="1240" d="M142 717q0 -354 121 -545.5t361 -191.5q237 0 351.5 190t114.5 547q0 370 -120 564.5t-346 194.5q-230 0 -356 -196t-126 -563zM261 719v9q0 325 99.5 484.5t263.5 159.5q64 0 115.5 -19.5t96 -66t74 -120t46.5 -186t17 -258.5q0 -178 -25 -304.5t-73 -198.5t-109.5 -104 t-141.5 -32q-363 0 -363 636z" />
<glyph unicode="1" d="M223 0h848v92h-342v1364h-120q-50 -35 -172 -77t-182 -52v-99q54 6 166.5 42t185.5 76v-1254h-384v-92z" />
<glyph unicode="2" d="M119 102l33 -102h864l5 99h-762l501 497q69 68 103 105t70.5 84.5t51.5 87t24.5 91.5t9.5 119q0 85 -31.5 154.5t-80.5 113t-112 72.5t-122.5 41t-115.5 12q-117 0 -229 -37t-181 -96l50 -75h13q151 111 350 111q47 0 91 -8t91.5 -29.5t82 -55t57 -89.5t22.5 -128 q0 -30 -3 -56.5t-5.5 -47t-12.5 -44t-15 -37.5t-22 -36.5t-23.5 -33t-30.5 -35.5t-32.5 -34t-39.5 -39.5t-42 -41.5z" />
<glyph unicode="3" d="M164 1307l62 -68h8q70 68 161.5 102.5t188.5 34.5h9q142 0 230 -66.5t88 -196.5q0 -72 -26 -125.5t-64 -82.5t-98 -47.5t-110.5 -24.5t-118.5 -8h-65l16 -105h48q83 -1 146.5 -9t124.5 -30t100 -58.5t63 -96.5t24 -141q0 -154 -96.5 -230t-264.5 -76q-105 0 -198.5 32 t-144.5 88h-10l-61 -64q52 -69 163 -112t246 -43q229 0 352.5 113t123.5 295q0 164 -87 262t-245 126q294 60 294 337q1 169 -120 266t-314 97q-117 0 -232 -39.5t-193 -129.5z" />
<glyph unicode="4" d="M133 515l20 -119h660v-396h113v396h168l10 95h-178l-1 965h-102zM255 493l556 793v-793h-556z" />
<glyph unicode="5" d="M169 131q183 -151 407 -151t367.5 133.5t143.5 354.5q0 88 -28 167t-82 141.5t-142 99.5t-198 37q-87 0 -154.5 -24.5t-135.5 -75.5l44 546h606l13 97h-722l-49 -744l110 -12q48 54 125 85.5t161 31.5q85 0 150 -29.5t102 -80.5t55.5 -112.5t18.5 -131.5 q0 -173 -109 -277.5t-280 -104.5q-182 0 -334 124h-13z" />
<glyph unicode="6" d="M186 434q0 -86 28 -165.5t82 -145t141.5 -104.5t196.5 -39q138 0 242 63t155.5 164t51.5 224q0 189 -122 307.5t-291 118.5q-176 0 -301 -111q52 78 476 691v19h-119l-309 -447q-64 -93 -99 -150t-69.5 -129t-48.5 -142.5t-14 -153.5zM296 423q0 79 25.5 141t63 98 t86.5 60t90 32t79 8q153 0 242.5 -93t89.5 -238q0 -93 -37.5 -172t-116.5 -130t-186 -51t-185 49.5t-114.5 126.5t-36.5 169z" />
<glyph unicode="7" d="M193 1456l27 -95h706l-554 -1361h111l557 1365v91h-847z" />
<glyph unicode="8" d="M150 353q0 -122 62.5 -208t164 -125.5t231.5 -39.5q132 0 233 39.5t163 125.5t62 209q0 145 -89.5 254t-244.5 151q141 44 220.5 134.5t79.5 226.5q0 166 -114 261t-309 95q-196 0 -311.5 -95.5t-115.5 -260.5q0 -135 84 -231t217 -133q-166 -51 -249.5 -148.5 t-83.5 -254.5zM255 366q0 93 48 163.5t124.5 111.5t180.5 62q158 -32 253.5 -118.5t95.5 -217.5q0 -150 -84.5 -220t-264.5 -70q-174 0 -263.5 73.5t-89.5 215.5zM301 1126q0 117 84 185t223 68q140 0 222.5 -67.5t82.5 -185.5q0 -259 -305 -324q-152 33 -229.5 115 t-77.5 209z" />
<glyph unicode="9" d="M182 1027q0 -189 124.5 -311t294.5 -122q147 0 261 74q-83 -110 -503 -655v-13h129l341 447q69 90 107.5 146.5t77 129.5t55 144.5t16.5 154.5q0 86 -28 165.5t-82 145t-141.5 104.5t-196.5 39q-138 0 -243 -62t-158.5 -163t-53.5 -224zM295 1028q0 144 92 247.5 t250 103.5q107 0 186 -50t116 -127t37 -169q0 -80 -26 -142.5t-64.5 -98t-88.5 -58.5t-92 -31t-81 -8q-153 0 -241 93.5t-88 239.5z" />
<glyph unicode=":" horiz-adv-x="540" d="M166 80q0 -40 22.5 -68t71.5 -28t70 28t21 68q0 39 -21.5 67t-69.5 28q-50 0 -72 -28t-22 -67zM166 969q0 -40 22.5 -68t71.5 -28t70 28t21 68q0 39 -21 67t-70 28q-51 0 -72.5 -28t-21.5 -67z" />
<glyph unicode=";" horiz-adv-x="553" d="M192 961q0 -40 22.5 -68t71.5 -28t70 28t21 68q0 39 -21 67t-70 28q-51 0 -72.5 -28t-21.5 -67zM203 -296h60q93 428 93 458v49h-134z" />
<glyph unicode="&#x3c;" horiz-adv-x="1180" d="M102 568l933 -451l2 106l-812 384l813 407v110l-936 -486v-70z" />
<glyph unicode="=" horiz-adv-x="1057" d="M132 455h797v101h-797v-101zM132 838h797v101h-797v-101z" />
<glyph unicode="&#x3e;" horiz-adv-x="1189" d="M126 124l936 442v72l-933 494v-109l799 -416l-802 -376v-107z" />
<glyph unicode="?" horiz-adv-x="904" d="M116 1410l18 -104q46 31 116.5 60t140.5 29q222 0 222 -216q0 -69 -28.5 -150.5t-69.5 -157.5t-82.5 -152.5t-70 -159.5t-28.5 -155h61q27 101 73 194.5t90.5 159t85.5 130.5t66 140t25 157q0 149 -92.5 232t-235.5 83q-163 0 -291 -90zM270 82q0 -40 22.5 -68.5 t74.5 -28.5q53 0 77 28t24 69q0 40 -24 68.5t-77 28.5q-52 0 -74.5 -28t-22.5 -69z" />
<glyph unicode="@" horiz-adv-x="2062" d="M187 596q0 -387 222 -608.5t596 -221.5q312 0 523 141l-35 77q-203 -127 -483 -127q-157 0 -288 50t-225 143t-146 233t-52 313q0 174 59 325t162 257.5t246 167t307 60.5q310 0 497.5 -182.5t187.5 -475.5q0 -192 -80 -321.5t-198 -129.5q-75 0 -115.5 54t-40.5 134 q0 92 14 202.5t51 331.5q-169 64 -304 64q-141 0 -245 -73t-155 -189.5t-51 -259.5q0 -170 80.5 -268.5t219.5 -98.5q109 0 188 75t122 200q8 -66 32.5 -117.5t58.5 -80.5t70.5 -43.5t74.5 -14.5q69 0 134.5 34t120 98t87.5 168t33 232q0 171 -59 313t-163 238t-247 149 t-310 53q-192 0 -357.5 -68.5t-282 -187.5t-183 -286.5t-66.5 -359.5zM747 568q0 194 97 313.5t252 119.5q60 0 172 -26l-51 -291q-67 -399 -268 -399q-96 0 -149 71t-53 212z" />
<glyph unicode="A" horiz-adv-x="1323" d="M55 0h120l187 494h606l185 -494h115l-557 1455h-101zM395 584l265 732l276 -732h-541z" />
<glyph unicode="B" horiz-adv-x="1366" d="M216 3q196 -15 348 -15q199 0 330.5 25t207.5 80t106.5 131t30.5 188q0 290 -319 360q148 44 204 125t56 205q0 67 -11.5 115.5t-49 98t-102 80.5t-176 50.5t-265.5 19.5q-146 0 -360 -20v-1443zM338 92v635h311q246 0 357.5 -73t111.5 -249q0 -58 -7 -98.5t-26.5 -79 t-55.5 -63t-93.5 -44t-142 -28t-198.5 -8.5q-102 0 -257 8zM338 821v540q162 10 256 10q188 0 291 -28t144 -86.5t41 -162.5q0 -83 -27 -139t-79.5 -84t-113 -39t-143.5 -11h-369z" />
<glyph unicode="C" horiz-adv-x="1352" d="M151 728q0 -347 175 -547.5t470 -200.5q167 0 305.5 89t189.5 248l-84 32h-13q-43 -123 -151.5 -197t-243.5 -74q-243 0 -384.5 172t-141.5 478t141.5 478.5t384.5 172.5q135 0 243 -74t151 -197h14l82 32q-34 107 -111.5 184.5t-175.5 114.5t-208 37 q-294 0 -468.5 -200.5t-174.5 -547.5z" />
<glyph unicode="D" horiz-adv-x="1514" d="M216 4q162 -14 287 -14q196 0 343 31.5t245.5 90.5t159.5 152t87 207t26 264q0 123 -15.5 219.5t-51.5 180.5t-97 143.5t-150 102.5t-211.5 63.5t-281.5 20.5q-157 0 -341 -19v-1442zM338 87v1275q117 9 216 9q135 0 239 -17t180 -53t128 -87t83 -124.5t44.5 -160 t13.5 -199.5q0 -130 -20 -228t-68.5 -180t-128.5 -134t-202 -80.5t-286 -28.5q-104 0 -199 8z" />
<glyph unicode="E" horiz-adv-x="1195" d="M216 0h885l9 95h-772v606h687v95h-687v564h764l3 95h-889v-1455z" />
<glyph unicode="F" horiz-adv-x="1109" d="M216 0h125v687h640v90h-640v583h703l9 95h-837v-1455z" />
<glyph unicode="G" horiz-adv-x="1479" d="M150 727q0 -160 43.5 -295t128 -236t218 -158t302.5 -57q255 0 482 84v670h-448l-11 -98l341 -9v-502q-165 -46 -341 -46q-294 0 -443.5 173t-149.5 475q0 200 77.5 348t210 223.5t301.5 75.5q213 0 390 -125h12l47 82q-93 68 -211 105t-243 37q-153 0 -283 -52.5 t-223.5 -148t-146.5 -236t-53 -310.5z" />
<glyph unicode="H" horiz-adv-x="1507" d="M215 0h122v702h832v-702h122v1455h-122v-661h-832v661h-122v-1455z" />
<glyph unicode="I" horiz-adv-x="826" d="M147 0h529v78h-203v1300h203v77h-529v-77h204v-1300h-204v-78z" />
<glyph unicode="J" horiz-adv-x="717" d="M101 -272l39 -96l65 24q62 24 100.5 41.5t73.5 42.5t53.5 51t32.5 66t18.5 88.5t4.5 117.5v1392h-122v-1415q0 -50 -2.5 -83.5t-12 -61t-20 -43.5t-34.5 -33t-47 -28t-66 -29z" />
<glyph unicode="K" horiz-adv-x="1264" d="M216 0h122v617l142 140l612 -757h137v12l-656 810l617 621v13h-135l-717 -724v724h-122v-1456z" />
<glyph unicode="L" horiz-adv-x="1085" d="M216 0h828l-1 95h-705v1360h-122v-1455z" />
<glyph unicode="M" horiz-adv-x="1780" d="M198 0h113v539l10 780l517 -1172h106l517 1164l9 -770v-541h113v539l-21 916h-153l-516 -1175l-516 1175h-160l-19 -916v-539z" />
<glyph unicode="N" horiz-adv-x="1531" d="M216 0h105v903l-12 397l890 -1300h116v1455h-103v-917l7 -385l-890 1302h-113v-1455z" />
<glyph unicode="O" horiz-adv-x="1634" d="M152 717q0 -133 25 -245.5t77.5 -203.5t131 -154.5t189 -98t246.5 -34.5q167 0 294.5 54t207 152t119.5 230.5t40 295.5q0 171 -42.5 310.5t-123.5 240.5t-207 156t-287 55q-166 0 -294 -54.5t-210 -154.5t-124 -238.5t-42 -310.5zM275 716q0 151 32 270.5t96.5 208 t170.5 136t247 47.5q113 0 203 -31.5t152.5 -88.5t104 -140t60.5 -182.5t19 -219.5q0 -145 -29.5 -258.5t-92 -200t-169 -133t-251.5 -46.5t-251.5 46.5t-169.5 133t-92.5 200t-29.5 258.5z" />
<glyph unicode="P" horiz-adv-x="1235" d="M216 0h122v699q122 -9 219 -9q139 0 239.5 17.5t165.5 49t103.5 83t53.5 112t15 143.5q0 99 -26.5 166t-91 114t-173 68t-270.5 21q-151 0 -357 -18v-1446zM338 791v571q157 10 246 10q173 0 268 -29.5t131 -87t36 -159.5q0 -72 -11 -120.5t-39.5 -87.5t-81 -61t-131 -33 t-193.5 -11q-89 0 -225 8z" />
<glyph unicode="Q" horiz-adv-x="1624" d="M152 717q0 -133 25 -245.5t77.5 -203.5t131 -154.5t189 -98t246.5 -34.5q167 0 294.5 54t207 152t119.5 230.5t40 295.5q0 171 -42.5 310.5t-123.5 240.5t-207 156t-287 55q-166 0 -294 -54.5t-210 -154.5t-124 -238.5t-42 -310.5zM275 716q0 151 32 270.5t96.5 208 t170.5 136t247 47.5q113 0 203 -31.5t152.5 -88.5t104 -140t60.5 -182.5t19 -219.5q0 -145 -29.5 -258.5t-92 -200t-169 -133t-251.5 -46.5t-251.5 46.5t-169.5 133t-92.5 200t-29.5 258.5zM925 22q19 -38 68.5 -110.5t95.5 -134t92 -122t49 -64.5l72 61 q-38 40 -150.5 192.5t-134.5 201.5z" />
<glyph unicode="R" horiz-adv-x="1373" d="M216 0h122v721l472 1l335 -722h121v16l-332 718q144 32 214.5 117.5t70.5 243.5q0 103 -24 169t-88.5 113.5t-177.5 67.5t-291 20q-159 0 -422 -19v-1446zM338 811v551q188 14 311 14q116 0 197 -11.5t132 -32.5t79.5 -57.5t38.5 -79t10 -104.5q0 -81 -15 -130.5t-57 -85 t-116 -50t-192 -14.5h-388z" />
<glyph unicode="S" horiz-adv-x="1202" d="M139 151q24 -27 59 -53t90 -54.5t136 -45.5t175 -17q79 0 147 12t131 41.5t107.5 75.5t71 117.5t26.5 163.5q0 51 -11 94t-23.5 73.5t-45.5 61.5t-52 47.5t-70 41.5t-72 34t-84 35q-1 1 -2 1l-224 92q-60 25 -94 41.5t-65 37.5t-44.5 44.5t-21.5 54.5t-8 76 q0 70 31.5 122t86 80t116 41t131.5 13q112 0 198 -36.5t140 -88.5h11l52 70q-59 63 -166 106t-231 43q-73 0 -137 -9t-130 -34.5t-112.5 -65.5t-76 -106t-29.5 -152q0 -49 8.5 -88.5t29.5 -71t43.5 -54.5t63 -46t76 -39t92.5 -39l222 -91q89 -36 139.5 -62t87 -59.5 t49.5 -72t13 -96.5q0 -164 -97 -237.5t-277 -73.5q-130 0 -222.5 35.5t-169.5 106.5h-9z" />
<glyph unicode="T" horiz-adv-x="1127" d="M35 1366h466v-1366h121v1366h471v89h-1058v-89z" />
<glyph unicode="U" horiz-adv-x="1451" d="M174 543q0 -125 31 -225t95 -177t172 -118.5t253 -41.5q143 0 251 43t172.5 120t96 176t31.5 219v917h-122v-917q0 -461 -429 -461q-226 0 -327.5 115.5t-101.5 345.5v917h-122v-913z" />
<glyph unicode="V" horiz-adv-x="1379" d="M77 1455l574 -1455h73l578 1455h-125q-254 -664 -491 -1281q-59 154 -487 1281h-122z" />
<glyph unicode="W" horiz-adv-x="2044" d="M72 1455l443 -1455h118l396 1285l391 -1285h122l430 1455h-116l-374 -1305l-392 1264h-126l-388 -1260l-397 1301h-107z" />
<glyph unicode="X" horiz-adv-x="1296" d="M92 0h124l426 638l420 -638h124l-477 725l476 730h-125l-411 -640l-421 640h-125l477 -724z" />
<glyph unicode="Y" horiz-adv-x="1264" d="M72 1455l516 -880v-575h118v575l485 880h-114l-431 -780l-466 780h-108z" />
<glyph unicode="Z" horiz-adv-x="1195" d="M125 0h965l11 95h-857l850 1270l-10 90h-915v-95h799l-843 -1259v-101z" />
<glyph unicode="[" horiz-adv-x="699" d="M194 -236h439v87h-320v1586h320v89h-439v-1762z" />
<glyph unicode="\" horiz-adv-x="964" d="M125 1465l578 -1516h84l-579 1516h-83z" />
<glyph unicode="]" horiz-adv-x="758" d="M144 -149v-87h437v1762h-437v-89h319v-1586h-319z" />
<glyph unicode="^" horiz-adv-x="1258" d="M134 337h100l391 976l397 -976h102l-467 1119h-68z" />
<glyph unicode="_" horiz-adv-x="868" d="M0 -158v-92h868v92h-868z" />
<glyph unicode="`" horiz-adv-x="843" d="M105 1569l289 -359h74l-208 359h-155z" />
<glyph unicode="a" horiz-adv-x="1116" d="M117 283q0 -144 93.5 -221.5t250.5 -77.5q232 0 375 181l14 -164h94v724q0 202 -104 290.5t-295 88.5q-98 0 -203.5 -26t-170.5 -67l42 -93q69 45 160 69t176 24q276 0 276 -270v-140l-215 3h-18q-251 0 -363 -80.5t-112 -240.5zM237 283q0 61 15 102t55 73t114.5 47 t188.5 15h11l204 -2v-259q-137 -183 -354 -183q-104 0 -169 50t-65 157z" />
<glyph unicode="b" horiz-adv-x="1227" d="M180 0h90l11 158q120 -178 361 -178q221 0 344 152t123 405q0 264 -114 415.5t-333 151.5q-117 0 -213 -58.5t-150 -175.5l2 214v476l-121 -20v-1540zM297 275v300q-1 196 95 316.5t258 120.5q336 0 336 -474q0 -138 -34 -240t-113.5 -164t-198.5 -62q-241 0 -343 203z " />
<glyph unicode="c" horiz-adv-x="1081" d="M118 542q0 -259 128.5 -410.5t349.5 -151.5q150 0 252 69.5t133 177.5l-70 35h-17q-33 -88 -110.5 -139.5t-185.5 -51.5q-170 0 -263 125.5t-93 345.5t93 345t263 125q108 0 186 -52t110 -140h16l71 37q-32 108 -133.5 177.5t-251.5 69.5q-221 0 -349.5 -151.5 t-128.5 -410.5z" />
<glyph unicode="d" horiz-adv-x="1220" d="M118 547q0 -260 124 -413.5t343 -153.5h2q108 0 202.5 44.5t149.5 124.5l9 -149h99v1560l-123 -20v-370l7 -228q-48 75 -132.5 117.5t-197.5 42.5h-6h-4q-219 0 -346 -150t-127 -405zM242 547q0 216 93.5 340.5t261.5 124.5q111 0 197.5 -52t132.5 -153v-551 q-44 -87 -133.5 -135.5t-204.5 -48.5q-165 0 -256 127t-91 348z" />
<glyph unicode="e" horiz-adv-x="1122" d="M118 537q0 -251 139.5 -404t356.5 -153q196 0 364 97l-35 83h-12q-156 -86 -302 -86q-168 0 -275 115.5t-116 345.5h760q6 51 6 80q0 230 -105 359.5t-295 129.5q-98 0 -185 -38t-154.5 -108.5t-107 -179t-39.5 -241.5zM242 616q17 178 115 286.5t254 108.5 q147 0 218 -100t76 -295h-663z" />
<glyph unicode="f" horiz-adv-x="738" d="M74 1011h210v-1011h121v1011h261v71h-261v87q0 67 7 113t20 74.5t36 43.5t49.5 20.5t67.5 5.5l108 -8l7 81q-56 15 -136 15h-3q-143 0 -210 -77t-67 -270v-87l-205 -15z" />
<glyph unicode="g" horiz-adv-x="1237" d="M118 539q0 -84 16.5 -161.5t54 -148t92 -123t135.5 -83.5t179 -31h2q117 0 207 45.5t144 123.5v-114q0 -226 -89.5 -319t-298.5 -93q-71 0 -149 14t-125 34h-15l-6 -96q50 -19 133 -33.5t169 -14.5q142 0 240 34.5t154 105.5t80 165.5t24 226.5v1011h-106l-9 -152 q-51 79 -138 126.5t-206 47.5q-103 0 -187 -32t-139 -85.5t-92.5 -126.5t-53.5 -153t-16 -168zM241 540q0 71 12 137t39 127.5t67 107t101 73t136 27.5q61 0 113.5 -14t88 -35.5t66.5 -52.5t48.5 -57.5t34.5 -58.5v-510q-115 -200 -351 -200q-75 0 -136 26.5t-101 70.5 t-67 104t-39 123.5t-12 131.5z" />
<glyph unicode="h" horiz-adv-x="1190" d="M181 0h121v631q0 55 10 106t35 102t64 88.5t102 61t143 23.5q132 0 189 -83.5t57 -254.5v-674h121v672q0 204 -88.5 318t-261.5 114q-269 0 -376 -212l5 240v428l-121 -20v-1540z" />
<glyph unicode="i" horiz-adv-x="511" d="M177 1414q0 -91 93 -91q91 0 91 91q0 90 -91 90q-93 0 -93 -90zM207 0h120v1082h-120v-1082z" />
<glyph unicode="j" horiz-adv-x="523" d="M29 -231l4 -105l57 3q90 6 144.5 34.5t85 97t30.5 185.5v1098h-121v-1039q0 -46 -0.5 -69.5t-2.5 -55.5t-5.5 -46.5t-11.5 -34t-18.5 -27.5t-27 -17.5t-38 -13.5t-50.5 -6zM192 1414q0 -91 93 -91q91 0 91 91q0 90 -91 90q-93 0 -93 -90z" />
<glyph unicode="k" horiz-adv-x="1065" d="M182 0h121v396l135 119l461 -515h134v12l-517 566l501 491v13h-134l-586 -576l6 210v844l-121 -20v-1540z" />
<glyph unicode="l" horiz-adv-x="600" d="M184 267q0 -68 14.5 -118.5t37.5 -80t58 -47.5t69.5 -24t77.5 -6q63 0 108 3l6 88q-7 -2 -93 -2q-94 2 -125.5 42.5t-31.5 146.5v1291l-121 -20v-1273z" />
<glyph unicode="m" horiz-adv-x="1796" d="M181 0h120v659q4 70 24 130.5t57 112t100 81t144 29.5q124 0 171.5 -83t47.5 -258v-671h120v634q0 162 86 270t241 108q54 0 93.5 -17.5t62.5 -45.5t37 -71.5t19 -88.5t5 -103v-686h120v676q0 219 -78.5 323.5t-247.5 104.5q-127 0 -222 -61.5t-141 -187.5 q-29 118 -105.5 183.5t-197.5 65.5q-236 0 -342 -217l-14 195h-100v-1082z" />
<glyph unicode="n" horiz-adv-x="1176" d="M180 0h121v648q0 72 17 133.5t54.5 115t108.5 84.5t168 31q132 0 186 -81.5t54 -235.5v-695h120v657q0 228 -84 337.5t-264 109.5q-272 0 -366 -216l-15 194h-100v-1082z" />
<glyph unicode="o" horiz-adv-x="1199" d="M118 541q0 -250 130.5 -405.5t351.5 -155.5q220 0 350.5 155.5t130.5 405.5q0 258 -129 410.5t-352 152.5t-352.5 -152.5t-129.5 -410.5zM242 540q0 215 95 343.5t263 128.5t263 -129t95 -344q0 -207 -95.5 -337.5t-262.5 -130.5q-168 0 -263 131t-95 338z" />
<glyph unicode="p" horiz-adv-x="1223" d="M180 -476l121 4v384l-8 237q53 -82 142.5 -125.5t205.5 -43.5q211 0 337.5 150.5t126.5 407.5q0 270 -117.5 418t-330.5 148q-138 0 -231 -71t-136 -196l-14 245h-96v-1558zM295 300v257q0 99 20 179.5t61 143.5t110.5 97.5t162.5 34.5q168 0 250.5 -122.5t82.5 -350.5 q0 -221 -88.5 -344t-255.5 -123q-256 0 -343 228z" />
<glyph unicode="q" horiz-adv-x="1221" d="M117 543q0 -252 127.5 -407.5t345.5 -155.5h2q108 0 194 42.5t139 114.5l-5 -226v-388l121 2v1557h-101l-8 -163q-46 83 -129 134t-206 51q-224 0 -352 -153.5t-128 -407.5zM241 543q0 218 93 343.5t261 125.5q110 0 194.5 -52.5t133.5 -156.5v-544q-42 -88 -129 -137.5 t-201 -49.5q-170 0 -261 125t-91 346z" />
<glyph unicode="r" horiz-adv-x="771" d="M181 0h121v631q0 98 40.5 181.5t118 135.5t175.5 52q40 0 53 -4l11 95q-35 5 -81 5q-105 0 -193 -61.5t-141 -200.5l-13 248h-91v-1082z" />
<glyph unicode="s" horiz-adv-x="946" d="M124 828q0 -106 57.5 -172.5t207.5 -113.5l144 -44q120 -38 161.5 -85t41.5 -132q0 -106 -61 -157.5t-188 -51.5q-178 0 -293 93h-14l-51 -70q71 -57 165.5 -86t192.5 -29q160 0 257.5 76t97.5 228q0 115 -60 185t-222 122l-143 45q-100 32 -140.5 76.5t-40.5 116.5 q0 89 71.5 135.5t189.5 46.5q145 0 240 -75h10l51 67q-47 44 -127.5 72.5t-174.5 28.5q-169 0 -270.5 -73t-101.5 -203z" />
<glyph unicode="t" horiz-adv-x="768" d="M80 1009h156v-727q0 -160 68 -225.5t222 -65.5l130 7l3 81q-83 -4 -128 -4q-100 2 -137.5 44.5t-37.5 167.5v723h314v72h-314v287l-98 -10l-20 -277l-158 -10v-63z" />
<glyph unicode="u" horiz-adv-x="1180" d="M167 415q0 -435 379 -435q123 0 204 39.5t137 122.5l11 -142h103v1082h-121v-842q-110 -169 -328 -169q-264 0 -264 312v699h-121v-667z" />
<glyph unicode="v" horiz-adv-x="1052" d="M64 1082l399 -1082h129l399 1082h-120q-232 -659 -344 -959q-83 220 -343 959h-120z" />
<glyph unicode="w" horiz-adv-x="1507" d="M50 1082l286 -1082h102l318 968l318 -968h99l284 1082h-107l-230 -938l-303 921h-127l-299 -920l-230 937h-111z" />
<glyph unicode="x" horiz-adv-x="1028" d="M50 0h128l336 465l328 -465h133l-383 545l385 537h-128l-316 -453l-319 453h-135l375 -532z" />
<glyph unicode="y" horiz-adv-x="1091" d="M64 1082l454 -1039l-161 -415l99 -33l579 1487h-116l-345 -899l-385 899h-125z" />
<glyph unicode="z" horiz-adv-x="939" d="M115 0h712l-3 86h-594l591 912v84h-685l3 -85h569l-593 -914v-83z" />
<glyph unicode="{" horiz-adv-x="837" d="M150 567q43 0 75.5 -7.5t55 -17.5t37.5 -32.5t23 -42t12 -57.5t5 -67t1 -82v-209q0 -98 11.5 -156t45 -98.5t91.5 -56t154 -15.5v81q-114 1 -150 50t-36 201v265q0 141 -37.5 205.5t-147.5 80.5q110 16 147.5 80.5t37.5 205.5v265q0 78 8 125t31 76t58 39.5t94 10.5v82 q-96 0 -155 -15.5t-93.5 -56t-46.5 -99t-12 -155.5v-210q0 -46 -0.5 -72.5t-3.5 -61t-8.5 -53.5t-15.5 -41.5t-25.5 -34t-37 -23t-51 -16t-67.5 -4.5v-84z" />
<glyph unicode="|" horiz-adv-x="360" d="M123 -364h95v1893h-95v-1893z" />
<glyph unicode="}" horiz-adv-x="837" d="M122 1411q115 -1 152.5 -50t37.5 -201v-265q0 -140 38 -205t148 -81q-110 -16 -148 -81t-38 -205v-265q0 -152 -35.5 -201t-149.5 -50v-81q96 0 154 15.5t91.5 56t45 98.5t11.5 156v209q0 47 0.5 72.5t3 61t8.5 53.5t16 41.5t25 34.5t37 22.5t51.5 16t67.5 4.5v84 q-38 0 -67.5 4.5t-51 16t-37 23t-25.5 34t-15.5 41.5t-8.5 53.5t-3.5 61t-0.5 72.5v210q0 97 -12 155.5t-46.5 99t-93.5 56t-155 15.5v-82z" />
<glyph unicode="~" horiz-adv-x="1208" d="M95 580l22 -73q38 73 101 121t129 48q31 0 74.5 -12.5t75 -25t101.5 -43.5q5 -2 8 -3.5t7 -3t8 -3.5q140 -63 212 -63q83 0 133.5 49t88.5 154l-32 64q-16 -65 -74 -117.5t-120 -52.5q-22 0 -54 9t-55 18t-71.5 30.5t-70.5 30.5q-92 41 -134.5 55t-96.5 14 q-87 0 -152 -54t-100 -142z" />
<glyph unicode="&#xa1;" horiz-adv-x="504" d="M142 1045q0 -41 23 -69.5t76 -28.5t76 28.5t23 69.5q0 40 -23 69.5t-76 29.5t-76 -28.5t-23 -70.5zM175 -261v-81h146v81l-53 977h-44z" />
<glyph unicode="&#xa2;" horiz-adv-x="1038" d="M118 542q0 -259 128.5 -410.5t349.5 -151.5q150 0 252 69.5t133 177.5l-70 35h-17q-33 -88 -110.5 -139.5t-185.5 -51.5q-170 0 -263 125.5t-93 345.5t93 345t263 125q108 0 186 -52t110 -140h16l71 37q-32 108 -133.5 177.5t-251.5 69.5q-221 0 -349.5 -151.5 t-128.5 -410.5zM542 22v-318h93l8 318h-101zM542 1063h96v317h-91z" />
<glyph unicode="&#xa3;" horiz-adv-x="1198" d="M117 75l12 -75h905l8 91h-627v599h414v84h-414v168q0 213 68.5 325t224.5 112q79 0 144 -27.5t130 -80.5h10l46 77q-138 127 -331 127q-76 0 -136.5 -17.5t-102.5 -47t-72.5 -74.5t-48.5 -92t-28 -108.5t-13.5 -115.5t-3.5 -121v-125h-182v-84h182v-601z" />
<glyph unicode="&#xa4;" horiz-adv-x="1347" d="M160 1146l185 -179q-87 -109 -87 -256q0 -143 87 -256l-184 -176l47 -51l184 175q112 -98 270 -98t271 96l184 -174l43 50l-181 178q86 105 86 256q0 141 -87 256l183 176l-44 50l-184 -174q-116 100 -271 100q-158 0 -272 -99l-182 173zM333 711q0 143 89.5 243 t239.5 100q152 0 241 -100t89 -243q0 -144 -89 -243t-241 -99q-151 0 -240 99t-89 243z" />
<glyph unicode="&#xa5;" horiz-adv-x="1278" d="M72 1455l516 -880v-575h118v575l485 880h-114l-431 -780l-466 780h-108zM258 300h762v79h-762v-79zM258 580h762v79h-762v-79z" />
<glyph unicode="&#xa6;" horiz-adv-x="297" d="M101 -159h86v705h-86v-705zM101 802h86v702h-86v-702z" />
<glyph unicode="&#xa7;" horiz-adv-x="1055" d="M177 1198q0 -77 33 -131.5t105 -96.5q-136 -84 -136 -218q0 -55 15 -93t53 -68.5t87.5 -53t135.5 -51.5q129 -44 197 -84t89.5 -76t21.5 -89q0 -107 -74.5 -160.5t-193.5 -53.5q-159 0 -313 76l-14 -89q153 -71 319 -71q104 0 186 29.5t135.5 98t53.5 168.5 q0 156 -135 235q68 38 104 87.5t36 122.5q0 102 -66 160t-238 120t-215 87q-64 36 -78 94q-6 24 -6 58q0 94 73.5 144t198.5 50q135 0 264 -62l27 80q-142 64 -300 64q-162 0 -263.5 -73t-101.5 -204zM279 756q0 117 123 172q32 -16 138 -50q125 -45 186 -88t61 -107 q0 -22 -3.5 -40.5t-12.5 -34.5t-15 -26t-21.5 -22.5t-21.5 -17t-24.5 -16t-21.5 -13.5q-53 22 -156 54q-150 53 -191 84t-41 105z" />
<glyph unicode="&#xa8;" horiz-adv-x="837" d="M136 1409q0 -34 18 -57t59 -23q76 0 76 80q0 78 -76 78q-77 0 -77 -78zM521 1409q0 -34 18.5 -57t59.5 -23q76 0 76 80q0 33 -17.5 55.5t-58.5 22.5q-42 0 -60 -22.5t-18 -55.5z" />
<glyph unicode="&#xa9;" horiz-adv-x="1865" d="M106 749q0 -157 45 -288.5t121.5 -222t178 -153.5t213 -92.5t228.5 -29.5t229.5 29.5t215.5 92.5t180 153.5t123 222.5t46 288t-46 288t-123 223t-180 154.5t-215.5 93t-229.5 29.5t-228.5 -29.5t-213 -93t-178 -154.5t-121.5 -222.5t-45 -288.5zM195 749q0 143 40 262.5 t108 202t158 140t189 84.5t202 27t202.5 -26.5t190 -84.5t159 -140.5t109 -202.5t40.5 -262t-40.5 -262t-109 -202.5t-159 -140.5t-190 -84.5t-202.5 -26.5t-202 26.5t-189 84.5t-158 140t-108 202t-40 263zM419 748q0 -111 41.5 -209t111 -165.5t162 -106t192.5 -38.5 q150 0 286 86l-27 74q-126 -76 -260 -76q-167 0 -281.5 120.5t-114.5 321.5q0 182 114.5 303t272.5 121q61 0 130 -22.5t124 -67.5l38 79q-140 96 -294 96q-131 0 -244 -66t-182 -185.5t-69 -264.5z" />
<glyph unicode="&#xaa;" horiz-adv-x="1136" d="M167 854q0 -124 80.5 -191t216.5 -67q200 0 323 156l12 -141h81v624q0 174 -89.5 250.5t-254.5 76.5q-84 0 -175 -22.5t-148 -57.5l37 -80q59 39 137.5 59.5t151.5 20.5q239 0 239 -233v-121l-186 3h-15q-217 0 -313.5 -69.5t-96.5 -207.5zM270 854q0 53 13 88t47.5 63 t99 40.5t162.5 12.5h10l176 -1v-224q-119 -157 -306 -157q-89 0 -145.5 43t-56.5 135z" />
<glyph unicode="&#xab;" horiz-adv-x="1005" d="M121 542l275 -385l94 8l-264 380l272 375l-98 8zM449 542l275 -385l94 8l-265 380l272 375l-98 8z" />
<glyph unicode="&#xac;" horiz-adv-x="1232" d="M109 695h865v-436h87v529h-952v-93z" />
<glyph unicode="&#xad;" horiz-adv-x="1050" d="M127 268h786v98h-786v-98z" />
<glyph unicode="&#xae;" horiz-adv-x="1923" d="M177 750q0 -156 45 -288t121 -222.5t177 -153.5t212 -92.5t227 -29.5t227 29.5t213 92.5t178 153.5t121.5 222.5t45.5 288t-45.5 288t-122 222.5t-178 154t-212.5 93t-227 29.5t-226.5 -29.5t-212 -93t-177.5 -154t-121 -222.5t-45 -288zM269 750q0 143 40 263t107 202 t156 140t187 84.5t200 26.5t200.5 -26.5t188 -84.5t157.5 -140.5t108 -202.5t40 -262q0 -143 -40 -263t-108 -202t-157.5 -140t-188 -84.5t-200.5 -26.5t-200 26.5t-187 84.5t-156 140t-107 202t-40 263zM659 309h95v461h259l219 -461h104l-227 473q96 4 147 68t51 171 q0 85 -25.5 134.5t-95.5 77t-196 27.5h-331v-951zM755 853v324h230q135 0 184 -31t49 -129q0 -87 -38 -125.5t-146 -38.5h-279z" />
<glyph unicode="&#xaf;" horiz-adv-x="1205" d="M327 1362h508v70h-508v-70z" />
<glyph unicode="&#xb0;" horiz-adv-x="863" d="M130 1201q0 -128 91.5 -208.5t204.5 -80.5q118 0 209 82t91 207q0 126 -91.5 207t-208.5 81q-72 0 -139 -34.5t-112 -102t-45 -151.5zM216 1200q0 93 61 153.5t150 60.5q92 0 153.5 -60.5t61.5 -153.5q0 -91 -62 -152t-152 -61q-91 0 -151.5 60t-60.5 153z" />
<glyph unicode="&#xb1;" horiz-adv-x="1157" d="M110 0h938v86h-938v-86zM140 597h381v-408h92v408h371v77h-372v398h-91v-398h-381v-77z" />
<glyph unicode="&#xb2;" horiz-adv-x="750" d="M82 1379l52 -59q97 115 247 115q79 0 124.5 -47t45.5 -124q0 -53 -30.5 -108.5t-103.5 -135.5q-38 -41 -77 -79.5t-97 -94t-94 -91.5v-76h489l3 75h-367q49 50 113.5 114t95.5 96q86 88 123 153.5t37 148.5q0 117 -75 182.5t-188 65.5q-190 0 -298 -135z" />
<glyph unicode="&#xb3;" horiz-adv-x="872" d="M181 752q40 -45 109.5 -69.5t149.5 -24.5q111 0 186 59.5t75 170.5q0 83 -46 137t-119 72q72 19 115.5 70t43.5 129q0 107 -71.5 161t-179.5 54q-81 0 -150.5 -25.5t-110.5 -71.5l43 -58q80 80 213 80q77 0 124.5 -36t47.5 -107q0 -73 -49.5 -117.5t-137.5 -44.5h-110 v-71l110 1q88 0 141 -47.5t53 -124.5q0 -74 -50 -115t-128 -41q-141 0 -215 81z" />
<glyph unicode="&#xb4;" horiz-adv-x="695" d="M231 1210h74l276 359h-141z" />
<glyph unicode="&#xb5;" horiz-adv-x="1176" d="M167 1082l1 -1411h120v391q93 -82 258 -82q123 0 204 39.5t137 122.5l11 -142h103v1082h-121v-842q-110 -169 -328 -169q-264 0 -264 312v699h-121z" />
<glyph unicode="&#xb6;" horiz-adv-x="1125" d="M145 1140q0 -53 11.5 -99t40 -90t73.5 -74.5t116.5 -49.5t164.5 -19v-1004h90v1567h150v-1567h90v1652h-354q-97 0 -169.5 -22.5t-112 -55t-63.5 -78t-30.5 -82.5t-6.5 -78z" />
<glyph unicode="&#xb7;" horiz-adv-x="479" d="M159 636q0 -94 86 -94q85 0 85 94q0 93 -85 93q-86 0 -86 -93z" />
<glyph unicode="&#xb8;" horiz-adv-x="643" d="M148 -360q70 -32 151 -32q110 0 179.5 52.5t69.5 139.5q0 76 -48.5 117t-121.5 41q-49 0 -97 -18l1 -40q36 7 67 7q67 0 94.5 -31.5t27.5 -74.5q0 -64 -49 -97.5t-120 -33.5t-130 32z" />
<glyph unicode="&#xb9;" horiz-adv-x="900" d="M277 1323q43 9 104.5 32.5t88.5 41.5v-647h-192v-78h476v78h-182v753h-85q-30 -28 -95 -57.5t-115 -42.5v-80z" />
<glyph unicode="&#xba;" horiz-adv-x="892" d="M112 1141q0 -165 89 -269t244 -104q148 0 241 106.5t93 266.5q0 171 -87 275t-247 104q-156 0 -244.5 -105.5t-88.5 -273.5zM226 1142q0 130 57 211.5t162 81.5q109 0 168 -82.5t59 -213.5q0 -128 -58 -207.5t-169 -79.5q-106 0 -162.5 80.5t-56.5 209.5z" />
<glyph unicode="&#xbb;" horiz-adv-x="976" d="M142 165l97 -8l277 385l-276 386l-96 -7l268 -380zM471 165l97 -8l276 385l-276 386l-96 -7l268 -380z" />
<glyph unicode="&#xbc;" horiz-adv-x="1678" d="M114 1316q126 48 167 76v-666h-159v-78h403v78h-144v772h-81q-56 -55 -186 -100v-82zM389 0h98l886 1506h-99zM982 208h399v-209h94v209h125l-7 75h-116v556h-106l-389 -567v-64zM1086 283l295 436v-436h-295z" />
<glyph unicode="&#xbd;" horiz-adv-x="1711" d="M114 1316q126 48 167 76v-666h-159v-78h403v78h-144v772h-81q-56 -55 -186 -100v-82zM375 0h99l885 1506h-99zM1044 682l64 -53q86 132 223 132q76 0 122.5 -43t46.5 -117q0 -60 -32.5 -114.5t-116.5 -139.5q-143 -143 -271 -266v-81h509v86h-385q30 30 113 108.5 t99 94.5q100 96 142 162.5t42 152.5q0 114 -75.5 180.5t-192.5 66.5q-94 0 -170.5 -44.5t-117.5 -124.5z" />
<glyph unicode="&#xbe;" horiz-adv-x="1728" d="M123 1416l42 -69q97 66 195 66q67 0 108.5 -35.5t41.5 -103.5q0 -70 -47 -109t-135 -39h-82v-85h83q96 0 144.5 -43t48.5 -124q0 -77 -47.5 -115t-122.5 -38q-100 0 -191 57l-35 -72q97 -69 227 -69q114 0 192 61t78 178q0 78 -46 134.5t-124 76.5q71 14 112 70t41 126 q0 105 -69.5 160.5t-172.5 55.5q-136 0 -241 -83zM422 0h99l885 1506h-99zM1011 208h400v-209h94v209h125l-7 75h-116v556h-106l-390 -567v-64zM1116 283l295 436v-436h-295z" />
<glyph unicode="&#xbf;" horiz-adv-x="904" d="M131 -13q0 -149 92.5 -232t235.5 -83q163 0 291 90l-18 104q-46 -31 -116.5 -60t-140.5 -29q-222 0 -222 216q0 69 28.5 150.5t69.5 157.5t82.5 152.5t70 159.5t28.5 155h-61q-27 -101 -73 -194.5t-90.5 -159t-85.5 -130.5t-66 -140t-25 -157zM398 1090q0 -40 24 -68.5 t77 -28.5q52 0 74.5 28t22.5 69q0 40 -22.5 68.5t-74.5 28.5q-53 0 -77 -28t-24 -69z" />
<glyph unicode="&#xc0;" horiz-adv-x="1312" d="M55 0h120l187 494h606l185 -494h115l-557 1455h-101zM338 1967l289 -359h74l-208 359h-155zM395 584l265 732l276 -732h-541z" />
<glyph unicode="&#xc1;" horiz-adv-x="1312" d="M55 0h120l187 494h606l185 -494h115l-557 1455h-101zM395 584l265 732l276 -732h-541zM624 1608h74l276 359h-141z" />
<glyph unicode="&#xc2;" horiz-adv-x="1312" d="M55 0h120l187 494h606l185 -494h115l-557 1455h-101zM395 584l265 732l276 -732h-541zM398 1592h91l161 241l161 -241h90l-187 319h-129z" />
<glyph unicode="&#xc3;" horiz-adv-x="1312" d="M55 0h120l187 494h606l185 -494h115l-557 1455h-101zM345 1715h65q6 99 65 99q35 0 144.5 -49.5t163.5 -49.5q123 0 123 180h-69q-8 -90 -61 -90q-26 0 -75.5 22.5t-108 45.5t-106.5 23q-141 0 -141 -181zM395 584l265 732l276 -732h-541z" />
<glyph unicode="&#xc4;" horiz-adv-x="1312" d="M55 0h120l187 494h606l185 -494h115l-557 1455h-101zM376 1782q0 -34 18 -57t59 -23q76 0 76 80q0 78 -76 78q-77 0 -77 -78zM395 584l265 732l276 -732h-541zM761 1782q0 -34 18.5 -57t59.5 -23q76 0 76 80q0 33 -17.5 55.5t-58.5 22.5q-42 0 -60 -22.5t-18 -55.5z" />
<glyph unicode="&#xc5;" horiz-adv-x="1312" d="M55 0h120l187 494h606l185 -494h115l-557 1455h-101zM395 584l265 732l276 -732h-541zM487 1766q0 -72 49.5 -119.5t122.5 -47.5q72 0 122 48t50 119t-50 118.5t-122 47.5q-73 0 -122.5 -47.5t-49.5 -118.5zM560 1764q0 42 28.5 71.5t70.5 29.5q41 0 71 -29.5t30 -71.5 q0 -41 -30 -71t-71 -30q-42 0 -70.5 29.5t-28.5 71.5z" />
<glyph unicode="&#xc6;" horiz-adv-x="1807" d="M-1 0h131l309 498h516v-498h798l9 95h-693v610h609v95h-609v560h685l4 95h-855zM491 588l464 758v-758h-464z" />
<glyph unicode="&#xc7;" horiz-adv-x="1357" d="M151 728q0 -347 175 -547.5t470 -200.5q167 0 305.5 89t189.5 248l-84 32h-13q-43 -123 -151.5 -197t-243.5 -74q-243 0 -384.5 172t-141.5 478t141.5 478.5t384.5 172.5q135 0 243 -74t151 -197h14l82 32q-34 107 -111.5 184.5t-175.5 114.5t-208 37 q-294 0 -468.5 -200.5t-174.5 -547.5zM648 -364q70 -32 151 -32q110 0 179.5 52.5t69.5 139.5q0 76 -48.5 117t-121.5 41q-49 0 -97 -18l1 -40q36 7 67 7q67 0 94.5 -31.5t27.5 -74.5q0 -64 -49 -97.5t-120 -33.5t-130 32z" />
<glyph unicode="&#xc8;" horiz-adv-x="1161" d="M216 0h885l9 95h-772v606h687v95h-687v564h764l3 95h-889v-1455zM333 1967l289 -359h74l-208 359h-155z" />
<glyph unicode="&#xc9;" horiz-adv-x="1161" d="M216 0h885l9 95h-772v606h687v95h-687v564h764l3 95h-889v-1455zM619 1608h74l276 359h-141z" />
<glyph unicode="&#xca;" horiz-adv-x="1161" d="M216 0h885l9 95h-772v606h687v95h-687v564h764l3 95h-889v-1455zM393 1592h91l161 241l161 -241h90l-187 319h-129z" />
<glyph unicode="&#xcb;" horiz-adv-x="1161" d="M216 0h885l9 95h-772v606h687v95h-687v564h764l3 95h-889v-1455zM371 1782q0 -34 18 -57t59 -23q76 0 76 80q0 78 -76 78q-77 0 -77 -78zM756 1782q0 -34 18.5 -57t59.5 -23q76 0 76 80q0 33 -17.5 55.5t-58.5 22.5q-42 0 -60 -22.5t-18 -55.5z" />
<glyph unicode="&#xcc;" horiz-adv-x="786" d="M77 1967l289 -359h74l-208 359h-155zM147 0h529v78h-203v1300h203v77h-529v-77h204v-1300h-204v-78z" />
<glyph unicode="&#xcd;" horiz-adv-x="786" d="M147 0h529v78h-203v1300h203v77h-529v-77h204v-1300h-204v-78zM362 1608h74l276 359h-141z" />
<glyph unicode="&#xce;" horiz-adv-x="786" d="M136 1592h91l161 241l161 -241h90l-187 319h-129zM147 0h529v78h-203v1300h203v77h-529v-77h204v-1300h-204v-78z" />
<glyph unicode="&#xcf;" horiz-adv-x="786" d="M115 1782q0 -34 18 -57t59 -23q76 0 76 80q0 78 -76 78q-77 0 -77 -78zM147 0h529v78h-203v1300h203v77h-529v-77h204v-1300h-204v-78zM500 1782q0 -34 18.5 -57t59.5 -23q76 0 76 80q0 33 -17.5 55.5t-58.5 22.5q-42 0 -60 -22.5t-18 -55.5z" />
<glyph unicode="&#xd0;" horiz-adv-x="1514" d="M49 706h496v96h-496v-96zM216 4q162 -14 287 -14q196 0 343 31.5t245.5 90.5t159.5 152t87 207t26 264q0 123 -15.5 219.5t-51.5 180.5t-97 143.5t-150 102.5t-211.5 63.5t-281.5 20.5q-157 0 -341 -19v-1442zM338 87v1275q117 9 216 9q135 0 239 -17t180 -53t128 -87 t83 -124.5t44.5 -160t13.5 -199.5q0 -130 -20 -228t-68.5 -180t-128.5 -134t-202 -80.5t-286 -28.5q-104 0 -199 8z" />
<glyph unicode="&#xd1;" horiz-adv-x="1561" d="M216 0h105v903l-12 397l890 -1300h116v1455h-103v-917l7 -385l-890 1302h-113v-1455zM457 1715h65q6 99 65 99q35 0 144.5 -49.5t163.5 -49.5q123 0 123 180h-69q-8 -90 -61 -90q-26 0 -75.5 22.5t-108 45.5t-106.5 23q-141 0 -141 -181z" />
<glyph unicode="&#xd2;" horiz-adv-x="1649" d="M152 717q0 -133 25 -245.5t77.5 -203.5t131 -154.5t189 -98t246.5 -34.5q167 0 294.5 54t207 152t119.5 230.5t40 295.5q0 171 -42.5 310.5t-123.5 240.5t-207 156t-287 55q-166 0 -294 -54.5t-210 -154.5t-124 -238.5t-42 -310.5zM275 716q0 151 32 270.5t96.5 208 t170.5 136t247 47.5q113 0 203 -31.5t152.5 -88.5t104 -140t60.5 -182.5t19 -219.5q0 -145 -29.5 -258.5t-92 -200t-169 -133t-251.5 -46.5t-251.5 46.5t-169.5 133t-92.5 200t-29.5 258.5zM503 1967l289 -359h74l-208 359h-155z" />
<glyph unicode="&#xd3;" horiz-adv-x="1649" d="M152 717q0 -133 25 -245.5t77.5 -203.5t131 -154.5t189 -98t246.5 -34.5q167 0 294.5 54t207 152t119.5 230.5t40 295.5q0 171 -42.5 310.5t-123.5 240.5t-207 156t-287 55q-166 0 -294 -54.5t-210 -154.5t-124 -238.5t-42 -310.5zM275 716q0 151 32 270.5t96.5 208 t170.5 136t247 47.5q113 0 203 -31.5t152.5 -88.5t104 -140t60.5 -182.5t19 -219.5q0 -145 -29.5 -258.5t-92 -200t-169 -133t-251.5 -46.5t-251.5 46.5t-169.5 133t-92.5 200t-29.5 258.5zM788 1608h74l276 359h-141z" />
<glyph unicode="&#xd4;" horiz-adv-x="1649" d="M152 717q0 -133 25 -245.5t77.5 -203.5t131 -154.5t189 -98t246.5 -34.5q167 0 294.5 54t207 152t119.5 230.5t40 295.5q0 171 -42.5 310.5t-123.5 240.5t-207 156t-287 55q-166 0 -294 -54.5t-210 -154.5t-124 -238.5t-42 -310.5zM275 716q0 151 32 270.5t96.5 208 t170.5 136t247 47.5q113 0 203 -31.5t152.5 -88.5t104 -140t60.5 -182.5t19 -219.5q0 -145 -29.5 -258.5t-92 -200t-169 -133t-251.5 -46.5t-251.5 46.5t-169.5 133t-92.5 200t-29.5 258.5zM563 1592h91l161 241l161 -241h90l-187 319h-129z" />
<glyph unicode="&#xd5;" horiz-adv-x="1649" d="M152 717q0 -133 25 -245.5t77.5 -203.5t131 -154.5t189 -98t246.5 -34.5q167 0 294.5 54t207 152t119.5 230.5t40 295.5q0 171 -42.5 310.5t-123.5 240.5t-207 156t-287 55q-166 0 -294 -54.5t-210 -154.5t-124 -238.5t-42 -310.5zM275 716q0 151 32 270.5t96.5 208 t170.5 136t247 47.5q113 0 203 -31.5t152.5 -88.5t104 -140t60.5 -182.5t19 -219.5q0 -145 -29.5 -258.5t-92 -200t-169 -133t-251.5 -46.5t-251.5 46.5t-169.5 133t-92.5 200t-29.5 258.5zM510 1715h65q6 99 65 99q35 0 144.5 -49.5t163.5 -49.5q123 0 123 180h-69 q-8 -90 -61 -90q-26 0 -75.5 22.5t-108 45.5t-106.5 23q-141 0 -141 -181z" />
<glyph unicode="&#xd6;" horiz-adv-x="1649" d="M152 717q0 -133 25 -245.5t77.5 -203.5t131 -154.5t189 -98t246.5 -34.5q167 0 294.5 54t207 152t119.5 230.5t40 295.5q0 171 -42.5 310.5t-123.5 240.5t-207 156t-287 55q-166 0 -294 -54.5t-210 -154.5t-124 -238.5t-42 -310.5zM275 716q0 151 32 270.5t96.5 208 t170.5 136t247 47.5q113 0 203 -31.5t152.5 -88.5t104 -140t60.5 -182.5t19 -219.5q0 -145 -29.5 -258.5t-92 -200t-169 -133t-251.5 -46.5t-251.5 46.5t-169.5 133t-92.5 200t-29.5 258.5zM541 1782q0 -34 18 -57t59 -23q76 0 76 80q0 78 -76 78q-77 0 -77 -78zM926 1782 q0 -34 18.5 -57t59.5 -23q76 0 76 80q0 33 -17.5 55.5t-58.5 22.5q-42 0 -60 -22.5t-18 -55.5z" />
<glyph unicode="&#xd7;" horiz-adv-x="780" d="M51 310l62 -59l278 298l275 -298l57 63q-271 299 -272 300l268 285l-66 65l-262 -285l-264 291l-62 -65l267 -291z" />
<glyph unicode="&#xd8;" horiz-adv-x="1656" d="M152 717q0 -252 91 -428.5t274 -253.5l-93 -240l70 -25l94 241q104 -30 233 -30q167 0 294.5 54t207 152t119.5 230.5t40 295.5q0 248 -88 428t-257 265l95 243l-74 27l-93 -239q-109 38 -243 38q-166 0 -294 -54.5t-210 -154.5t-124 -238.5t-42 -310.5zM275 716 q0 151 32 270.5t96.5 208t170.5 136t247 47.5q114 0 208 -33l-475 -1215q-279 133 -279 586zM624 104l475 1207q261 -147 261 -595q0 -145 -29.5 -258.5t-92 -200t-169 -133t-251.5 -46.5q-112 0 -194 26z" />
<glyph unicode="&#xd9;" horiz-adv-x="1466" d="M174 543q0 -125 31 -225t95 -177t172 -118.5t253 -41.5q143 0 251 43t172.5 120t96 176t31.5 219v917h-122v-917q0 -461 -429 -461q-226 0 -327.5 115.5t-101.5 345.5v917h-122v-913zM413 1967l289 -359h74l-208 359h-155z" />
<glyph unicode="&#xda;" horiz-adv-x="1466" d="M174 543q0 -125 31 -225t95 -177t172 -118.5t253 -41.5q143 0 251 43t172.5 120t96 176t31.5 219v917h-122v-917q0 -461 -429 -461q-226 0 -327.5 115.5t-101.5 345.5v917h-122v-913zM699 1608h74l276 359h-141z" />
<glyph unicode="&#xdb;" horiz-adv-x="1466" d="M174 543q0 -125 31 -225t95 -177t172 -118.5t253 -41.5q143 0 251 43t172.5 120t96 176t31.5 219v917h-122v-917q0 -461 -429 -461q-226 0 -327.5 115.5t-101.5 345.5v917h-122v-913zM473 1592h91l161 241l161 -241h90l-187 319h-129z" />
<glyph unicode="&#xdc;" horiz-adv-x="1466" d="M174 543q0 -125 31 -225t95 -177t172 -118.5t253 -41.5q143 0 251 43t172.5 120t96 176t31.5 219v917h-122v-917q0 -461 -429 -461q-226 0 -327.5 115.5t-101.5 345.5v917h-122v-913zM451 1782q0 -34 18 -57t59 -23q76 0 76 80q0 78 -76 78q-77 0 -77 -78zM836 1782 q0 -34 18.5 -57t59.5 -23q76 0 76 80q0 33 -17.5 55.5t-58.5 22.5q-42 0 -60 -22.5t-18 -55.5z" />
<glyph unicode="&#xdd;" horiz-adv-x="1220" d="M72 1455l516 -880v-575h118v575l485 880h-114l-431 -780l-466 780h-108zM576 1608h74l276 359h-141z" />
<glyph unicode="&#xde;" horiz-adv-x="1194" d="M211 0h122v442h293q228 0 332.5 93t104.5 284q0 90 -31.5 156t-90 105.5t-135.5 58.5t-175 19h-299v313h-121v-1471zM332 535v530h296q73 0 127.5 -11.5t97.5 -38.5t65.5 -76t22.5 -119q0 -162 -71 -223.5t-237 -61.5h-301z" />
<glyph unicode="&#xdf;" horiz-adv-x="1221" d="M190 0h122v1059q0 200 71 283t224 83q109 0 163.5 -55.5t54.5 -148.5q0 -62 -21.5 -116t-52.5 -93t-61.5 -76t-52 -80t-21.5 -88q0 -40 21.5 -78t56 -68.5t76 -61t82.5 -62t75.5 -64t56 -74.5t21.5 -88q0 -34 -10 -65.5t-31 -60.5t-60.5 -46.5t-92.5 -17.5 q-155 0 -298 76l-37 -97q52 -31 147 -55.5t192 -24.5q143 0 224 82t81 218q0 59 -22 111.5t-57 91.5t-77 73.5t-84.5 63t-77.5 53.5t-57 51.5t-22 51.5q0 27 23 64t56.5 77.5t66.5 85.5t56 101t23 111q0 132 -90 218t-251 86q-218 0 -317.5 -121t-99.5 -349v-1050z" />
<glyph unicode="&#xe0;" horiz-adv-x="1136" d="M117 283q0 -144 93.5 -221.5t250.5 -77.5q232 0 375 181l14 -164h94v724q0 202 -104 290.5t-295 88.5q-98 0 -203.5 -26t-170.5 -67l42 -93q69 45 160 69t176 24q276 0 276 -270v-140l-215 3h-18q-251 0 -363 -80.5t-112 -240.5zM235 1594l289 -359h74l-208 359h-155z M237 283q0 61 15 102t55 73t114.5 47t188.5 15h11l204 -2v-259q-137 -183 -354 -183q-104 0 -169 50t-65 157z" />
<glyph unicode="&#xe1;" horiz-adv-x="1136" d="M117 283q0 -144 93.5 -221.5t250.5 -77.5q232 0 375 181l14 -164h94v724q0 202 -104 290.5t-295 88.5q-98 0 -203.5 -26t-170.5 -67l42 -93q69 45 160 69t176 24q276 0 276 -270v-140l-215 3h-18q-251 0 -363 -80.5t-112 -240.5zM237 283q0 61 15 102t55 73t114.5 47 t188.5 15h11l204 -2v-259q-137 -183 -354 -183q-104 0 -169 50t-65 157zM521 1235h74l276 359h-141z" />
<glyph unicode="&#xe2;" horiz-adv-x="1136" d="M117 283q0 -144 93.5 -221.5t250.5 -77.5q232 0 375 181l14 -164h94v724q0 202 -104 290.5t-295 88.5q-98 0 -203.5 -26t-170.5 -67l42 -93q69 45 160 69t176 24q276 0 276 -270v-140l-215 3h-18q-251 0 -363 -80.5t-112 -240.5zM237 283q0 61 15 102t55 73t114.5 47 t188.5 15h11l204 -2v-259q-137 -183 -354 -183q-104 0 -169 50t-65 157zM295 1219h91l161 241l161 -241h90l-187 319h-129z" />
<glyph unicode="&#xe3;" horiz-adv-x="1136" d="M117 283q0 -144 93.5 -221.5t250.5 -77.5q232 0 375 181l14 -164h94v724q0 202 -104 290.5t-295 88.5q-98 0 -203.5 -26t-170.5 -67l42 -93q69 45 160 69t176 24q276 0 276 -270v-140l-215 3h-18q-251 0 -363 -80.5t-112 -240.5zM237 283q0 61 15 102t55 73t114.5 47 t188.5 15h11l204 -2v-259q-137 -183 -354 -183q-104 0 -169 50t-65 157zM242 1342h65q6 99 65 99q35 0 144.5 -49.5t163.5 -49.5q123 0 123 180h-69q-8 -90 -61 -90q-26 0 -75.5 22.5t-108 45.5t-106.5 23q-141 0 -141 -181z" />
<glyph unicode="&#xe4;" horiz-adv-x="1136" d="M117 283q0 -144 93.5 -221.5t250.5 -77.5q232 0 375 181l14 -164h94v724q0 202 -104 290.5t-295 88.5q-98 0 -203.5 -26t-170.5 -67l42 -93q69 45 160 69t176 24q276 0 276 -270v-140l-215 3h-18q-251 0 -363 -80.5t-112 -240.5zM237 283q0 61 15 102t55 73t114.5 47 t188.5 15h11l204 -2v-259q-137 -183 -354 -183q-104 0 -169 50t-65 157zM273 1409q0 -34 18 -57t59 -23q76 0 76 80q0 78 -76 78q-77 0 -77 -78zM658 1409q0 -34 18.5 -57t59.5 -23q76 0 76 80q0 33 -17.5 55.5t-58.5 22.5q-42 0 -60 -22.5t-18 -55.5z" />
<glyph unicode="&#xe5;" horiz-adv-x="1136" d="M117 283q0 -144 93.5 -221.5t250.5 -77.5q232 0 375 181l14 -164h94v724q0 202 -104 290.5t-295 88.5q-98 0 -203.5 -26t-170.5 -67l42 -93q69 45 160 69t176 24q276 0 276 -270v-140l-215 3h-18q-251 0 -363 -80.5t-112 -240.5zM237 283q0 61 15 102t55 73t114.5 47 t188.5 15h11l204 -2v-259q-137 -183 -354 -183q-104 0 -169 50t-65 157zM384 1393q0 -72 49.5 -119.5t122.5 -47.5q72 0 122 48t50 119t-50 118.5t-122 47.5q-73 0 -122.5 -47.5t-49.5 -118.5zM457 1391q0 42 28.5 71.5t70.5 29.5q41 0 71 -29.5t30 -71.5q0 -41 -30 -71 t-71 -30q-42 0 -70.5 29.5t-28.5 71.5z" />
<glyph unicode="&#xe6;" horiz-adv-x="1750" d="M105 293q0 -80 25 -140t70 -96t101.5 -53.5t125.5 -19.5q135 0 265.5 57t193.5 157q57 -105 159 -161t233 -56q191 0 359 95l-39 82q-92 -46 -157 -64.5t-145 -18.5q-169 0 -270.5 107.5t-110.5 335.5q120 -2 169 -2q120 0 202 6.5t152.5 24.5t111 50.5t62.5 83t22 122.5 q0 126 -99 212t-270 86q-132 0 -238.5 -68t-142.5 -197q-28 266 -359 266q-207 0 -375 -103l48 -84q153 94 350 94h3q132 0 191.5 -66.5t59.5 -202.5v-132q-54 6 -232 6q-248 0 -356.5 -82.5t-108.5 -238.5zM226 303q0 57 15.5 96.5t55.5 70t113.5 45.5t184.5 15 q155 0 206 -6v-10q0 -146 27 -211q-42 -99 -147.5 -159.5t-225.5 -60.5q-99 0 -164 53.5t-65 166.5zM918 602q16 183 105 293t244 110q122 0 190 -62t68 -145q0 -68 -38.5 -109.5t-142.5 -65.5t-283 -24q-67 0 -143 3z" />
<glyph unicode="&#xe7;" horiz-adv-x="1095" d="M118 542q0 -259 128.5 -410.5t349.5 -151.5q150 0 252 69.5t133 177.5l-70 35h-17q-33 -88 -110.5 -139.5t-185.5 -51.5q-170 0 -263 125.5t-93 345.5t93 345t263 125q108 0 186 -52t110 -140h16l71 37q-32 108 -133.5 177.5t-251.5 69.5q-221 0 -349.5 -151.5 t-128.5 -410.5zM426 -364q70 -32 151 -32q110 0 179.5 52.5t69.5 139.5q0 76 -48.5 117t-121.5 41q-49 0 -97 -18l1 -40q36 7 67 7q67 0 94.5 -31.5t27.5 -74.5q0 -64 -49 -97.5t-120 -33.5t-130 32z" />
<glyph unicode="&#xe8;" horiz-adv-x="1132" d="M118 537q0 -251 139.5 -404t356.5 -153q196 0 364 97l-35 83h-12q-156 -86 -302 -86q-168 0 -275 115.5t-116 345.5h760q6 51 6 80q0 230 -105 359.5t-295 129.5q-98 0 -185 -38t-154.5 -108.5t-107 -179t-39.5 -241.5zM242 616q17 178 115 286.5t254 108.5 q147 0 218 -100t76 -295h-663zM264 1594l289 -359h74l-208 359h-155z" />
<glyph unicode="&#xe9;" horiz-adv-x="1132" d="M118 537q0 -251 139.5 -404t356.5 -153q196 0 364 97l-35 83h-12q-156 -86 -302 -86q-168 0 -275 115.5t-116 345.5h760q6 51 6 80q0 230 -105 359.5t-295 129.5q-98 0 -185 -38t-154.5 -108.5t-107 -179t-39.5 -241.5zM242 616q17 178 115 286.5t254 108.5 q147 0 218 -100t76 -295h-663zM550 1235h74l276 359h-141z" />
<glyph unicode="&#xea;" horiz-adv-x="1132" d="M118 537q0 -251 139.5 -404t356.5 -153q196 0 364 97l-35 83h-12q-156 -86 -302 -86q-168 0 -275 115.5t-116 345.5h760q6 51 6 80q0 230 -105 359.5t-295 129.5q-98 0 -185 -38t-154.5 -108.5t-107 -179t-39.5 -241.5zM242 616q17 178 115 286.5t254 108.5 q147 0 218 -100t76 -295h-663zM324 1219h91l161 241l161 -241h90l-187 319h-129z" />
<glyph unicode="&#xeb;" horiz-adv-x="1132" d="M118 537q0 -251 139.5 -404t356.5 -153q196 0 364 97l-35 83h-12q-156 -86 -302 -86q-168 0 -275 115.5t-116 345.5h760q6 51 6 80q0 230 -105 359.5t-295 129.5q-98 0 -185 -38t-154.5 -108.5t-107 -179t-39.5 -241.5zM242 616q17 178 115 286.5t254 108.5 q147 0 218 -100t76 -295h-663zM303 1409q0 -34 18 -57t59 -23q76 0 76 80q0 78 -76 78q-77 0 -77 -78zM688 1409q0 -34 18.5 -57t59.5 -23q76 0 76 80q0 33 -17.5 55.5t-58.5 22.5q-42 0 -60 -22.5t-18 -55.5z" />
<glyph unicode="&#xec;" horiz-adv-x="489" d="M-69 1594l289 -359h74l-208 359h-155zM189 0h120v1082h-120v-1082z" />
<glyph unicode="&#xed;" horiz-adv-x="489" d="M189 0h120v1082h-120v-1082zM217 1235h74l276 359h-141z" />
<glyph unicode="&#xee;" horiz-adv-x="489" d="M-9 1219h91l161 241l161 -241h90l-187 319h-129zM189 0h120v1082h-120v-1082z" />
<glyph unicode="&#xef;" horiz-adv-x="489" d="M-31 1409q0 -34 18 -57t59 -23q76 0 76 80q0 78 -76 78q-77 0 -77 -78zM189 0h120v1082h-120v-1082zM354 1409q0 -34 18.5 -57t59.5 -23q76 0 76 80q0 33 -17.5 55.5t-58.5 22.5q-42 0 -60 -22.5t-18 -55.5z" />
<glyph unicode="&#xf0;" horiz-adv-x="1308" d="M150 486q0 -99 30 -189t88 -163.5t153.5 -117t215.5 -43.5q124 0 220 41.5t153.5 114t86.5 165t29 200.5q0 100 -21 201.5t-57 175.5q-49 102 -137 217t-252 287l278 103l-41 76l-302 -115l-176 173h-135l225 -205l-248 -95l40 -78l264 101q310 -299 406 -525l-21 22 q-21 21 -27.5 27t-29.5 26.5t-37.5 28.5t-42 23t-52 21.5t-58 12t-68.5 5.5q-211 0 -347.5 -136.5t-136.5 -353.5zM272 484q0 172 98.5 285t265.5 113q89 0 162.5 -33t120 -88t71.5 -122.5t25 -138.5q0 -203 -95 -320t-277 -117q-92 0 -165 36.5t-117 97.5t-66.5 134.5 t-22.5 152.5z" />
<glyph unicode="&#xf1;" horiz-adv-x="1182" d="M180 0h121v648q0 72 17 133.5t54.5 115t108.5 84.5t168 31q132 0 186 -81.5t54 -235.5v-695h120v657q0 228 -84 337.5t-264 109.5q-272 0 -366 -216l-15 194h-100v-1082zM339 1317h65q6 99 65 99q35 0 144.5 -49.5t163.5 -49.5q123 0 123 180h-69q-8 -90 -61 -90 q-26 0 -75.5 22.5t-108 45.5t-106.5 23q-141 0 -141 -181z" />
<glyph unicode="&#xf2;" horiz-adv-x="1209" d="M118 541q0 -250 130.5 -405.5t351.5 -155.5q220 0 350.5 155.5t130.5 405.5q0 258 -129 410.5t-352 152.5t-352.5 -152.5t-129.5 -410.5zM242 540q0 215 95 343.5t263 128.5t263 -129t95 -344q0 -207 -95.5 -337.5t-262.5 -130.5q-168 0 -263 131t-95 338zM287 1594 l289 -359h74l-208 359h-155z" />
<glyph unicode="&#xf3;" horiz-adv-x="1209" d="M118 541q0 -250 130.5 -405.5t351.5 -155.5q220 0 350.5 155.5t130.5 405.5q0 258 -129 410.5t-352 152.5t-352.5 -152.5t-129.5 -410.5zM242 540q0 215 95 343.5t263 128.5t263 -129t95 -344q0 -207 -95.5 -337.5t-262.5 -130.5q-168 0 -263 131t-95 338zM573 1235h74 l276 359h-141z" />
<glyph unicode="&#xf4;" horiz-adv-x="1209" d="M118 541q0 -250 130.5 -405.5t351.5 -155.5q220 0 350.5 155.5t130.5 405.5q0 258 -129 410.5t-352 152.5t-352.5 -152.5t-129.5 -410.5zM242 540q0 215 95 343.5t263 128.5t263 -129t95 -344q0 -207 -95.5 -337.5t-262.5 -130.5q-168 0 -263 131t-95 338zM347 1219h91 l161 241l161 -241h90l-187 319h-129z" />
<glyph unicode="&#xf5;" horiz-adv-x="1209" d="M118 541q0 -250 130.5 -405.5t351.5 -155.5q220 0 350.5 155.5t130.5 405.5q0 258 -129 410.5t-352 152.5t-352.5 -152.5t-129.5 -410.5zM242 540q0 215 95 343.5t263 128.5t263 -129t95 -344q0 -207 -95.5 -337.5t-262.5 -130.5q-168 0 -263 131t-95 338zM295 1342h65 q6 99 65 99q35 0 144.5 -49.5t163.5 -49.5q123 0 123 180h-69q-8 -90 -61 -90q-26 0 -75.5 22.5t-108 45.5t-106.5 23q-141 0 -141 -181z" />
<glyph unicode="&#xf6;" horiz-adv-x="1209" d="M118 541q0 -250 130.5 -405.5t351.5 -155.5q220 0 350.5 155.5t130.5 405.5q0 258 -129 410.5t-352 152.5t-352.5 -152.5t-129.5 -410.5zM242 540q0 215 95 343.5t263 128.5t263 -129t95 -344q0 -207 -95.5 -337.5t-262.5 -130.5q-168 0 -263 131t-95 338zM326 1409 q0 -34 18 -57t59 -23q76 0 76 80q0 78 -76 78q-77 0 -77 -78zM711 1409q0 -34 18.5 -57t59.5 -23q76 0 76 80q0 33 -17.5 55.5t-58.5 22.5q-42 0 -60 -22.5t-18 -55.5z" />
<glyph unicode="&#xf7;" horiz-adv-x="1078" d="M74 512h913v111h-913v-111zM454 37h155v172h-155v-172zM454 894h155v171h-155v-171z" />
<glyph unicode="&#xf8;" horiz-adv-x="1199" d="M118 541q0 -250 130.5 -405.5t351.5 -155.5q220 0 350.5 155.5t130.5 405.5q0 258 -129 410.5t-352 152.5t-352.5 -152.5t-129.5 -410.5zM216 -122l62 -34l728 1351l-66 32zM242 540q0 215 95 343.5t263 128.5t263 -129t95 -344q0 -207 -95.5 -337.5t-262.5 -130.5 q-168 0 -263 131t-95 338z" />
<glyph unicode="&#xf9;" horiz-adv-x="1182" d="M167 415q0 -435 379 -435q123 0 204 39.5t137 122.5l11 -142h103v1082h-121v-842q-110 -169 -328 -169q-264 0 -264 312v699h-121v-667zM271 1594l289 -359h74l-208 359h-155z" />
<glyph unicode="&#xfa;" horiz-adv-x="1182" d="M167 415q0 -435 379 -435q123 0 204 39.5t137 122.5l11 -142h103v1082h-121v-842q-110 -169 -328 -169q-264 0 -264 312v699h-121v-667zM557 1235h74l276 359h-141z" />
<glyph unicode="&#xfb;" horiz-adv-x="1182" d="M167 415q0 -435 379 -435q123 0 204 39.5t137 122.5l11 -142h103v1082h-121v-842q-110 -169 -328 -169q-264 0 -264 312v699h-121v-667zM331 1219h91l161 241l161 -241h90l-187 319h-129z" />
<glyph unicode="&#xfc;" horiz-adv-x="1182" d="M167 415q0 -435 379 -435q123 0 204 39.5t137 122.5l11 -142h103v1082h-121v-842q-110 -169 -328 -169q-264 0 -264 312v699h-121v-667zM309 1409q0 -34 18 -57t59 -23q76 0 76 80q0 78 -76 78q-77 0 -77 -78zM694 1409q0 -34 18.5 -57t59.5 -23q76 0 76 80 q0 33 -17.5 55.5t-58.5 22.5q-42 0 -60 -22.5t-18 -55.5z" />
<glyph unicode="&#xfd;" horiz-adv-x="1076" d="M64 1082l454 -1039l-161 -415l99 -33l579 1487h-116l-345 -899l-385 899h-125zM526 1235h74l276 359h-141z" />
<glyph unicode="&#xfe;" horiz-adv-x="1238" d="M154 0h90l11 158q120 -178 361 -178q221 0 344 152t123 405q0 264 -114 415.5t-333 151.5q-117 0 -213 -58.5t-150 -175.5l2 214v476l-121 -20v-1540zM154 300v-793h117v793h-117zM271 275v300q-1 196 95 316.5t258 120.5q336 0 336 -474q0 -138 -34 -240t-113.5 -164 t-198.5 -62q-241 0 -343 203z" />
<glyph unicode="&#xff;" horiz-adv-x="1076" d="M64 1082l454 -1039l-161 -415l99 -33l579 1487h-116l-345 -899l-385 899h-125zM278 1409q0 -34 18 -57t59 -23q76 0 76 80q0 78 -76 78q-77 0 -77 -78zM663 1409q0 -34 18.5 -57t59.5 -23q76 0 76 80q0 33 -17.5 55.5t-58.5 22.5q-42 0 -60 -22.5t-18 -55.5z" />
<glyph unicode="&#x152;" horiz-adv-x="2608" d="M147 717q0 -168 40 -301.5t120.5 -231.5t209 -150.5t298.5 -52.5q191 0 328 73t213 206v-260h885l9 95h-772v606h687v95h-687v564h763l4 95h-889v-275q-78 141 -216 218t-324 77q-166 0 -294 -54.5t-210 -154.5t-123.5 -238.5t-41.5 -310.5zM269 716q0 151 32 270.5 t97 208t170.5 136t246.5 47.5t246 -47.5t168.5 -137t94.5 -208.5t31 -269q0 -145 -29.5 -258.5t-92 -200t-169 -133t-251.5 -46.5t-251.5 46.5t-169.5 133t-93 200t-30 258.5z" />
<glyph unicode="&#x153;" horiz-adv-x="1963" d="M120 529q0 -243 128 -395.5t353 -152.5q148 0 263 84t159 228q45 -148 163.5 -230t269.5 -82q115 0 197 26.5t169 77.5l-31 79h-12q-97 -49 -161.5 -69t-152.5 -20q-78 0 -144.5 25t-121.5 76.5t-86 140t-31 206.5h760q6 40 6 71v12q0 223 -106 350.5t-294 127.5h-2 q-89 0 -171.5 -35.5t-150 -109t-97.5 -172.5q-38 148 -152 232.5t-274 84.5q-150 0 -260 -71.5t-165.5 -196t-55.5 -287.5zM242 528q0 98 22 181t64.5 147.5t112.5 100.5t160 36q121 0 204 -64t119 -166.5t36 -235.5q0 -95 -21 -175.5t-63 -144t-112.5 -99.5t-162.5 -36 q-119 0 -202 63.5t-120 164t-37 228.5zM1086 604q17 174 115 280.5t253 106.5q148 0 219 -97.5t75 -289.5h-662z" />
<glyph unicode="&#x178;" horiz-adv-x="1220" d="M72 1455l516 -880v-575h118v575l485 880h-114l-431 -780l-466 780h-108zM329 1782q0 -34 18 -57t59 -23q76 0 76 80q0 78 -76 78q-77 0 -77 -78zM714 1782q0 -34 18.5 -57t59.5 -23q76 0 76 80q0 33 -17.5 55.5t-58.5 22.5q-42 0 -60 -22.5t-18 -55.5z" />
<glyph unicode="&#x2c6;" horiz-adv-x="859" d="M166 1219h91l161 241l161 -241h90l-187 319h-129z" />
<glyph unicode="&#x2dc;" horiz-adv-x="1001" d="M187 1317h65q6 99 65 99q35 0 144.5 -49.5t163.5 -49.5q123 0 123 180h-69q-8 -90 -61 -90q-26 0 -75.5 22.5t-108 45.5t-106.5 23q-141 0 -141 -181z" />
<glyph unicode="&#x2000;" horiz-adv-x="983" />
<glyph unicode="&#x2001;" horiz-adv-x="1967" />
<glyph unicode="&#x2002;" horiz-adv-x="983" />
<glyph unicode="&#x2003;" horiz-adv-x="1967" />
<glyph unicode="&#x2004;" horiz-adv-x="655" />
<glyph unicode="&#x2005;" horiz-adv-x="491" />
<glyph unicode="&#x2006;" horiz-adv-x="327" />
<glyph unicode="&#x2007;" horiz-adv-x="327" />
<glyph unicode="&#x2008;" horiz-adv-x="245" />
<glyph unicode="&#x2009;" horiz-adv-x="393" />
<glyph unicode="&#x200a;" horiz-adv-x="109" />
<glyph unicode="&#x2010;" horiz-adv-x="825" d="M154 534h496v96h-496v-96z" />
<glyph unicode="&#x2011;" horiz-adv-x="825" d="M154 534h496v96h-496v-96z" />
<glyph unicode="&#x2012;" horiz-adv-x="825" d="M154 534h496v96h-496v-96z" />
<glyph unicode="&#x2013;" horiz-adv-x="1329" d="M130 560h1069v103h-1069v-103z" />
<glyph unicode="&#x2014;" horiz-adv-x="2251" d="M60 556h2131v94h-2131v-94z" />
<glyph unicode="&#x2018;" horiz-adv-x="522" d="M184 1011h131l52 462h-82z" />
<glyph unicode="&#x2019;" horiz-adv-x="522" d="M184 1011h81l102 462h-131z" />
<glyph unicode="&#x201a;" horiz-adv-x="421" d="M96 -274h70l106 447h-111z" />
<glyph unicode="&#x201c;" horiz-adv-x="866" d="M184 1011h131l52 462h-82zM495 1011h131l52 462h-81z" />
<glyph unicode="&#x201d;" horiz-adv-x="866" d="M184 1011h81l102 462h-131zM495 1011h82l101 462h-131z" />
<glyph unicode="&#x201e;" horiz-adv-x="650" d="M112 -274h67l95 447h-103zM362 -274h62l103 447h-110z" />
<glyph unicode="&#x2022;" horiz-adv-x="845" d="M111 763q0 -77 25.5 -139t68 -100.5t95.5 -59t111 -20.5q59 0 113 20.5t98.5 59.5t71 102t26.5 141q0 152 -90 237.5t-213 85.5q-59 0 -113 -21t-97.5 -60.5t-69.5 -103.5t-26 -142z" />
<glyph unicode="&#x2026;" horiz-adv-x="1459" d="M149 77q0 -94 86 -94q85 0 85 94q0 93 -85 93q-86 0 -86 -93zM661 77q0 -94 86 -94q85 0 85 94q0 93 -85 93q-86 0 -86 -93zM1145 77q0 -94 86 -94q85 0 85 94q0 93 -85 93q-86 0 -86 -93z" />
<glyph unicode="&#x202f;" horiz-adv-x="393" />
<glyph unicode="&#x2039;" horiz-adv-x="638" d="M114 560l305 -418h107l-298 418l304 425h-109z" />
<glyph unicode="&#x203a;" horiz-adv-x="712" d="M160 142h108l311 434l-310 429h-109l301 -429z" />
<glyph unicode="&#x205f;" horiz-adv-x="491" />
<glyph unicode="&#x20ac;" horiz-adv-x="1353" d="M-15 541h896l11 94h-677l1 201h676l11 92h-899l-10 -92h160l-1 -201h-157zM120 728q0 -347 175 -547.5t470 -200.5q167 0 305.5 89t189.5 248l-84 32h-13q-43 -123 -151.5 -197t-243.5 -74q-243 0 -384.5 172t-141.5 478t141.5 478.5t384.5 172.5q135 0 243 -74t151 -197 h14l82 32q-34 107 -111.5 184.5t-175.5 114.5t-208 37q-294 0 -468.5 -200.5t-174.5 -547.5z" />
<glyph unicode="&#x2122;" horiz-adv-x="2020" d="M94 1406h286v-866h79v866h297v63h-662v-63zM924 540h70l8 833l344 -727h66l327 722l8 -828h73l-13 929h-91l-336 -742l-354 742h-89z" />
<glyph unicode="&#x25fc;" horiz-adv-x="1080" d="M0 0v1080h1080v-1080h-1080z" />
</font>
</defs>
</svg>
