<?xml version="1.0" standalone="no"?>
<!DOCTYPE svg PUBLIC "-//W3C//DTD SVG 1.1//EN" "http://www.w3.org/Graphics/SVG/1.1/DTD/svg11.dtd" >
<svg xmlns="http://www.w3.org/2000/svg" xmlns:xlink="http://www.w3.org/1999/xlink" version="1.1">
<metadata></metadata>
<defs>
<font id="commethin" horiz-adv-x="1200" >
<font-face units-per-em="2048" ascent="1638" descent="-410" />
<missing-glyph horiz-adv-x="467" />
<glyph unicode="&#xfb01;" horiz-adv-x="1217" d="M76 1031h219v-1031h98v1031h254v51h-254v91q0 73 8.5 123t22 79.5t38 45.5t49.5 21t63 5q21 0 48.5 -2.5t45.5 -4.5l17 -2l4 60q-70 14 -134 14q-132 0 -196 -80.5t-64 -260.5v-90l-214 -16zM916 1406q0 -73 74 -73q73 0 73 73q0 72 -73 72q-74 0 -74 -72zM938 0h97v1082 h-97v-1082z" />
<glyph unicode="&#xfb02;" horiz-adv-x="1318" d="M76 1031h219v-1031h98v1031h254v51h-254v91q0 73 8.5 123t22 79.5t38 45.5t49.5 21t63 5q21 0 48.5 -2.5t45.5 -4.5l17 -2l4 60q-70 14 -134 14q-132 0 -196 -80.5t-64 -260.5v-90l-214 -16zM921 244q0 -62 15.5 -109.5t39.5 -74t57.5 -43t64.5 -22t66 -5.5q85 0 131 6 l1 65q-28 -5 -114 -5q-93 0 -128.5 46.5t-35.5 141.5v1316l-97 -20v-1296z" />
<glyph unicode="&#xfb03;" horiz-adv-x="1947" d="M76 1031h219v-1031h98v1031h254v51h-254v91q0 73 8.5 123t22 79.5t38 45.5t49.5 21t63 5q21 0 48.5 -2.5t45.5 -4.5l17 -2l4 60q-70 14 -134 14q-132 0 -196 -80.5t-64 -260.5v-90l-214 -16zM806 1031h219v-1031h98v1031h254v51h-254v91q0 73 8.5 123t22 79.5t38 45.5 t49.5 21t63 5q21 0 48.5 -2.5t45.5 -4.5l17 -2l4 60q-70 14 -134 14q-132 0 -196 -80.5t-64 -260.5v-90l-214 -16zM1646 1406q0 -73 74 -73q73 0 73 73q0 72 -73 72q-74 0 -74 -72zM1668 0h97v1082h-97v-1082z" />
<glyph unicode="&#xfb04;" horiz-adv-x="2048" d="M76 1031h219v-1031h98v1031h254v51h-254v91q0 73 8.5 123t22 79.5t38 45.5t49.5 21t63 5q21 0 48.5 -2.5t45.5 -4.5l17 -2l4 60q-70 14 -134 14q-132 0 -196 -80.5t-64 -260.5v-90l-214 -16zM806 1031h219v-1031h98v1031h254v51h-254v91q0 73 8.5 123t22 79.5t38 45.5 t49.5 21t63 5q21 0 48.5 -2.5t45.5 -4.5l17 -2l4 60q-70 14 -134 14q-132 0 -196 -80.5t-64 -260.5v-90l-214 -16zM1651 244q0 -62 15.5 -109.5t39.5 -74t57.5 -43t64.5 -22t66 -5.5q85 0 131 6l1 65q-28 -5 -114 -5q-93 0 -128.5 46.5t-35.5 141.5v1316l-97 -20v-1296z" />
<glyph horiz-adv-x="0" />
<glyph unicode="&#xd;" horiz-adv-x="586" />
<glyph unicode=" "  horiz-adv-x="467" />
<glyph unicode="&#x09;" horiz-adv-x="467" />
<glyph unicode="&#xa0;" horiz-adv-x="467" />
<glyph unicode="!" horiz-adv-x="532" d="M178 71q0 -36 19.5 -62t69.5 -26q91 0 91 88q0 87 -91 87q-50 0 -69.5 -25.5t-19.5 -61.5zM194 1424l51 -1020h32l47 1020v56h-130v-56z" />
<glyph unicode="&#x22;" horiz-adv-x="565" d="M123 1504l35 -432h33l29 432h-97zM337 1504l35 -432h33l30 432h-98z" />
<glyph unicode="#" horiz-adv-x="1175" d="M175 435h154l-89 -436h69l89 436h295l-86 -436h68l89 436h190l12 65h-189l94 465h173l12 64h-171l86 430h-69l-87 -430h-296l87 430h-69l-88 -430h-175l-8 -64h169l-93 -465h-158zM412 500l94 465h295l-94 -465h-295z" />
<glyph unicode="$" horiz-adv-x="1192" d="M151 144q159 -163 448 -163q80 0 147.5 12t129.5 41.5t104.5 75.5t68 117.5t25.5 163.5q0 48 -11.5 90t-22.5 71t-45 59.5t-49 45t-66 39.5t-65.5 31t-75.5 31q-3 2 -4.5 2.5l-4.5 1.5t-5 2l-232 96q-65 27 -99 43.5t-67.5 39t-47.5 47t-22.5 59t-8.5 84.5 q0 76 35.5 132.5t95.5 87t125.5 44.5t137.5 14q60 0 113.5 -11.5t95.5 -33.5t64.5 -36.5t49.5 -35.5h9l32 51q-50 48 -149.5 88.5t-216.5 40.5q-67 0 -128 -8.5t-126.5 -33t-113 -62.5t-78 -103t-30.5 -149q0 -58 15 -103t37 -75t66 -59t82.5 -46.5t107.5 -45.5l233 -96 q118 -47 176.5 -84.5t86 -88.5t27.5 -132q0 -179 -101 -258.5t-295 -79.5q-143 0 -231 36t-169 109h-7zM586 9v-343h65l1 343h-66zM595 1444h67v266h-65z" />
<glyph unicode="%" horiz-adv-x="1806" d="M86 1088q0 -168 83.5 -272.5t244.5 -104.5q160 0 244.5 105t84.5 272q0 169 -83.5 272t-245.5 103q-159 0 -243.5 -104.5t-84.5 -270.5zM173 1088q0 140 60 224.5t184 84.5q123 0 182 -83t59 -226q0 -139 -59.5 -224.5t-181.5 -85.5q-124 0 -184 84t-60 226zM435 0h99 l822 1455h-89zM1039 364q0 -168 83.5 -272.5t244.5 -104.5q160 0 244.5 105t84.5 272q0 170 -83.5 273t-245.5 103q-159 0 -243.5 -104.5t-84.5 -271.5zM1125 364q0 140 60.5 224.5t183.5 84.5t182.5 -83t59.5 -226q0 -139 -60 -224.5t-182 -85.5q-123 0 -183.5 84 t-60.5 226z" />
<glyph unicode="&#x26;" horiz-adv-x="1493" d="M202 359q0 -186 127 -282t370 -96q228 0 422 158l149 -165l53 47l-150 165q135 129 204 299l-53 39q-69 -161 -198 -286l-497 548q179 75 282.5 170.5t103.5 210.5q0 138 -88 222.5t-231 84.5q-170 0 -274 -82t-104 -216q0 -92 41.5 -167t151.5 -204q-309 -187 -309 -446 zM291 367q0 225 275 386l508 -562q-177 -144 -361 -144q-208 0 -315 81t-107 239zM389 1179q0 104 83.5 167.5t220.5 63.5q114 0 182.5 -63.5t68.5 -168.5q0 -57 -29.5 -108t-85.5 -94.5t-113 -76t-134 -66.5q-121 132 -157 196t-36 150z" />
<glyph unicode="'" horiz-adv-x="232" d="M70 1458l10 -456h58l13 456h-81z" />
<glyph unicode="(" horiz-adv-x="696" d="M218 701q0 500 250 879h91v-12q-77 -120 -126.5 -232t-73 -221t-32 -201.5t-8.5 -212.5q0 -119 8.5 -211.5t32 -201.5t73 -221t126.5 -232v-12h-91q-250 379 -250 878z" />
<glyph unicode=")" horiz-adv-x="693" d="M137 -165v-12h91q250 379 250 878q0 500 -250 879h-91v-12q77 -120 126.5 -232t73 -221t32 -201.5t8.5 -212.5q0 -119 -8.5 -211.5t-32 -201.5t-73 -221t-126.5 -232z" />
<glyph unicode="*" horiz-adv-x="1202" d="M173 1121l379 -90l-254 -362l85 -65l211 399l225 -398q46 29 46 32q0 1 -1 1h-2q0 3 46 31q-172 227 -265 362l388 90l-30 106l-379 -161l41 433h-124l38 -433l-377 161z" />
<glyph unicode="+" horiz-adv-x="1151" d="M158 604h377v-406h78v406h368v54h-368v395h-78v-395h-377v-54z" />
<glyph unicode="," horiz-adv-x="461" d="M158 -293h39q80 412 80 461v28h-113z" />
<glyph unicode="-" horiz-adv-x="811" d="M143 534h498v72h-498v-72z" />
<glyph unicode="." horiz-adv-x="459" d="M157 58q0 -79 78 -79q76 0 76 79q0 78 -76 78q-78 0 -78 -78z" />
<glyph unicode="/" horiz-adv-x="1017" d="M129 -154h53l725 1714h-55z" />
<glyph unicode="0" horiz-adv-x="1235" d="M145 725q0 -360 121 -552.5t355 -192.5q231 0 344.5 191t113.5 554q0 377 -118.5 564t-339.5 187q-224 0 -350 -189t-126 -562zM240 727v12q0 175 30 305t83 205t120 110.5t148 35.5q66 0 118 -17t99.5 -62t79.5 -118.5t50.5 -192t18.5 -276.5q0 -153 -18.5 -270.5 t-50.5 -192t-79.5 -122t-100 -66.5t-117.5 -19q-66 0 -120 19t-103.5 66t-83.5 121t-54 191.5t-20 270.5z" />
<glyph unicode="1" d="M236 0h817v72h-338l-1 1384h-101q-48 -34 -165.5 -71t-168.5 -41v-78q52 6 160.5 37.5t177.5 68.5v-1300h-381v-72z" />
<glyph unicode="2" d="M107 71l37 -71h867l4 73h-795l527 538q130 132 167 182q67 88 81 196q6 45 6 106q0 88 -35 157.5t-86 110t-116.5 67.5t-120.5 36.5t-103 9.5q-112 0 -221.5 -32t-179.5 -76l32 -60h11q169 99 364 99q46 0 90 -7t96 -29t90 -56.5t63.5 -96t25.5 -142.5q0 -46 -4 -82.5 t-17.5 -70.5t-22.5 -54.5t-37 -54t-40.5 -47.5t-54.5 -55t-59 -59z" />
<glyph unicode="3" d="M157 1358l40 -64h2q78 51 177.5 79.5t193.5 28.5q74 0 136 -15t113 -46.5t80 -87t29 -129.5q0 -55 -14.5 -100t-37 -75.5t-59 -53.5t-71.5 -36t-84 -22t-87.5 -12.5t-90.5 -6.5h-62l12 -81h48q85 -2 148 -9.5t130.5 -30t110.5 -59.5t70.5 -102t27.5 -153 q0 -169 -105 -250t-294 -81q-107 0 -202 27.5t-151 63.5h-8l-39 -57q168 -106 393 -106q236 0 362 110t126 301q0 325 -348 387q155 30 233 112t78 238q0 112 -62 192.5t-162 118t-225 37.5q-227 0 -408 -118z" />
<glyph unicode="4" d="M131 515l3 -108h694v-407h86v407h174l10 70h-184l-1 979h-63zM225 480l601 831v-831h-601z" />
<glyph unicode="5" d="M163 90q172 -110 389 -110q103 0 193.5 30t163 88t114.5 153t42 215q0 87 -28 164t-82 138t-143 96.5t-203 35.5q-88 0 -155 -21t-144 -69l42 573h634l9 73h-714l-52 -738l96 -6q46 50 127.5 81.5t168.5 31.5q95 0 164.5 -30.5t108 -83t56.5 -115.5t18 -137 q0 -99 -34.5 -177t-93.5 -127t-134.5 -74.5t-161.5 -25.5q-178 0 -337 98h-11z" />
<glyph unicode="6" d="M193 425q0 -64 16 -126.5t50.5 -120.5t84 -101.5t123 -70t160.5 -26.5q136 0 237.5 62.5t151 161.5t49.5 218q0 94 -35.5 173t-94 130.5t-132.5 80.5t-153 29q-89 0 -171 -28t-136 -75q69 106 147 223t176 262.5t149 221.5v17h-90l-295 -441q-56 -84 -83.5 -127.5 t-63.5 -108.5t-51.5 -112.5t-27 -110.5t-11.5 -131zM276 414q0 85 28 150.5t68.5 102t92.5 59.5t92.5 30.5t76.5 7.5q158 0 252.5 -96.5t94.5 -244.5q0 -96 -39.5 -178t-122 -135.5t-193.5 -53.5q-113 0 -194 52t-118.5 131.5t-37.5 174.5z" />
<glyph unicode="7" d="M206 1456l32 -69h708l-559 -1387h80l561 1384v72h-822z" />
<glyph unicode="8" d="M149 346q0 -179 125.5 -272.5t324.5 -93.5q132 0 232 39t160 123t60 205q0 148 -93.5 258.5t-257.5 149.5q149 42 232 135t83 233q0 162 -111 257.5t-303 95.5q-195 0 -307 -95.5t-112 -257.5q0 -138 88 -237.5t227 -133.5q-176 -51 -262 -148t-86 -258zM227 359 q0 141 101.5 227.5t270.5 119.5q167 -32 268 -121.5t101 -225.5q0 -159 -88.5 -231t-280.5 -72q-184 0 -278 76.5t-94 226.5zM278 1130q0 124 87.5 195.5t233.5 71.5q147 0 233 -71.5t86 -195.5q0 -271 -319 -338q-159 34 -240 120.5t-81 217.5z" />
<glyph unicode="9" d="M185 1035q0 -93 35.5 -173.5t94.5 -134t133.5 -84t152.5 -30.5q154 0 268 66q-77 -99 -160 -207.5t-191 -253.5t-157 -210v-8h102l329 439q45 60 67.5 90.5t56.5 81t51 81.5t38.5 76t31 83t16.5 84.5t7 95.5q0 64 -16 126.5t-50.5 120.5t-84 101.5t-123 70t-160.5 26.5 q-137 0 -239 -62.5t-152 -161.5t-50 -217zM271 1034q0 95 39.5 177.5t122 136.5t193.5 54q85 0 153.5 -30.5t110.5 -81.5t64.5 -115t22.5 -134q0 -85 -28.5 -150.5t-69 -101.5t-93 -59t-93.5 -30t-77 -7q-158 0 -251.5 96t-93.5 245z" />
<glyph unicode=":" horiz-adv-x="478" d="M146 59q0 -32 18 -55.5t62 -23.5q78 0 78 79t-78 79q-80 0 -80 -79zM146 975q0 -32 18 -55.5t62 -23.5q78 0 78 79q0 78 -78 78q-80 0 -80 -78z" />
<glyph unicode=";" horiz-adv-x="468" d="M159 962q0 -32 18 -55.5t62 -23.5q78 0 78 79q0 78 -78 78q-80 0 -80 -78zM177 -293h39q80 412 80 461v28h-113z" />
<glyph unicode="&#x3c;" horiz-adv-x="1219" d="M114 554l935 -448l3 81l-848 399l849 421v89l-939 -484v-58z" />
<glyph unicode="=" horiz-adv-x="1060" d="M132 484h797v72h-797v-72zM132 867h797v72h-797v-72z" />
<glyph unicode="&#x3e;" horiz-adv-x="1234" d="M144 114l939 438v60l-935 493v-88l833 -431l-837 -389v-83z" />
<glyph unicode="?" horiz-adv-x="902" d="M116 1427l10 -89q46 30 120 60t145 30q235 0 235 -217q0 -74 -30 -164t-72.5 -173.5t-85 -165t-72.5 -164t-30 -145.5v-7h48q27 103 73.5 201.5t91 170.5t86 143.5t67 150t25.5 161.5q0 132 -90 213.5t-232 81.5q-164 0 -289 -87zM277 71q0 -88 88 -88q93 0 93 88 q0 35 -21 60.5t-72 25.5q-88 0 -88 -86z" />
<glyph unicode="@" horiz-adv-x="2133" d="M209 589q0 -396 223.5 -619.5t608.5 -223.5q314 0 528 144l-30 60q-217 -132 -493 -132q-159 0 -293.5 50t-235 145t-157.5 243.5t-57 334.5q0 184 64 343t173.5 268t257.5 171.5t314 62.5q204 0 365 -84.5t253.5 -242.5t92.5 -363q0 -123 -36 -230.5t-105 -175 t-156 -67.5q-86 0 -127 62t-41 154q0 103 12.5 212.5t51.5 330.5q-187 59 -299 59q-144 0 -249.5 -71t-158 -190.5t-52.5 -270.5q0 -180 81 -277.5t221 -97.5q115 0 198.5 81.5t126.5 223.5q7 -77 31 -133.5t58.5 -86.5t71 -44t75.5 -14q71 0 137.5 34t121 98.5t87.5 169 t33 233.5q0 232 -103 407t-282 266.5t-407 91.5q-262 0 -468.5 -119t-321 -329.5t-114.5 -473.5zM763 563q0 210 102 335.5t267 125.5q59 0 190 -30l-55 -313q-15 -85 -38 -157t-57.5 -133.5t-84 -96.5t-108.5 -35q-100 0 -157.5 74.5t-58.5 229.5z" />
<glyph unicode="A" horiz-adv-x="1278" d="M50 0h91l197 514h614l193 -514h82l-557 1455h-63zM364 582l274 757l289 -757h-563z" />
<glyph unicode="B" horiz-adv-x="1366" d="M222 0q191 -13 349 -13q167 0 286.5 17.5t194.5 49.5t117.5 85t58.5 114t16 147q0 294 -328 361q65 19 112.5 45t77 56t46.5 70t23.5 80t6.5 92q0 75 -16 129.5t-57.5 100.5t-112 74t-181 43.5t-263.5 15.5q-149 0 -330 -13v-1454zM314 67v662h333q265 0 384.5 -74 t119.5 -262q0 -78 -12.5 -129.5t-46 -93.5t-96 -64.5t-158.5 -34.5t-238 -12q-113 0 -286 8zM314 803v583q172 7 260 7q127 0 214 -9.5t149 -29t96.5 -55t49.5 -83.5t15 -118q0 -72 -18.5 -125t-49.5 -85.5t-79.5 -51.5t-100.5 -26t-120 -7h-416z" />
<glyph unicode="C" horiz-adv-x="1367" d="M148 728q0 -345 175 -546.5t474 -201.5q157 0 285.5 84.5t186.5 229.5l-60 24h-13q-52 -124 -160 -196.5t-239 -72.5q-257 0 -406.5 183t-149.5 496t149.5 496t406.5 183q131 0 239 -72.5t160 -196.5h14l59 25q-58 144 -186.5 228.5t-285.5 84.5q-299 0 -474 -201.5 t-175 -546.5z" />
<glyph unicode="D" horiz-adv-x="1525" d="M222 0q162 -10 268 -10q207 0 357.5 28.5t253 84.5t164 147t87.5 206.5t26 272.5q0 159 -25 274.5t-83.5 206.5t-156.5 146t-241.5 83.5t-341.5 28.5q-145 0 -308 -13v-1455zM314 66v1322q106 6 199 6q181 0 310.5 -24t219.5 -72.5t143 -130t76 -188t23 -255.5 q0 -140 -22.5 -243t-75 -185.5t-140 -133.5t-217 -77.5t-306.5 -26.5q-90 0 -210 8z" />
<glyph unicode="E" horiz-adv-x="1135" d="M222 0h847l8 69h-763v641h677v70h-677v604h761l2 71h-855v-1455z" />
<glyph unicode="F" horiz-adv-x="1056" d="M222 0h97v700h617v65h-617v621h663l8 69h-768v-1455z" />
<glyph unicode="G" horiz-adv-x="1487" d="M147 720q0 -155 45 -287.5t131 -233.5t222.5 -159t307.5 -58q141 0 250 19t223 59v656h-429l-12 -85h348v-530q-66 -20 -166 -34t-195 -14q-304 0 -468 180.5t-164 487.5q0 162 50.5 293t137 214t199 127.5t239.5 44.5q212 0 397 -114h10l29 67q-212 120 -443 120 q-147 0 -277 -52.5t-226.5 -148t-152.5 -238.5t-56 -314z" />
<glyph unicode="H" horiz-adv-x="1491" d="M218 0h93v717h869v-717h92v1455h-92v-677h-869v677h-93v-1455z" />
<glyph unicode="I" horiz-adv-x="751" d="M119 0h514v58h-210v1339h210v58h-514v-58h211v-1339h-211v-58z" />
<glyph unicode="J" horiz-adv-x="674" d="M72 -278l31 -73l57 22q76 31 121 55t82 55.5t54 74.5t25.5 100t8.5 143v1356h-93v-1392q0 -55 -3.5 -93t-16 -68.5t-24.5 -48.5t-43 -38t-56.5 -32.5t-78.5 -34.5z" />
<glyph unicode="K" horiz-adv-x="1241" d="M222 0h92v639l127 125l635 -764h104v7l-666 802l625 640v7h-104l-721 -732v732h-92v-1456z" />
<glyph unicode="L" horiz-adv-x="1081" d="M222 0h798l-3 69h-703v1386h-92v-1455z" />
<glyph unicode="M" horiz-adv-x="1765" d="M205 0h84v581l12 789l544 -1236h81l541 1225l11 -776v-583h85v581l-20 874h-121l-536 -1228l-536 1228h-130l-15 -874v-581z" />
<glyph unicode="N" horiz-adv-x="1541" d="M222 0h75v992l-9 352l952 -1344h80v1455h-74v-983l6 -362l-953 1345h-77v-1455z" />
<glyph unicode="O" horiz-adv-x="1644" d="M148 714q0 -164 40.5 -296.5t121.5 -231t212 -152t304 -53.5q168 0 298 54.5t210.5 153.5t121.5 230.5t41 290.5q0 226 -74.5 396.5t-227.5 269t-368 98.5q-168 0 -298.5 -55.5t-213 -156.5t-125 -239.5t-42.5 -308.5zM241 714q0 156 34.5 281t104.5 217.5t183 142.5 t263 50t262 -50.5t180.5 -143.5t102 -217t33.5 -280q0 -149 -32 -267t-99.5 -209t-181 -139.5t-268.5 -48.5q-154 0 -268 49t-182 139t-100 208.5t-32 267.5z" />
<glyph unicode="P" horiz-adv-x="1203" d="M222 0h92v729q113 -7 220 -7q171 0 281 21.5t174 71t88.5 119.5t24.5 178q0 99 -25.5 163t-90.5 108.5t-174.5 63.5t-278.5 19q-134 0 -311 -12v-1454zM314 799v588q156 7 237 7q183 0 281 -26.5t138 -85t40 -167.5q0 -67 -7.5 -113t-28.5 -83.5t-54 -60t-88.5 -37.5 t-127 -21t-173.5 -6q-82 0 -217 5z" />
<glyph unicode="Q" horiz-adv-x="1642" d="M148 714q0 -164 40.5 -296.5t121.5 -231t212 -152t304 -53.5q168 0 298 54.5t210.5 153.5t121.5 230.5t41 290.5q0 226 -74.5 396.5t-227.5 269t-368 98.5q-168 0 -298.5 -55.5t-213 -156.5t-125 -239.5t-42.5 -308.5zM241 714q0 156 34.5 281t104.5 217.5t183 142.5 t263 50t262 -50.5t180.5 -143.5t102 -217t33.5 -280q0 -149 -32 -267t-99.5 -209t-181 -139.5t-268.5 -48.5q-154 0 -268 49t-182 139t-100 208.5t-32 267.5zM975 14q38 -80 102 -168t124 -158.5t68 -82.5l50 49q-77 85 -163.5 196.5t-118.5 186.5z" />
<glyph unicode="R" horiz-adv-x="1399" d="M222 0h92v755h537l333 -755h87v13l-325 750q139 27 204.5 107t65.5 240q0 82 -13.5 135.5t-49.5 99t-104 70.5t-175.5 38.5t-264.5 13.5q-143 0 -387 -13v-1454zM314 823v565q192 12 327 12q125 0 211 -11t141 -32t85 -58.5t41 -81t11 -109.5q0 -84 -14 -134.5 t-53.5 -86.5t-109 -50t-182.5 -14h-457z" />
<glyph unicode="S" horiz-adv-x="1192" d="M151 144q159 -163 448 -163q80 0 147.5 12t129.5 41.5t104.5 75.5t68 117.5t25.5 163.5q0 48 -11.5 90t-22.5 71t-45 59.5t-49 45t-66 39.5t-65.5 31t-75.5 31q-3 2 -4.5 2.5l-4.5 1.5t-5 2l-232 96q-65 27 -99 43.5t-67.5 39t-47.5 47t-22.5 59t-8.5 84.5 q0 76 35.5 132.5t95.5 87t125.5 44.5t137.5 14q60 0 113.5 -11.5t95.5 -33.5t64.5 -36.5t49.5 -35.5h9l32 51q-50 48 -149.5 88.5t-216.5 40.5q-67 0 -128 -8.5t-126.5 -33t-113 -62.5t-78 -103t-30.5 -149q0 -58 15 -103t37 -75t66 -59t82.5 -46.5t107.5 -45.5l233 -96 q118 -47 176.5 -84.5t86 -88.5t27.5 -132q0 -179 -101 -258.5t-295 -79.5q-143 0 -231 36t-169 109h-7z" />
<glyph unicode="T" horiz-adv-x="1123" d="M53 1396h459v-1396h92v1396h466v59h-1017v-59z" />
<glyph unicode="U" horiz-adv-x="1453" d="M174 543q0 -124 30.5 -223.5t94.5 -176.5t172.5 -119.5t255.5 -42.5q116 0 209.5 29t157 79.5t105.5 121.5t61 152.5t19 175.5v916h-93v-921q0 -237 -114 -360.5t-345 -123.5q-241 0 -350.5 122t-109.5 363v920h-93v-912z" />
<glyph unicode="V" horiz-adv-x="1341" d="M74 1455l582 -1455h30l582 1455h-89q-55 -142 -158.5 -413.5t-188 -488t-163.5 -407.5q-80 191 -162.5 405t-187.5 493t-156 411h-89z" />
<glyph unicode="W" horiz-adv-x="2083" d="M67 1454l472 -1454h92l415 1330l416 -1330h95l459 1454h-87l-417 -1350l-417 1302h-26l2 6h-51l2 -6h-30l-408 -1305l-435 1353h-82z" />
<glyph unicode="X" horiz-adv-x="1306" d="M114 0h94l442 664l436 -664h83l-472 722l475 733h-91l-425 -670l-439 670h-87l477 -726z" />
<glyph unicode="Y" horiz-adv-x="1208" d="M66 1455l517 -842v-613h86v615l473 840h-81l-436 -769l-481 769h-78z" />
<glyph unicode="Z" horiz-adv-x="1202" d="M144 0h931l12 69h-867l861 1317l-12 69h-876v-71h800l-849 -1299v-85z" />
<glyph unicode="[" horiz-adv-x="632" d="M182 -225h425v67h-338v1647h338v69h-425v-1783z" />
<glyph unicode="\" horiz-adv-x="979" d="M140 1458l596 -1529h59l-598 1529h-57z" />
<glyph unicode="]" horiz-adv-x="646" d="M66 -157v-68h423v1783h-423v-69h336v-1646h-336z" />
<glyph unicode="^" horiz-adv-x="1249" d="M158 361h66l393 1025l404 -1025h70l-445 1095h-64z" />
<glyph unicode="_" horiz-adv-x="853" d="M0 -171v-73h853v73h-853z" />
<glyph unicode="`" horiz-adv-x="804" d="M108 1611l281 -351h54l-214 351h-121z" />
<glyph unicode="a" horiz-adv-x="1116" d="M118 276q0 -134 90 -212t237 -78q53 0 97.5 6.5t99 25t107.5 59.5t101 103l16 -179h70v732q0 199 -102 284t-292 85q-89 0 -195.5 -26t-165.5 -61l37 -71q68 41 156 63.5t173 22.5q144 0 218.5 -71t74.5 -207v-145l-200 3h-19q-266 0 -384.5 -83t-118.5 -251zM217 277 q0 69 15.5 114.5t59 82t127 53t213.5 16.5h17l191 -2v-279q-87 -118 -180.5 -160.5t-209.5 -42.5q-100 0 -166.5 55.5t-66.5 162.5z" />
<glyph unicode="b" horiz-adv-x="1239" d="M187 0h67l10 185q53 -90 148 -147.5t238 -57.5q223 0 346.5 151.5t123.5 401.5q0 269 -118.5 419t-340.5 150q-122 0 -221 -63.5t-156 -174.5v696l-97 -20v-1540zM282 294v292q-1 196 105.5 321t267.5 125q101 0 174.5 -39t114.5 -109.5t59.5 -156t18.5 -191.5 q0 -104 -21.5 -190t-65 -153.5t-116.5 -105t-169 -37.5q-268 0 -368 244z" />
<glyph unicode="c" horiz-adv-x="1086" d="M120 541q0 -259 126.5 -410t346.5 -151q144 0 250 70.5t135 188.5l-52 22h-19q-28 -97 -115 -154.5t-199 -57.5q-176 0 -275.5 132t-99.5 360t99.5 360t275.5 132q113 0 200 -58t114 -155h16l55 23q-30 118 -135.5 188.5t-249.5 70.5q-220 0 -346.5 -151t-126.5 -410z " />
<glyph unicode="d" horiz-adv-x="1237" d="M120 548q0 -262 125 -415t340 -153q126 0 225.5 52t152.5 144l9 -176h77v1560l-98 -20v-360l8 -276q-45 94 -139 146t-223 52q-220 0 -348.5 -149.5t-128.5 -404.5zM218 547q0 224 102.5 354.5t277.5 130.5q121 0 213.5 -63.5t140.5 -188.5v-502q-41 -105 -139.5 -166.5 t-227.5 -61.5q-170 0 -268.5 134t-98.5 363z" />
<glyph unicode="e" horiz-adv-x="1122" d="M124 537q0 -249 135.5 -403t350.5 -154q192 0 364 93l-33 65h-11q-153 -84 -308 -84q-83 0 -154 29.5t-126.5 88t-89 154.5t-36.5 220h776q5 33 5 66q0 231 -102.5 360.5t-288.5 129.5q-96 0 -182.5 -37.5t-153.5 -107t-106.5 -178.5t-39.5 -242zM221 608 q18 190 121.5 306t271.5 116q155 0 228.5 -105t78.5 -317h-700z" />
<glyph unicode="f" horiz-adv-x="730" d="M76 1031h219v-1031h98v1031h254v51h-254v91q0 73 8.5 123t22 79.5t38 45.5t49.5 21t63 5q21 0 48.5 -2.5t45.5 -4.5l17 -2l4 60q-70 14 -134 14q-132 0 -196 -80.5t-64 -260.5v-90l-214 -16z" />
<glyph unicode="g" horiz-adv-x="1257" d="M120 536q0 -72 15 -144t51.5 -144t90 -126.5t137 -88.5t186.5 -34q143 1 238 59.5t146 148.5v-138q0 -241 -95.5 -341.5t-328.5 -100.5q-70 0 -148 13t-118 29h-11l-1 -74q132 -42 292 -42q118 0 206 24.5t145 67.5t92 110t49 144.5t14 178.5v1004h-89l-9 -180 q-51 91 -143.5 145.5t-223.5 54.5q-112 0 -200.5 -35.5t-142.5 -91.5t-89.5 -132.5t-49 -151.5t-13.5 -155zM217 536q0 65 11.5 130.5t40 132.5t71 118t109 83t149.5 32q74 0 136.5 -20t101.5 -47t71.5 -67.5t47.5 -69t29 -63.5v-446q-16 -34 -28 -55t-46 -62t-71.5 -66 t-102 -45t-140.5 -20q-81 0 -147.5 31t-108.5 79.5t-70.5 111t-40.5 123.5t-12 120z" />
<glyph unicode="h" horiz-adv-x="1183" d="M188 0h97v655q0 52 10 101.5t36 100.5t66 89t105.5 62t149.5 24q139 0 199 -87t60 -265v-680h97v674q0 200 -86 314t-258 114q-132 0 -230.5 -52t-153.5 -155l5 228v437l-97 -20v-1540z" />
<glyph unicode="i" horiz-adv-x="487" d="M186 1406q0 -73 74 -73q73 0 73 73q0 72 -73 72q-74 0 -74 -72zM208 0h97v1082h-97v-1082z" />
<glyph unicode="j" horiz-adv-x="495" d="M25 -310h55q117 1 178 65.5t61 224.5v1102h-97v-1025q0 -48 -0.5 -72t-2.5 -58t-6 -49.5t-11.5 -36.5t-18.5 -29.5t-27.5 -17.5t-38.5 -12t-51 -3l-37 -1zM200 1405q0 -73 74 -73q73 0 73 73q0 72 -73 72q-74 0 -74 -72z" />
<glyph unicode="k" horiz-adv-x="1058" d="M189 0h97v396l138 124l483 -520h111v5l-537 566l529 506v5h-103l-627 -594l6 203v869l-97 -20v-1540z" />
<glyph unicode="l" horiz-adv-x="588" d="M191 244q0 -62 15.5 -109.5t39.5 -74t57.5 -43t64.5 -22t66 -5.5q85 0 131 6l1 65q-28 -5 -114 -5q-93 0 -128.5 46.5t-35.5 141.5v1316l-97 -20v-1296z" />
<glyph unicode="m" horiz-adv-x="1781" d="M187 0h98v671q1 54 11.5 103t35.5 97t63 83t97 56.5t133 21.5q67 0 112 -21.5t68.5 -65t33 -98t9.5 -131.5v-716h98v671q0 54 11 103.5t36.5 97t63.5 82.5t97 56.5t132 21.5q54 0 94 -15t64.5 -40.5t39 -67t20 -86.5t5.5 -106v-717h97v662q0 232 -73 336t-244 104 q-132 0 -227 -60t-138 -181q-59 241 -296 241q-236 0 -348 -201l-12 181h-81v-1082z" />
<glyph unicode="n" horiz-adv-x="1164" d="M187 0h98v670q0 55 9 103.5t33.5 97t63 83.5t103 56.5t147.5 21.5q139 0 195 -82q56 -81 56 -234v-5v-711h98v661q0 229 -83 335t-263 106q-267 0 -363 -204l-14 184h-80v-1082z" />
<glyph unicode="o" horiz-adv-x="1199" d="M120 541q0 -246 132.5 -403.5t347.5 -157.5t347 157.5t132 403.5q0 255 -131 408t-348 153q-218 0 -349 -153t-131 -408zM218 539q0 225 103.5 359.5t278.5 134.5q174 0 278 -135t104 -360q0 -214 -105 -351.5t-277 -137.5t-277 137.5t-105 352.5z" />
<glyph unicode="p" horiz-adv-x="1233" d="M187 -489l97 7v382l-11 296q51 -105 148 -160.5t226 -55.5q212 0 339 148t127 409q0 275 -122 420t-336 145q-146 0 -242 -75.5t-141 -200.5l-11 256h-74v-1571zM279 334v223q0 80 12.5 149t41 129.5t71 103.5t106 68t143.5 25q178 0 270 -125.5t92 -369.5 q0 -231 -96.5 -359t-272.5 -128q-290 0 -367 284z" />
<glyph unicode="q" horiz-adv-x="1232" d="M119 542q0 -249 130.5 -405.5t344.5 -156.5q130 0 219.5 55.5t140.5 136.5l-6 -304v-358l97 4v1568h-81l-9 -201q-40 96 -127 158.5t-224 62.5q-227 0 -356 -153.5t-129 -406.5zM219 542q0 227 101.5 358.5t276.5 131.5q121 0 211.5 -63.5t139.5 -188.5v-502 q-41 -106 -134.5 -167t-219.5 -61q-177 0 -276 131.5t-99 360.5z" />
<glyph unicode="r" horiz-adv-x="773" d="M188 0h97v642q0 99 44.5 187t123 142.5t171.5 54.5q35 0 62 -8l9 73q-33 5 -84 5q-69 0 -130 -24t-119.5 -87.5t-94.5 -163.5l-10 261h-69v-1082z" />
<glyph unicode="s" horiz-adv-x="932" d="M127 835q0 -106 59 -172t190 -107l154 -49q117 -37 162.5 -89t45.5 -150q0 -110 -61.5 -162.5t-197.5 -52.5q-161 0 -283 70h-14l-31 -60q148 -83 328 -83q155 0 248 73t94 214q0 123 -60 191.5t-212 115.5l-156 51q-93 30 -136 80.5t-43 129.5q0 97 80.5 146.5 t199.5 49.5q139 0 232 -57h11l27 61q-46 28 -121 47.5t-153 19.5q-164 0 -263.5 -70t-99.5 -197z" />
<glyph unicode="t" horiz-adv-x="757" d="M87 1072l3 -44h146v-773q0 -138 71 -201.5t190 -63.5q40 0 78 3t56 6l18 3v58q-71 -8 -141 -8q-88 0 -131.5 45.5t-43.5 166.5v765h328v53h-328v279l-80 -9l-16 -269z" />
<glyph unicode="u" horiz-adv-x="1169" d="M175 422q0 -442 373 -442q129 0 208 38.5t133 129.5l12 -148h83v1082h-97v-847q-101 -185 -338 -185q-142 0 -209 84.5t-67 236.5v711h-98v-660z" />
<glyph unicode="v" horiz-adv-x="1038" d="M62 1082l403 -1082h108l403 1082h-94q-283 -796 -365 -1005q-44 116 -95.5 257t-84.5 234t-95 269.5t-86 244.5h-94z" />
<glyph unicode="w" horiz-adv-x="1508" d="M63 1082l279 -1082h76l337 994l332 -994h73l285 1082h-83l-241 -990l-317 962h-100l-322 -962l-232 990h-87z" />
<glyph unicode="x" horiz-adv-x="1013" d="M46 0h107l359 484l350 -484h104l-390 541l395 541h-107l-335 -475l-343 475h-107l384 -530z" />
<glyph unicode="y" horiz-adv-x="1070" d="M74 1082l455 -1032l-166 -419l76 -32l574 1483h-93l-348 -920l-400 920h-98z" />
<glyph unicode="z" horiz-adv-x="896" d="M121 0h668l-1 61h-588l584 957v64h-642v-63h560l-581 -953v-66z" />
<glyph unicode="{" horiz-adv-x="829" d="M127 586q44 -1 77 -9.5t56 -21t38.5 -36.5t23.5 -45.5t12.5 -59t5.5 -67t1 -78.5v-241q0 -84 13 -140.5t45 -96.5t87.5 -58t139.5 -18v56q-115 2 -158 56.5t-43 202.5v286q0 57 -3.5 96.5t-14.5 76.5t-30.5 59.5t-51.5 38.5t-78 22q46 6 78 22t51.5 38.5t30.5 59.5 t14.5 76.5t3.5 96.5v286q0 147 46 202t162 57v56q-164 0 -228 -73t-64 -240v-241q0 -49 -1 -78.5t-5.5 -67t-12.5 -59t-23.5 -45.5t-38.5 -36.5t-56 -21t-77 -9.5v-46z" />
<glyph unicode="|" horiz-adv-x="187" d="M48 -432h68v1995h-68v-1995z" />
<glyph unicode="}" horiz-adv-x="829" d="M122 1447q116 -2 162 -57t46 -202v-286q0 -145 35 -212t144 -81q-109 -14 -144 -81t-35 -212v-286q0 -148 -43 -202.5t-158 -56.5v-56q164 0 224.5 72t60.5 241v241q0 49 1 78.5t5.5 67t13 59.5t24 45.5t38 36t55.5 21t77 9.5v46q-44 1 -77 9.5t-55.5 21t-38 36t-24 45.5 t-13 59.5t-5.5 67t-1 78.5v241q0 167 -64 240t-228 73v-56z" />
<glyph unicode="~" horiz-adv-x="1216" d="M93 575l11 -59q39 76 104.5 125.5t133.5 49.5q45 0 102 -20t156 -64q20 -9 31 -14q136 -61 205 -61q81 0 126 47t82 157l-24 49q-9 -63 -67.5 -120t-123.5 -57q-23 0 -55.5 9.5t-58 20t-73 32t-72.5 31.5q-71 32 -96 42t-60 18.5t-73 8.5q-84 0 -149.5 -53.5 t-98.5 -141.5z" />
<glyph unicode="&#xa1;" horiz-adv-x="393" d="M95 1077q0 -87 91 -87q50 0 69.5 25.5t19.5 61.5t-19.5 62t-69.5 26q-91 0 -91 -88zM129 -276v-56h130v56l-51 1020h-32z" />
<glyph unicode="&#xa2;" horiz-adv-x="1019" d="M120 541q0 -259 126.5 -410t346.5 -151q144 0 250 70.5t135 188.5l-52 22h-19q-28 -97 -115 -154.5t-199 -57.5q-176 0 -275.5 132t-99.5 360t99.5 360t275.5 132q113 0 200 -58t114 -155h16l55 23q-30 118 -135.5 188.5t-249.5 70.5q-220 0 -346.5 -151t-126.5 -410z M545 16v-304h81l2 304h-83zM545 1063h82v309h-81z" />
<glyph unicode="&#xa3;" horiz-adv-x="1231" d="M142 51l12 -51h896l6 65h-643v629h431v59h-431v184q0 110 15 191.5t49.5 146.5t96.5 98.5t151 33.5q157 0 288 -108h7l37 56q-140 120 -325 120q-92 0 -161.5 -23t-111.5 -71.5t-68.5 -99t-37.5 -130t-14.5 -138t-3.5 -148.5v-112h-188v-59h188v-631z" />
<glyph unicode="&#xa4;" horiz-adv-x="1446" d="M206 1145l188 -179q-90 -108 -90 -261q0 -148 90 -258l-187 -177l38 -41l187 176q113 -101 276 -101t277 99l186 -175l34 40l-182 179q88 106 88 258q0 145 -89 261l184 175l-35 41l-186 -175q-115 103 -277 103q-164 0 -278 -102l-185 174zM365 705q0 150 92 253.5 t251 103.5q107 0 186.5 -50.5t118 -130.5t38.5 -176q0 -149 -91.5 -252t-251.5 -103q-106 0 -185.5 50t-118.5 129.5t-39 175.5z" />
<glyph unicode="&#xa5;" horiz-adv-x="1231" d="M66 1455l517 -842v-613h86v615l473 840h-81l-436 -769l-481 769h-78zM253 326h738v62h-738v-62zM253 625h738v62h-738v-62z" />
<glyph unicode="&#xa6;" horiz-adv-x="105" d="M10 -129h67v670h-67v-670zM10 787h67v667h-67v-667z" />
<glyph unicode="&#xa7;" horiz-adv-x="1042" d="M180 -20q144 -66 312 -66q105 0 189 29t139 96t55 164q0 82 -45.5 149t-126.5 105q89 39 134 88.5t45 130.5q0 38 -13 68t-34 52.5t-64 46.5t-85 42.5t-115 47.5q-21 8 -59 23q-45 17 -65 25t-52 22t-45.5 23t-33.5 24t-27.5 28.5t-17 33t-12 42t-2.5 51.5 q0 105 86.5 160.5t217.5 55.5q143 0 261 -58l21 54q-138 58 -288 58q-103 0 -185 -28t-134.5 -90.5t-52.5 -152.5q0 -85 40 -143.5t127 -102.5q-78 -41 -121 -94.5t-43 -133.5q0 -32 6 -57.5t14 -44t29 -36.5t35.5 -28.5t51 -26t58.5 -24t74 -26.5q29 -10 45 -16 q95 -34 155 -64.5t92.5 -63t43.5 -64.5t11 -76q0 -61 -24.5 -107t-68 -72.5t-96.5 -39.5t-115 -13q-158 0 -296 68zM256 734q0 140 156 199l32 -13q31 -12 64 -25t37 -13q51 -20 69.5 -27.5t60 -26t59 -31.5t40.5 -32.5t32 -40.5t9 -46q0 -33 -8.5 -60.5t-19.5 -45 t-31.5 -33.5t-33.5 -23.5t-37 -19.5t-33 -17l-20 7q-19 7 -41 15.5t-42.5 15.5t-24.5 7q-164 61 -201 83q-54 32 -63 83q-4 19 -4 44z" />
<glyph unicode="&#xa8;" horiz-adv-x="794" d="M138 1414q0 -64 64 -64q63 0 63 64q0 63 -63 63q-64 0 -64 -63zM502 1414q0 -64 64 -64q63 0 63 64q0 25 -14 44t-49 19q-64 0 -64 -63z" />
<glyph unicode="&#xa9;" horiz-adv-x="1953" d="M163 762q0 -165 47 -302t125.5 -229.5t183 -156t217.5 -92.5t231 -29t231.5 29t219 92.5t184.5 156t126.5 229.5t47.5 302t-47.5 302.5t-126.5 230t-184.5 157t-218.5 93.5t-231 29q-119 0 -232 -29t-217.5 -93.5t-183 -157.5t-125.5 -230t-47 -302zM248 762 q0 153 42.5 280.5t113 213t164.5 145t194.5 86t205.5 26.5q104 0 204.5 -27t195 -86t166 -144.5t114.5 -213t43 -280.5t-43 -279.5t-114.5 -212t-166 -144.5t-195 -85.5t-204.5 -26.5q-105 0 -205.5 26.5t-194.5 85.5t-164.5 144t-113 212t-42.5 280zM486 762 q0 -115 43.5 -216t115.5 -170.5t167 -110t197 -40.5q147 0 288 90l-24 67q-131 -79 -268 -79q-174 0 -294.5 127.5t-120.5 341.5q0 125 57 228t150 160t199 57q62 0 133 -24.5t127 -73.5l37 74q-146 102 -299 102q-99 0 -191.5 -40.5t-162.5 -110t-112 -169.5t-42 -213z" />
<glyph unicode="&#xaa;" horiz-adv-x="1116" d="M101 237q0 -115 77.5 -182t204.5 -67q45 0 83.5 5.5t85.5 21.5t92.5 51t86.5 89l14 -154h60v629q0 172 -87.5 245t-251.5 73q-76 0 -168 -22.5t-142 -52.5l31 -61q59 35 134.5 54.5t148.5 19.5q124 0 188 -61t64 -178v-125l-172 3h-16q-229 0 -331 -71.5t-102 -216.5z M187 238q0 60 13 99t50.5 70.5t109.5 45.5t184 14h14l164 -2v-240q-74 -101 -154.5 -137.5t-180.5 -36.5q-86 0 -143 47.5t-57 139.5z" />
<glyph unicode="&#xab;" horiz-adv-x="1010" d="M140 537l270 -374l60 12l-258 365l266 359l-64 13zM455 537l270 -374l60 12l-259 365l266 359l-64 13z" />
<glyph unicode="&#xac;" horiz-adv-x="1222" d="M111 706h881v-443h69v516h-950v-73z" />
<glyph unicode="&#xad;" horiz-adv-x="1152" d="M145 101h848v77h-848v-77z" />
<glyph unicode="&#xae;" horiz-adv-x="1965" d="M176 763q0 -165 47 -301.5t125.5 -229t183 -156.5t217.5 -93t231 -29t231 29t218.5 93t184.5 156t126.5 229t47.5 302t-47.5 302t-126.5 230t-184.5 157t-218.5 93t-231 29t-231 -29t-217.5 -93t-183 -157t-125.5 -230t-47 -302zM262 763q0 154 42.5 281t113 212.5 t164 144.5t194 85.5t204.5 26.5t205 -26.5t195.5 -85.5t165.5 -144.5t114 -213t43 -280.5t-43 -279.5t-114 -212t-165.5 -144.5t-195.5 -85.5t-205 -26.5t-204.5 26.5t-194 85.5t-164 144t-113 212t-42.5 280zM674 319h86v481h286l224 -481h94q-15 32 -39.5 84t-76.5 162 t-84.5 181t-29.5 66h4q94 0 146 66t52 174q0 64 -12 105t-46 73.5t-98 47t-164 14.5h-342v-973zM762 875v343h254q140 0 190.5 -33.5t50.5 -137.5q0 -44 -7 -73t-26 -53t-56 -35t-95 -11h-311z" />
<glyph unicode="&#xaf;" horiz-adv-x="1232" d="M355 1381h473v54h-473v-54z" />
<glyph unicode="&#xb0;" horiz-adv-x="854" d="M130 1211q0 -66 27.5 -121.5t70.5 -90.5t94.5 -54t101.5 -19q114 0 207 80.5t93 204.5q0 85 -46 152.5t-114 100.5t-140 33q-69 0 -135 -33t-112.5 -100.5t-46.5 -152.5zM203 1211q0 96 64 160t158 64q98 0 162.5 -63.5t64.5 -160.5q0 -94 -65 -158t-161 -64t-159.5 63 t-63.5 159z" />
<glyph unicode="&#xb1;" horiz-adv-x="1169" d="M112 0h944v66h-944v-66zM148 589h385v-414h73v414h375v51h-375v404h-73v-404h-385v-51z" />
<glyph unicode="&#xb2;" horiz-adv-x="734" d="M68 1385l47 -45q52 60 112 89.5t146 29.5q85 0 132.5 -49.5t47.5 -130.5q0 -59 -31 -116t-113 -147q-142 -145 -262 -260v-61h478l1 59h-380q121 126 215 222q93 95 129.5 157.5t36.5 146.5q0 115 -73 178t-187 63q-188 0 -299 -136z" />
<glyph unicode="&#xb3;" horiz-adv-x="870" d="M187 772q37 -47 105.5 -73t149.5 -26q104 0 175.5 58t71.5 165q0 84 -47 136.5t-120 72.5q72 19 117 69.5t45 130.5q0 106 -70 159.5t-175 53.5q-81 0 -148 -26t-104 -73l41 -46q74 84 212 84q79 0 127.5 -38.5t48.5 -112.5q0 -77 -53 -125.5t-141 -48.5h-107v-57h107 q88 0 143 -50t55 -130q0 -75 -49.5 -118t-127.5 -43q-142 0 -216 84z" />
<glyph unicode="&#xb4;" horiz-adv-x="679" d="M204 1260h54l265 351h-105z" />
<glyph unicode="&#xb5;" horiz-adv-x="1168" d="M175 -357h98v442q93 -105 275 -105q129 0 208 38.5t133 129.5l12 -148h83v1082h-97v-847q-101 -185 -338 -185q-142 0 -209 84.5t-67 236.5v711h-98v-1439z" />
<glyph unicode="&#xb6;" horiz-adv-x="1119" d="M151 1155q0 -324 419 -324v-1025h72v1587h158v-1587h72v1650h-356q-72 0 -130 -12.5t-95.5 -31.5t-65 -47t-41.5 -53.5t-22 -58t-9.5 -53t-1.5 -45.5z" />
<glyph unicode="&#xb7;" horiz-adv-x="413" d="M129 641q0 -79 78 -79q76 0 76 79q0 78 -76 78q-78 0 -78 -78z" />
<glyph unicode="&#xb8;" horiz-adv-x="624" d="M127 -356q67 -31 148 -31q109 0 178.5 52t69.5 136q0 76 -49.5 116t-122.5 40q-47 0 -93 -17l1 -34q37 8 73 8q72 0 100 -34t28 -79q0 -69 -52 -104.5t-126 -35.5q-75 0 -134 34z" />
<glyph unicode="&#xb9;" horiz-adv-x="907" d="M284 695h477v59h-190v757h-73q-31 -31 -94.5 -58t-116.5 -39v-62q143 34 200 74v-672h-203v-59z" />
<glyph unicode="&#xba;" horiz-adv-x="853" d="M94 1172q0 -163 89.5 -266.5t242.5 -103.5q146 0 239.5 105.5t93.5 264.5q0 169 -87.5 272t-245.5 103q-153 0 -242.5 -105t-89.5 -270zM196 1173q0 129 60.5 215.5t169.5 86.5q113 0 176 -87.5t63 -217.5q0 -127 -61.5 -212t-177.5 -85q-110 0 -170 86.5t-60 213.5z" />
<glyph unicode="&#xbb;" horiz-adv-x="966" d="M168 176l65 -13l273 374l-270 375l-60 -12l259 -366zM484 176l64 -13l273 374l-270 375l-60 -12l259 -366z" />
<glyph unicode="&#xbc;" horiz-adv-x="1637" d="M108 1352q124 44 172 78v-691h-165v-57h390v57h-146v772h-66q-47 -48 -185 -98v-61zM391 0h81l873 1525h-81zM975 218h397v-219h76v219h127l-7 57h-118v553h-88l-387 -563v-47zM1062 275l311 463v-463h-311z" />
<glyph unicode="&#xbd;" horiz-adv-x="1688" d="M108 1352q124 44 172 78v-691h-165v-57h390v57h-146v772h-66q-47 -48 -185 -98v-61zM376 0h80l874 1525h-81zM1013 660l61 -37q87 144 233 144q81 0 129 -47t48 -123q0 -63 -33 -117.5t-118 -139.5q-27 -28 -124 -120t-161 -158v-62h509l-3 69h-401q48 50 128 125 t104 100q98 95 140.5 160.5t42.5 142.5q0 111 -73 176.5t-188 65.5q-98 0 -174.5 -47t-119.5 -132z" />
<glyph unicode="&#xbe;" horiz-adv-x="1714" d="M123 1429l39 -55q95 71 201 71q71 0 116 -38t45 -112q0 -76 -49.5 -118t-145.5 -42h-78v-67h78q100 0 151.5 -47t51.5 -132q0 -81 -51.5 -120.5t-130.5 -39.5q-108 0 -194 57l-29 -57q94 -66 225 -66q72 0 129.5 22.5t96 75t38.5 128.5q0 81 -47.5 138t-125.5 75 q71 13 115 67t44 128q0 106 -67 160.5t-169 54.5q-135 0 -243 -83zM418 0h80l874 1525h-81zM1001 218h397v-219h76v219h127l-7 57h-118v553h-88l-387 -563v-47zM1088 275l311 463v-463h-311z" />
<glyph unicode="&#xbf;" horiz-adv-x="902" d="M145 -57q0 -132 90 -213.5t232 -81.5q164 0 289 87l-10 89q-46 -30 -120 -60t-145 -30q-235 0 -235 217q0 74 30 164t72.5 173.5t85 165t72.5 164t30 145.5v7h-48q-27 -103 -73.5 -201.5t-91 -170.5t-86 -143.5t-67 -150t-25.5 -161.5zM414 1091q0 -35 21 -60.5t72 -25.5 q88 0 88 86q0 88 -88 88q-93 0 -93 -88z" />
<glyph unicode="&#xc0;" horiz-adv-x="1278" d="M50 0h91l197 514h614l193 -514h82l-557 1455h-63zM316 1984l281 -351h54l-214 351h-121zM364 582l274 757l289 -757h-563z" />
<glyph unicode="&#xc1;" horiz-adv-x="1278" d="M50 0h91l197 514h614l193 -514h82l-557 1455h-63zM364 582l274 757l289 -757h-563zM610 1633h54l265 351h-105z" />
<glyph unicode="&#xc2;" horiz-adv-x="1278" d="M50 0h91l197 514h614l193 -514h82l-557 1455h-63zM364 582l274 757l289 -757h-563zM395 1626h62l172 247l172 -247h60l-182 304h-100z" />
<glyph unicode="&#xc3;" horiz-adv-x="1278" d="M50 0h91l197 514h614l193 -514h82l-557 1455h-63zM331 1701h51q4 100 64 100q36 0 148 -50t165 -50q20 0 35 4t34.5 18t30.5 50t11 91h-57q-4 -49 -19 -70t-42 -21t-78 23t-109.5 46t-104.5 23q-25 0 -43.5 -4.5t-40.5 -19.5t-33.5 -50.5t-11.5 -89.5zM364 582l274 757 l289 -757h-563z" />
<glyph unicode="&#xc4;" horiz-adv-x="1278" d="M50 0h91l197 514h614l193 -514h82l-557 1455h-63zM364 582l274 757l289 -757h-563zM380 1787q0 -64 64 -64q63 0 63 64q0 63 -63 63q-64 0 -64 -63zM744 1787q0 -64 64 -64q63 0 63 64q0 25 -14 44t-49 19q-64 0 -64 -63z" />
<glyph unicode="&#xc5;" horiz-adv-x="1278" d="M50 0h91l197 514h614l193 -514h82l-557 1455h-63zM364 582l274 757l289 -757h-563zM476 1733q0 -68 48 -112.5t115 -44.5q68 0 116 44.5t48 112.5q0 67 -48.5 111t-115.5 44t-115 -44t-48 -111zM539 1731q0 42 29 70.5t71 28.5t72 -28.5t30 -70.5q0 -41 -30.5 -70.5 t-71.5 -29.5t-70.5 29.5t-29.5 70.5z" />
<glyph unicode="&#xc6;" horiz-adv-x="1939" d="M55 0h99l343 514h563v-514h821l8 69h-745v642h659v69h-659v604h743l3 71h-856zM544 582l516 784v-784h-516z" />
<glyph unicode="&#xc7;" horiz-adv-x="1367" d="M148 728q0 -345 175 -546.5t474 -201.5q157 0 285.5 84.5t186.5 229.5l-60 24h-13q-52 -124 -160 -196.5t-239 -72.5q-257 0 -406.5 183t-149.5 496t149.5 496t406.5 183q131 0 239 -72.5t160 -196.5h14l59 25q-58 144 -186.5 228.5t-285.5 84.5q-299 0 -474 -201.5 t-175 -546.5zM647 -356q67 -31 148 -31q109 0 178.5 52t69.5 136q0 76 -49.5 116t-122.5 40q-47 0 -93 -17l1 -34q37 8 73 8q72 0 100 -34t28 -79q0 -69 -52 -104.5t-126 -35.5q-75 0 -134 34z" />
<glyph unicode="&#xc8;" horiz-adv-x="1135" d="M222 0h847l8 69h-763v641h677v70h-677v604h761l2 71h-855v-1455zM339 1984l281 -351h54l-214 351h-121z" />
<glyph unicode="&#xc9;" horiz-adv-x="1135" d="M222 0h847l8 69h-763v641h677v70h-677v604h761l2 71h-855v-1455zM633 1633h54l265 351h-105z" />
<glyph unicode="&#xca;" horiz-adv-x="1135" d="M222 0h847l8 69h-763v641h677v70h-677v604h761l2 71h-855v-1455zM418 1626h62l172 247l172 -247h60l-182 304h-100z" />
<glyph unicode="&#xcb;" horiz-adv-x="1135" d="M222 0h847l8 69h-763v641h677v70h-677v604h761l2 71h-855v-1455zM403 1787q0 -64 64 -64q63 0 63 64q0 63 -63 63q-64 0 -64 -63zM767 1787q0 -64 64 -64q63 0 63 64q0 25 -14 44t-49 19q-64 0 -64 -63z" />
<glyph unicode="&#xcc;" horiz-adv-x="751" d="M52 1984l281 -351h54l-214 351h-121zM119 0h514v58h-210v1339h210v58h-514v-58h211v-1339h-211v-58z" />
<glyph unicode="&#xcd;" horiz-adv-x="751" d="M119 0h514v58h-210v1339h210v58h-514v-58h211v-1339h-211v-58zM346 1633h54l265 351h-105z" />
<glyph unicode="&#xce;" horiz-adv-x="751" d="M119 0h514v58h-210v1339h210v58h-514v-58h211v-1339h-211v-58zM131 1626h62l172 247l172 -247h60l-182 304h-100z" />
<glyph unicode="&#xcf;" horiz-adv-x="751" d="M116 1787q0 -64 64 -64q63 0 63 64q0 63 -63 63q-64 0 -64 -63zM119 0h514v58h-210v1339h210v58h-514v-58h211v-1339h-211v-58zM480 1787q0 -64 64 -64q63 0 63 64q0 25 -14 44t-49 19q-64 0 -64 -63z" />
<glyph unicode="&#xd0;" horiz-adv-x="1525" d="M39 715h498v72h-498v-72zM222 0q162 -10 268 -10q207 0 357.5 28.5t253 84.5t164 147t87.5 206.5t26 272.5q0 159 -25 274.5t-83.5 206.5t-156.5 146t-241.5 83.5t-341.5 28.5q-145 0 -308 -13v-1455zM314 66v1322q106 6 199 6q181 0 310.5 -24t219.5 -72.5t143 -130 t76 -188t23 -255.5q0 -140 -22.5 -243t-75 -185.5t-140 -133.5t-217 -77.5t-306.5 -26.5q-90 0 -210 8z" />
<glyph unicode="&#xd1;" horiz-adv-x="1541" d="M222 0h75v992l-9 352l952 -1344h80v1455h-74v-983l6 -362l-953 1345h-77v-1455zM465 1701h51q4 100 64 100q36 0 148 -50t165 -50q20 0 35 4t34.5 18t30.5 50t11 91h-57q-4 -49 -19 -70t-42 -21t-78 23t-109.5 46t-104.5 23q-25 0 -43.5 -4.5t-40.5 -19.5t-33.5 -50.5 t-11.5 -89.5z" />
<glyph unicode="&#xd2;" horiz-adv-x="1644" d="M148 714q0 -164 40.5 -296.5t121.5 -231t212 -152t304 -53.5q168 0 298 54.5t210.5 153.5t121.5 230.5t41 290.5q0 226 -74.5 396.5t-227.5 269t-368 98.5q-168 0 -298.5 -55.5t-213 -156.5t-125 -239.5t-42.5 -308.5zM241 714q0 156 34.5 281t104.5 217.5t183 142.5 t263 50t262 -50.5t180.5 -143.5t102 -217t33.5 -280q0 -149 -32 -267t-99.5 -209t-181 -139.5t-268.5 -48.5q-154 0 -268 49t-182 139t-100 208.5t-32 267.5zM499 1984l281 -351h54l-214 351h-121z" />
<glyph unicode="&#xd3;" horiz-adv-x="1644" d="M148 714q0 -164 40.5 -296.5t121.5 -231t212 -152t304 -53.5q168 0 298 54.5t210.5 153.5t121.5 230.5t41 290.5q0 226 -74.5 396.5t-227.5 269t-368 98.5q-168 0 -298.5 -55.5t-213 -156.5t-125 -239.5t-42.5 -308.5zM241 714q0 156 34.5 281t104.5 217.5t183 142.5 t263 50t262 -50.5t180.5 -143.5t102 -217t33.5 -280q0 -149 -32 -267t-99.5 -209t-181 -139.5t-268.5 -48.5q-154 0 -268 49t-182 139t-100 208.5t-32 267.5zM793 1633h54l265 351h-105z" />
<glyph unicode="&#xd4;" horiz-adv-x="1644" d="M148 714q0 -164 40.5 -296.5t121.5 -231t212 -152t304 -53.5q168 0 298 54.5t210.5 153.5t121.5 230.5t41 290.5q0 226 -74.5 396.5t-227.5 269t-368 98.5q-168 0 -298.5 -55.5t-213 -156.5t-125 -239.5t-42.5 -308.5zM241 714q0 156 34.5 281t104.5 217.5t183 142.5 t263 50t262 -50.5t180.5 -143.5t102 -217t33.5 -280q0 -149 -32 -267t-99.5 -209t-181 -139.5t-268.5 -48.5q-154 0 -268 49t-182 139t-100 208.5t-32 267.5zM578 1626h62l172 247l172 -247h60l-182 304h-100z" />
<glyph unicode="&#xd5;" horiz-adv-x="1644" d="M148 714q0 -164 40.5 -296.5t121.5 -231t212 -152t304 -53.5q168 0 298 54.5t210.5 153.5t121.5 230.5t41 290.5q0 226 -74.5 396.5t-227.5 269t-368 98.5q-168 0 -298.5 -55.5t-213 -156.5t-125 -239.5t-42.5 -308.5zM241 714q0 156 34.5 281t104.5 217.5t183 142.5 t263 50t262 -50.5t180.5 -143.5t102 -217t33.5 -280q0 -149 -32 -267t-99.5 -209t-181 -139.5t-268.5 -48.5q-154 0 -268 49t-182 139t-100 208.5t-32 267.5zM514 1701h51q4 100 64 100q36 0 148 -50t165 -50q20 0 35 4t34.5 18t30.5 50t11 91h-57q-4 -49 -19 -70t-42 -21 t-78 23t-109.5 46t-104.5 23q-25 0 -43.5 -4.5t-40.5 -19.5t-33.5 -50.5t-11.5 -89.5z" />
<glyph unicode="&#xd6;" horiz-adv-x="1644" d="M148 714q0 -164 40.5 -296.5t121.5 -231t212 -152t304 -53.5q168 0 298 54.5t210.5 153.5t121.5 230.5t41 290.5q0 226 -74.5 396.5t-227.5 269t-368 98.5q-168 0 -298.5 -55.5t-213 -156.5t-125 -239.5t-42.5 -308.5zM241 714q0 156 34.5 281t104.5 217.5t183 142.5 t263 50t262 -50.5t180.5 -143.5t102 -217t33.5 -280q0 -149 -32 -267t-99.5 -209t-181 -139.5t-268.5 -48.5q-154 0 -268 49t-182 139t-100 208.5t-32 267.5zM563 1787q0 -64 64 -64q63 0 63 64q0 63 -63 63q-64 0 -64 -63zM927 1787q0 -64 64 -64q63 0 63 64q0 25 -14 44 t-49 19q-64 0 -64 -63z" />
<glyph unicode="&#xd7;" horiz-adv-x="664" d="M22 288l46 -39l269 287l264 -286l41 41q-252 279 -263 289l258 272l-51 45l-249 -270l-252 277l-48 -46l258 -277z" />
<glyph unicode="&#xd8;" horiz-adv-x="1678" d="M148 714q0 -248 92 -423.5t277 -253.5l-93 -234l55 -21l94 235q116 -36 253 -36q168 0 298 54.5t210.5 153.5t121.5 230.5t41 290.5q0 251 -94 435t-273 268l96 236l-59 20l-94 -234q-114 39 -246 39q-168 0 -298.5 -55.5t-213 -156.5t-125 -239.5t-42.5 -308.5zM241 714 q0 156 34.5 281t104.5 217.5t183 142.5t263 50q122 0 221 -34l-502 -1268q-304 139 -304 611zM600 82l503 1267q153 -75 227 -239t74 -396q0 -149 -32 -267t-99.5 -209t-181 -139.5t-268.5 -48.5q-124 0 -223 32z" />
<glyph unicode="&#xd9;" horiz-adv-x="1453" d="M174 543q0 -124 30.5 -223.5t94.5 -176.5t172.5 -119.5t255.5 -42.5q116 0 209.5 29t157 79.5t105.5 121.5t61 152.5t19 175.5v916h-93v-921q0 -237 -114 -360.5t-345 -123.5q-241 0 -350.5 122t-109.5 363v920h-93v-912zM404 1984l281 -351h54l-214 351h-121z" />
<glyph unicode="&#xda;" horiz-adv-x="1453" d="M174 543q0 -124 30.5 -223.5t94.5 -176.5t172.5 -119.5t255.5 -42.5q116 0 209.5 29t157 79.5t105.5 121.5t61 152.5t19 175.5v916h-93v-921q0 -237 -114 -360.5t-345 -123.5q-241 0 -350.5 122t-109.5 363v920h-93v-912zM698 1633h54l265 351h-105z" />
<glyph unicode="&#xdb;" horiz-adv-x="1453" d="M174 543q0 -124 30.5 -223.5t94.5 -176.5t172.5 -119.5t255.5 -42.5q116 0 209.5 29t157 79.5t105.5 121.5t61 152.5t19 175.5v916h-93v-921q0 -237 -114 -360.5t-345 -123.5q-241 0 -350.5 122t-109.5 363v920h-93v-912zM483 1626h62l172 247l172 -247h60l-182 304h-100 z" />
<glyph unicode="&#xdc;" horiz-adv-x="1453" d="M174 543q0 -124 30.5 -223.5t94.5 -176.5t172.5 -119.5t255.5 -42.5q116 0 209.5 29t157 79.5t105.5 121.5t61 152.5t19 175.5v916h-93v-921q0 -237 -114 -360.5t-345 -123.5q-241 0 -350.5 122t-109.5 363v920h-93v-912zM468 1787q0 -64 64 -64q63 0 63 64q0 63 -63 63 q-64 0 -64 -63zM832 1787q0 -64 64 -64q63 0 63 64q0 25 -14 44t-49 19q-64 0 -64 -63z" />
<glyph unicode="&#xdd;" horiz-adv-x="1208" d="M66 1455l517 -842v-613h86v615l473 840h-81l-436 -769l-481 769h-78zM575 1633h54l265 351h-105z" />
<glyph unicode="&#xde;" horiz-adv-x="1196" d="M221 0h92v430h351q218 0 321 93.5t103 285.5q0 171 -113.5 256.5t-304.5 85.5h-357v305h-92v-1456zM313 498v582h354q74 0 131 -13t102.5 -43t70 -83.5t24.5 -128.5q0 -177 -75.5 -245.5t-242.5 -68.5h-364z" />
<glyph unicode="&#xdf;" horiz-adv-x="1191" d="M201 0h100v1038q0 214 69.5 299t228.5 85q113 0 168.5 -59.5t55.5 -158.5q0 -54 -15.5 -103t-39 -83t-51 -70t-51 -65t-39 -66t-15.5 -75q0 -55 40.5 -103.5t98 -86.5t114.5 -78t97.5 -94.5t40.5 -118.5q0 -33 -9.5 -65.5t-31 -63.5t-63 -50.5t-97.5 -19.5 q-158 0 -307 80l-34 -79q45 -30 140.5 -55.5t196.5 -25.5q139 0 217.5 80t78.5 211q0 58 -22 108.5t-57 87t-77.5 69t-85.5 58.5t-78 50t-57 49.5t-22 51.5q0 29 24 69t58.5 82.5t68.5 89t58 102.5t24 108q0 81 -34 147t-110 108.5t-183 42.5q-216 0 -308 -119t-92 -350 v-1027z" />
<glyph unicode="&#xe0;" horiz-adv-x="1116" d="M118 276q0 -134 90 -212t237 -78q53 0 97.5 6.5t99 25t107.5 59.5t101 103l16 -179h70v732q0 199 -102 284t-292 85q-89 0 -195.5 -26t-165.5 -61l37 -71q68 41 156 63.5t173 22.5q144 0 218.5 -71t74.5 -207v-145l-200 3h-19q-266 0 -384.5 -83t-118.5 -251zM217 277 q0 69 15.5 114.5t59 82t127 53t213.5 16.5h17l191 -2v-279q-87 -118 -180.5 -160.5t-209.5 -42.5q-100 0 -166.5 55.5t-66.5 162.5zM219 1611l281 -351h54l-214 351h-121z" />
<glyph unicode="&#xe1;" horiz-adv-x="1116" d="M118 276q0 -134 90 -212t237 -78q53 0 97.5 6.5t99 25t107.5 59.5t101 103l16 -179h70v732q0 199 -102 284t-292 85q-89 0 -195.5 -26t-165.5 -61l37 -71q68 41 156 63.5t173 22.5q144 0 218.5 -71t74.5 -207v-145l-200 3h-19q-266 0 -384.5 -83t-118.5 -251zM217 277 q0 69 15.5 114.5t59 82t127 53t213.5 16.5h17l191 -2v-279q-87 -118 -180.5 -160.5t-209.5 -42.5q-100 0 -166.5 55.5t-66.5 162.5zM513 1260h54l265 351h-105z" />
<glyph unicode="&#xe2;" horiz-adv-x="1116" d="M118 276q0 -134 90 -212t237 -78q53 0 97.5 6.5t99 25t107.5 59.5t101 103l16 -179h70v732q0 199 -102 284t-292 85q-89 0 -195.5 -26t-165.5 -61l37 -71q68 41 156 63.5t173 22.5q144 0 218.5 -71t74.5 -207v-145l-200 3h-19q-266 0 -384.5 -83t-118.5 -251zM217 277 q0 69 15.5 114.5t59 82t127 53t213.5 16.5h17l191 -2v-279q-87 -118 -180.5 -160.5t-209.5 -42.5q-100 0 -166.5 55.5t-66.5 162.5zM298 1253h62l172 247l172 -247h60l-182 304h-100z" />
<glyph unicode="&#xe3;" horiz-adv-x="1116" d="M118 276q0 -134 90 -212t237 -78q53 0 97.5 6.5t99 25t107.5 59.5t101 103l16 -179h70v732q0 199 -102 284t-292 85q-89 0 -195.5 -26t-165.5 -61l37 -71q68 41 156 63.5t173 22.5q144 0 218.5 -71t74.5 -207v-145l-200 3h-19q-266 0 -384.5 -83t-118.5 -251zM217 277 q0 69 15.5 114.5t59 82t127 53t213.5 16.5h17l191 -2v-279q-87 -118 -180.5 -160.5t-209.5 -42.5q-100 0 -166.5 55.5t-66.5 162.5zM234 1328h51q4 100 64 100q36 0 148 -50t165 -50q20 0 35 4t34.5 18t30.5 50t11 91h-57q-4 -49 -19 -70t-42 -21t-78 23t-109.5 46 t-104.5 23q-25 0 -43.5 -4.5t-40.5 -19.5t-33.5 -50.5t-11.5 -89.5z" />
<glyph unicode="&#xe4;" horiz-adv-x="1116" d="M118 276q0 -134 90 -212t237 -78q53 0 97.5 6.5t99 25t107.5 59.5t101 103l16 -179h70v732q0 199 -102 284t-292 85q-89 0 -195.5 -26t-165.5 -61l37 -71q68 41 156 63.5t173 22.5q144 0 218.5 -71t74.5 -207v-145l-200 3h-19q-266 0 -384.5 -83t-118.5 -251zM217 277 q0 69 15.5 114.5t59 82t127 53t213.5 16.5h17l191 -2v-279q-87 -118 -180.5 -160.5t-209.5 -42.5q-100 0 -166.5 55.5t-66.5 162.5zM283 1414q0 -64 64 -64q63 0 63 64q0 63 -63 63q-64 0 -64 -63zM647 1414q0 -64 64 -64q63 0 63 64q0 25 -14 44t-49 19q-64 0 -64 -63z" />
<glyph unicode="&#xe5;" horiz-adv-x="1116" d="M118 276q0 -134 90 -212t237 -78q53 0 97.5 6.5t99 25t107.5 59.5t101 103l16 -179h70v732q0 199 -102 284t-292 85q-89 0 -195.5 -26t-165.5 -61l37 -71q68 41 156 63.5t173 22.5q144 0 218.5 -71t74.5 -207v-145l-200 3h-19q-266 0 -384.5 -83t-118.5 -251zM217 277 q0 69 15.5 114.5t59 82t127 53t213.5 16.5h17l191 -2v-279q-87 -118 -180.5 -160.5t-209.5 -42.5q-100 0 -166.5 55.5t-66.5 162.5zM379 1360q0 -68 48 -112.5t115 -44.5q68 0 116 44.5t48 112.5q0 67 -48.5 111t-115.5 44t-115 -44t-48 -111zM442 1358q0 42 29 70.5 t71 28.5t72 -28.5t30 -70.5q0 -41 -30.5 -70.5t-71.5 -29.5t-70.5 29.5t-29.5 70.5z" />
<glyph unicode="&#xe6;" horiz-adv-x="1806" d="M129 293q0 -68 17.5 -121t47 -87t71.5 -56.5t87.5 -32t98.5 -9.5q129 0 266 58.5t201 144.5q59 -101 159.5 -155t228.5 -54q104 0 187 23t169 67l-31 63q-96 -47 -161.5 -62.5t-147.5 -15.5h-2q-173 0 -280.5 119t-114.5 363h21q144 0 242 4t184 15t137 30t88 50.5 t51.5 74.5t14.5 104q0 117 -98.5 201t-268.5 84q-138 0 -252.5 -80t-137.5 -222q-3 81 -31.5 140.5t-78.5 94.5t-113.5 51.5t-142.5 16.5q-86 0 -185 -24.5t-166 -60.5l36 -71q74 41 167 62.5t179 21.5h3q137 0 198.5 -70.5t61.5 -205.5v-148q-3 0 -106.5 0.5t-105.5 0.5 q-262 0 -377.5 -78t-115.5 -236zM229 311q0 61 18.5 102t65 71t129.5 43.5t210 13.5h181q0 -167 45 -277q-63 -84 -181.5 -138.5t-230.5 -54.5q-107 0 -172 59t-65 181zM929 600q8 86 35 161t71.5 134.5t112 94t149.5 34.5q135 0 209.5 -67t74.5 -154q0 -119 -143.5 -161 t-491.5 -42h-17z" />
<glyph unicode="&#xe7;" horiz-adv-x="1086" d="M120 541q0 -259 126.5 -410t346.5 -151q144 0 250 70.5t135 188.5l-52 22h-19q-28 -97 -115 -154.5t-199 -57.5q-176 0 -275.5 132t-99.5 360t99.5 360t275.5 132q113 0 200 -58t114 -155h16l55 23q-30 118 -135.5 188.5t-249.5 70.5q-220 0 -346.5 -151t-126.5 -410z M430 -356q67 -31 148 -31q109 0 178.5 52t69.5 136q0 76 -49.5 116t-122.5 40q-47 0 -93 -17l1 -34q37 8 73 8q72 0 100 -34t28 -79q0 -69 -52 -104.5t-126 -35.5q-75 0 -134 34z" />
<glyph unicode="&#xe8;" horiz-adv-x="1122" d="M124 537q0 -249 135.5 -403t350.5 -154q192 0 364 93l-33 65h-11q-153 -84 -308 -84q-83 0 -154 29.5t-126.5 88t-89 154.5t-36.5 220h776q5 33 5 66q0 231 -102.5 360.5t-288.5 129.5q-96 0 -182.5 -37.5t-153.5 -107t-106.5 -178.5t-39.5 -242zM221 608 q18 190 121.5 306t271.5 116q155 0 228.5 -105t78.5 -317h-700zM260 1611l281 -351h54l-214 351h-121z" />
<glyph unicode="&#xe9;" horiz-adv-x="1122" d="M124 537q0 -249 135.5 -403t350.5 -154q192 0 364 93l-33 65h-11q-153 -84 -308 -84q-83 0 -154 29.5t-126.5 88t-89 154.5t-36.5 220h776q5 33 5 66q0 231 -102.5 360.5t-288.5 129.5q-96 0 -182.5 -37.5t-153.5 -107t-106.5 -178.5t-39.5 -242zM221 608 q18 190 121.5 306t271.5 116q155 0 228.5 -105t78.5 -317h-700zM554 1260h54l265 351h-105z" />
<glyph unicode="&#xea;" horiz-adv-x="1122" d="M124 537q0 -249 135.5 -403t350.5 -154q192 0 364 93l-33 65h-11q-153 -84 -308 -84q-83 0 -154 29.5t-126.5 88t-89 154.5t-36.5 220h776q5 33 5 66q0 231 -102.5 360.5t-288.5 129.5q-96 0 -182.5 -37.5t-153.5 -107t-106.5 -178.5t-39.5 -242zM221 608 q18 190 121.5 306t271.5 116q155 0 228.5 -105t78.5 -317h-700zM339 1253h62l172 247l172 -247h60l-182 304h-100z" />
<glyph unicode="&#xeb;" horiz-adv-x="1122" d="M124 537q0 -249 135.5 -403t350.5 -154q192 0 364 93l-33 65h-11q-153 -84 -308 -84q-83 0 -154 29.5t-126.5 88t-89 154.5t-36.5 220h776q5 33 5 66q0 231 -102.5 360.5t-288.5 129.5q-96 0 -182.5 -37.5t-153.5 -107t-106.5 -178.5t-39.5 -242zM221 608 q18 190 121.5 306t271.5 116q155 0 228.5 -105t78.5 -317h-700zM324 1414q0 -64 64 -64q63 0 63 64q0 63 -63 63q-64 0 -64 -63zM688 1414q0 -64 64 -64q63 0 63 64q0 25 -14 44t-49 19q-64 0 -64 -63z" />
<glyph unicode="&#xec;" horiz-adv-x="467" d="M-82 1611l281 -351h54l-214 351h-121zM189 0h97v1082h-97v-1082z" />
<glyph unicode="&#xed;" horiz-adv-x="468" d="M189 0h97v1082h-97v-1082zM218 1289h54l265 351h-105z" />
<glyph unicode="&#xee;" horiz-adv-x="468" d="M-3 1253h62l172 247l172 -247h60l-182 304h-100zM189 0h97v1082h-97v-1082z" />
<glyph unicode="&#xef;" horiz-adv-x="468" d="M-18 1414q0 -64 64 -64q63 0 63 64q0 63 -63 63q-64 0 -64 -63zM189 0h97v1082h-97v-1082zM346 1414q0 -64 64 -64q63 0 63 64q0 25 -14 44t-49 19q-64 0 -64 -63z" />
<glyph unicode="&#xf0;" horiz-adv-x="1355" d="M174 484q0 -77 17.5 -149.5t55.5 -139.5t93.5 -117t137 -79.5t179.5 -29.5q101 0 183.5 28.5t138 77.5t93 116.5t54.5 143t17 160.5q0 99 -20.5 201t-54.5 174q-48 103 -138 223t-268 305l292 105l-38 57l-308 -116l-188 184h-108l230 -205l-261 -100l36 -58l269 102 q347 -337 444 -594q-56 67 -83 92q-120 110 -286 110q-211 0 -349 -137t-138 -354zM276 481q0 117 44.5 211.5t132 151t203.5 56.5q93 0 170 -35.5t125.5 -93t74.5 -128t26 -143.5q0 -216 -99 -340.5t-291 -124.5q-96 0 -172.5 39.5t-121.5 104.5t-68.5 142.5t-23.5 159.5z " />
<glyph unicode="&#xf1;" horiz-adv-x="1164" d="M187 0h98v670q0 55 9 103.5t33.5 97t63 83.5t103 56.5t147.5 21.5q139 0 195.5 -82t55.5 -239v-711h98v661q0 229 -83 335t-263 106q-267 0 -363 -204l-14 184h-80v-1082zM335 1328h51q4 100 64 100q36 0 148 -50t165 -50q20 0 35 4t34.5 18t30.5 50t11 91h-57 q-4 -49 -19 -70t-42 -21t-78 23t-109.5 46t-104.5 23q-25 0 -43.5 -4.5t-40.5 -19.5t-33.5 -50.5t-11.5 -89.5z" />
<glyph unicode="&#xf2;" horiz-adv-x="1201" d="M120 541q0 -246 132.5 -403.5t347.5 -157.5t347 157.5t132 403.5q0 255 -131 408t-348 153q-218 0 -349 -153t-131 -408zM218 539q0 225 103.5 359.5t278.5 134.5q174 0 278 -135t104 -360q0 -214 -105 -351.5t-277 -137.5t-277 137.5t-105 352.5zM309 1640l281 -351h54 l-214 351h-121z" />
<glyph unicode="&#xf3;" horiz-adv-x="1201" d="M120 541q0 -246 132.5 -403.5t347.5 -157.5t347 157.5t132 403.5q0 255 -131 408t-348 153q-218 0 -349 -153t-131 -408zM218 539q0 225 103.5 359.5t278.5 134.5q174 0 278 -135t104 -360q0 -214 -105 -351.5t-277 -137.5t-277 137.5t-105 352.5zM581 1289h54l265 351 h-105z" />
<glyph unicode="&#xf4;" horiz-adv-x="1201" d="M120 541q0 -246 132.5 -403.5t347.5 -157.5t347 157.5t132 403.5q0 255 -131 408t-348 153q-218 0 -349 -153t-131 -408zM218 539q0 225 103.5 359.5t278.5 134.5q174 0 278 -135t104 -360q0 -214 -105 -351.5t-277 -137.5t-277 137.5t-105 352.5zM360 1253h62l172 247 l172 -247h60l-182 304h-100z" />
<glyph unicode="&#xf5;" horiz-adv-x="1199" d="M120 541q0 -246 132.5 -403.5t347.5 -157.5t347 157.5t132 403.5q0 255 -131 408t-348 153q-218 0 -349 -153t-131 -408zM218 539q0 225 103.5 359.5t278.5 134.5q174 0 278 -135t104 -360q0 -214 -105 -351.5t-277 -137.5t-277 137.5t-105 352.5zM295 1328h51 q4 100 64 100q36 0 148 -50t165 -50q20 0 35 4t34.5 18t30.5 50t11 91h-57q-4 -49 -19 -70t-42 -21t-78 23t-109.5 46t-104.5 23q-25 0 -43.5 -4.5t-40.5 -19.5t-33.5 -50.5t-11.5 -89.5z" />
<glyph unicode="&#xf6;" horiz-adv-x="1201" d="M120 541q0 -246 132.5 -403.5t347.5 -157.5t347 157.5t132 403.5q0 255 -131 408t-348 153q-218 0 -349 -153t-131 -408zM218 539q0 225 103.5 359.5t278.5 134.5q174 0 278 -135t104 -360q0 -214 -105 -351.5t-277 -137.5t-277 137.5t-105 352.5zM345 1414q0 -64 64 -64 q63 0 63 64q0 63 -63 63q-64 0 -64 -63zM709 1414q0 -64 64 -64q63 0 63 64q0 25 -14 44t-49 19q-64 0 -64 -63z" />
<glyph unicode="&#xf7;" horiz-adv-x="1032" d="M57 515h893v94h-893v-94zM437 41h135v150h-135v-150zM437 896h135v151h-135v-151z" />
<glyph unicode="&#xf8;" horiz-adv-x="1199" d="M120 541q0 -246 132.5 -403.5t347.5 -157.5t347 157.5t132 403.5q0 255 -131 408t-348 153q-218 0 -349 -153t-131 -408zM218 539q0 225 103.5 359.5t278.5 134.5q174 0 278 -135t104 -360q0 -214 -105 -351.5t-277 -137.5t-277 137.5t-105 352.5zM232 -121l60 -31 l730 1343l-64 29z" />
<glyph unicode="&#xf9;" horiz-adv-x="1169" d="M175 422q0 -442 373 -442q129 0 208 38.5t133 129.5l12 -148h83v1082h-97v-847q-101 -185 -338 -185q-142 0 -209 84.5t-67 236.5v711h-98v-660zM289 1640l281 -351h54l-214 351h-121z" />
<glyph unicode="&#xfa;" horiz-adv-x="1169" d="M175 422q0 -442 373 -442q129 0 208 38.5t133 129.5l12 -148h83v1082h-97v-847q-101 -185 -338 -185q-142 0 -209 84.5t-67 236.5v711h-98v-660zM562 1289h54l265 351h-105z" />
<glyph unicode="&#xfb;" horiz-adv-x="1169" d="M175 422q0 -442 373 -442q129 0 208 38.5t133 129.5l12 -148h83v1082h-97v-847q-101 -185 -338 -185q-142 0 -209 84.5t-67 236.5v711h-98v-660zM341 1253h62l172 247l172 -247h60l-182 304h-100z" />
<glyph unicode="&#xfc;" horiz-adv-x="1169" d="M175 422q0 -442 373 -442q129 0 208 38.5t133 129.5l12 -148h83v1082h-97v-847q-101 -185 -338 -185q-142 0 -209 84.5t-67 236.5v711h-98v-660zM326 1414q0 -64 64 -64q63 0 63 64q0 63 -63 63q-64 0 -64 -63zM690 1414q0 -64 64 -64q63 0 63 64q0 25 -14 44t-49 19 q-64 0 -64 -63z" />
<glyph unicode="&#xfd;" horiz-adv-x="1067" d="M74 1082l455 -1032l-166 -419l76 -32l574 1483h-93l-348 -920l-400 920h-98zM539 1289h54l265 351h-105z" />
<glyph unicode="&#xfe;" horiz-adv-x="1247" d="M182 0h67l10 185q53 -90 148 -147.5t238 -57.5q223 0 346.5 151.5t123.5 401.5q0 269 -118.5 419t-340.5 150q-122 0 -221 -63.5t-156 -174.5v696l-97 -20v-1540zM182 291v-803h96v803h-96zM277 294v292q-1 196 105.5 321t267.5 125q101 0 174.5 -39t114.5 -109.5 t59.5 -156t18.5 -191.5q0 -104 -21.5 -190t-65 -153.5t-116.5 -105t-169 -37.5q-268 0 -368 244z" />
<glyph unicode="&#xff;" horiz-adv-x="1067" d="M74 1082l455 -1032l-166 -419l76 -32l574 1483h-93l-348 -920l-400 920h-98zM303 1414q0 -64 64 -64q63 0 63 64q0 63 -63 63q-64 0 -64 -63zM667 1414q0 -64 64 -64q63 0 63 64q0 25 -14 44t-49 19q-64 0 -64 -63z" />
<glyph unicode="&#x152;" horiz-adv-x="2738" d="M147 714q0 -164 40.5 -296.5t121.5 -231t212 -152t304 -53.5q209 0 354.5 84.5t223.5 237.5v-303h848l7 69h-762v641h676v70h-676v604h760l3 71h-856v-324q-79 163 -225.5 253t-351.5 90q-168 0 -298.5 -55.5t-213 -156.5t-125 -239.5t-42.5 -308.5zM240 714 q0 156 34.5 281t104.5 217.5t183 142.5t263 50t262 -50.5t180.5 -143.5t102 -217t33.5 -280q0 -149 -32 -267t-99.5 -209t-181 -139.5t-268.5 -48.5q-154 0 -268 49t-182 139t-100 208.5t-32 267.5z" />
<glyph unicode="&#x153;" horiz-adv-x="1988" d="M124 522q0 -115 32.5 -213.5t93 -171t151.5 -114t203 -41.5q152 0 267.5 88.5t162.5 248.5q44 -166 162 -251.5t278 -85.5q64 0 115.5 7t100 25.5t73.5 30.5t78 40l-27 58h-12q-103 -51 -169 -69.5t-157 -18.5q-78 0 -146 26t-124.5 80t-89 147.5t-32.5 218.5h775 q5 33 5 65q0 223 -103 351t-289 128h-2q-143 0 -264.5 -93.5t-164.5 -260.5q-35 166 -152 260t-285 94q-148 0 -258 -73t-166 -196.5t-56 -279.5zM220 520q0 99 23.5 184.5t69.5 152.5t121 105.5t170 38.5q98 0 173 -38.5t120 -106t67.5 -152.5t22.5 -185q0 -95 -22 -177.5 t-67 -148.5t-120 -104t-174 -38q-95 0 -169.5 38t-120.5 103.5t-70 149t-24 178.5zM1088 589q18 182 121.5 296t271.5 114q155 -1 228 -103.5t78 -306.5h-699z" />
<glyph unicode="&#x178;" horiz-adv-x="1208" d="M66 1455l517 -842v-613h86v615l473 840h-81l-436 -769l-481 769h-78zM345 1787q0 -64 64 -64q63 0 63 64q0 63 -63 63q-64 0 -64 -63zM709 1787q0 -64 64 -64q63 0 63 64q0 25 -14 44t-49 19q-64 0 -64 -63z" />
<glyph unicode="&#x2c6;" horiz-adv-x="847" d="M179 1253h62l172 247l172 -247h60l-182 304h-100z" />
<glyph unicode="&#x2dc;" horiz-adv-x="1006" d="M194 1328h51q4 100 64 100q36 0 148 -50t165 -50q20 0 35 4t34.5 18t30.5 50t11 91h-57q-4 -49 -19 -70t-42 -21t-78 23t-109.5 46t-104.5 23q-25 0 -43.5 -4.5t-40.5 -19.5t-33.5 -50.5t-11.5 -89.5z" />
<glyph unicode="&#x2000;" horiz-adv-x="992" />
<glyph unicode="&#x2001;" horiz-adv-x="1984" />
<glyph unicode="&#x2002;" horiz-adv-x="992" />
<glyph unicode="&#x2003;" horiz-adv-x="1984" />
<glyph unicode="&#x2004;" horiz-adv-x="661" />
<glyph unicode="&#x2005;" horiz-adv-x="496" />
<glyph unicode="&#x2006;" horiz-adv-x="330" />
<glyph unicode="&#x2007;" horiz-adv-x="330" />
<glyph unicode="&#x2008;" horiz-adv-x="248" />
<glyph unicode="&#x2009;" horiz-adv-x="396" />
<glyph unicode="&#x200a;" horiz-adv-x="110" />
<glyph unicode="&#x2010;" horiz-adv-x="811" d="M143 534h498v72h-498v-72z" />
<glyph unicode="&#x2011;" horiz-adv-x="811" d="M143 534h498v72h-498v-72z" />
<glyph unicode="&#x2012;" horiz-adv-x="811" d="M143 534h498v72h-498v-72z" />
<glyph unicode="&#x2013;" horiz-adv-x="1326" d="M165 578h996v92h-996v-92z" />
<glyph unicode="&#x2014;" horiz-adv-x="2323" d="M60 578h2203v66h-2203v-66z" />
<glyph unicode="&#x2018;" horiz-adv-x="521" d="M195 1007h104l54 450h-60z" />
<glyph unicode="&#x2019;" horiz-adv-x="521" d="M195 1007h60l98 450h-103z" />
<glyph unicode="&#x201a;" horiz-adv-x="404" d="M94 -254h48l102 433h-80z" />
<glyph unicode="&#x201c;" horiz-adv-x="848" d="M195 1007h104l54 450h-60zM488 1007h103l55 450h-60z" />
<glyph unicode="&#x201d;" horiz-adv-x="848" d="M195 1007h60l98 450h-103zM488 1007h60l98 450h-104z" />
<glyph unicode="&#x201e;" horiz-adv-x="598" d="M113 -254h43l91 433h-71zM336 -254h38l99 433h-79z" />
<glyph unicode="&#x2022;" horiz-adv-x="811" d="M100 778q0 -152 87.5 -233t206.5 -81q57 0 109.5 19.5t97 57t71 100t26.5 140.5q0 63 -17 116.5t-46 90t-67 62t-80.5 37.5t-86.5 12q-57 0 -109.5 -19.5t-96 -57.5t-69.5 -101.5t-26 -142.5z" />
<glyph unicode="&#x2026;" horiz-adv-x="1450" d="M152 58q0 -79 78 -79q76 0 76 79q0 78 -76 78q-78 0 -78 -78zM655 58q0 -79 78 -79q76 0 76 79q0 78 -76 78q-78 0 -78 -78zM1132 58q0 -79 78 -79q76 0 76 79q0 78 -76 78q-78 0 -78 -78z" />
<glyph unicode="&#x202f;" horiz-adv-x="396" />
<glyph unicode="&#x2039;" horiz-adv-x="659" d="M129 567l317 -429h80l-311 428l315 440h-81z" />
<glyph unicode="&#x203a;" horiz-adv-x="683" d="M162 138h81l321 442l-318 427h-80l310 -426z" />
<glyph unicode="&#x205f;" horiz-adv-x="496" />
<glyph unicode="&#x20ac;" horiz-adv-x="1332" d="M3 548h917l13 85h-716l1 214h715l13 82h-921l-11 -82h155l-1 -214h-153zM142 728q0 -345 175 -546.5t474 -201.5q157 0 285.5 84.5t186.5 229.5l-60 24h-13q-52 -124 -160 -196.5t-239 -72.5q-257 0 -406.5 183t-149.5 496t149.5 496t406.5 183q131 0 239 -72.5 t160 -196.5h14l59 25q-58 144 -186.5 228.5t-285.5 84.5q-299 0 -474 -201.5t-175 -546.5z" />
<glyph unicode="&#x2122;" horiz-adv-x="1914" d="M101 1410h287v-881h57v881h258v45h-601zM883 529h51l25 819l354 -717h34l331 716l19 -818h57l-31 926h-47l-346 -746l-370 746h-46z" />
<glyph unicode="&#x25fc;" horiz-adv-x="1080" d="M0 0v1080h1080v-1080h-1080z" />
</font>
</defs>
</svg>
