<?xml version="1.0" standalone="no"?>
<!DOCTYPE svg PUBLIC "-//W3C//DTD SVG 1.1//EN" "http://www.w3.org/Graphics/SVG/1.1/DTD/svg11.dtd" >
<svg xmlns="http://www.w3.org/2000/svg" xmlns:xlink="http://www.w3.org/1999/xlink" version="1.1">
<metadata></metadata>
<defs>
<font id="commesemibold" horiz-adv-x="1319" >
<font-face units-per-em="2048" ascent="1638" descent="-410" />
<missing-glyph horiz-adv-x="571" />
<glyph unicode="&#xfb01;" horiz-adv-x="1372" d="M29 925h168v-925h271v925h269v157h-269v78q0 102 37 139.5t131 37.5q50 0 120 -10l11 169q-92 23 -215 23q-66 0 -117 -9t-97 -33t-76 -63.5t-47.5 -103.5t-17.5 -150v-82l-163 -18zM913 1445q0 -74 44.5 -117.5t122.5 -43.5t122.5 43.5t44.5 117.5q0 71 -44.5 113 t-122.5 42t-122.5 -42t-44.5 -113zM941 0h271v1082h-271v-1082z" />
<glyph unicode="&#xfb02;" horiz-adv-x="1505" d="M27 925h168v-925h271v925h269v157h-269v78q0 102 37 139.5t131 37.5q50 0 120 -10l11 169q-92 23 -215 23q-66 0 -117 -9t-97 -33t-76 -63.5t-47.5 -103.5t-17.5 -150v-82l-163 -18zM905 336q0 -205 97 -281q82 -64 264 -65q18 0 37 1l83 2l13 178l-103 8q-74 5 -97 33 t-23 109v1239l-271 -20v-1204z" />
<glyph unicode="&#xfb03;" horiz-adv-x="2173" d="M29 925h168v-925h271v925h269v157h-269v78q0 102 37 139.5t131 37.5q50 0 120 -10l11 169q-92 23 -215 23q-66 0 -117 -9t-97 -33t-76 -63.5t-47.5 -103.5t-17.5 -150v-82l-163 -18zM830 925h168v-925h271v925h269v157h-269v78q0 102 37 139.5t131 37.5q50 0 120 -10 l11 169q-92 23 -215 23q-66 0 -117 -9t-97 -33t-76 -63.5t-47.5 -103.5t-17.5 -150v-82l-163 -18zM1720 1445q0 -74 44.5 -117.5t122.5 -43.5t122.5 43.5t44.5 117.5q0 71 -44.5 113t-122.5 42t-122.5 -42t-44.5 -113zM1748 0h271v1082h-271v-1082z" />
<glyph unicode="&#xfb04;" horiz-adv-x="2306" d="M26 925h168v-925h271v925h269v157h-269v78q0 102 37 139.5t131 37.5q50 0 120 -10l11 169q-92 23 -215 23q-66 0 -117 -9t-97 -33t-76 -63.5t-47.5 -103.5t-17.5 -150v-82l-163 -18zM827 925h168v-925h271v925h269v157h-269v78q0 102 37 139.5t131 37.5q50 0 120 -10 l11 169q-92 23 -215 23q-66 0 -117 -9t-97 -33t-76 -63.5t-47.5 -103.5t-17.5 -150v-82l-163 -18zM1722 336q0 -205 97 -281q82 -64 264 -65q18 0 37 1l83 2l13 178l-103 8q-74 5 -97 33t-23 109v1239l-271 -20v-1204z" />
<glyph horiz-adv-x="0" />
<glyph unicode="&#xd;" horiz-adv-x="600" />
<glyph unicode=" "  horiz-adv-x="571" />
<glyph unicode="&#x09;" horiz-adv-x="571" />
<glyph unicode="&#xa0;" horiz-adv-x="571" />
<glyph unicode="!" horiz-adv-x="740" d="M222 135q0 -59 39.5 -102t101.5 -43t101 43t39 102t-38.5 101t-101.5 42t-102 -42t-39 -101zM252 1327l66 -877h99l58 877v189h-223v-189z" />
<glyph unicode="&#x22;" horiz-adv-x="785" d="M97 1543l80 -590h123l43 590h-246zM448 1543l79 -590h124l43 590h-246z" />
<glyph unicode="#" horiz-adv-x="1135" d="M64 441h182l-85 -450h141l85 450h257l-85 -450h142l86 450h193l16 115h-187l77 411h181l17 116h-177l84 425h-143l-83 -425h-257l84 425h-144l-83 -425h-199l-16 -116h194l-77 -411h-186zM410 556l77 411h256l-78 -411h-255z" />
<glyph unicode="$" horiz-adv-x="1225" d="M94 203q69 -93 200 -158t312 -65q85 0 160.5 15t141.5 48t113.5 81.5t75 119t27.5 156.5q0 55 -8.5 101t-22.5 82t-39 67t-52 54t-66.5 46t-77.5 40.5t-91 38.5l-188 76q-59 24 -92 41t-57.5 39.5t-33.5 48t-9 63.5q0 48 18.5 84t52 56t74 29.5t89.5 9.5q84 0 159.5 -37 t117.5 -106h19l177 115q-59 97 -184.5 162.5t-295.5 65.5h-4q-83 0 -155.5 -13t-138 -43t-112 -76.5t-73.5 -117t-27 -159.5q0 -63 13.5 -113t36.5 -86.5t62 -67.5t80.5 -53t100.5 -46l213 -87q140 -58 185 -102t45 -126q0 -101 -65 -148t-177 -47q-85 0 -170.5 42 t-142.5 106h-23zM538 1431h152v338h-145zM542 50v-338h147l2 338h-149z" />
<glyph unicode="%" horiz-adv-x="1925" d="M92 1117q0 -177 91.5 -288.5t264.5 -111.5q172 0 269.5 113t97.5 287q0 178 -96 288t-271 110q-171 0 -263.5 -110.5t-92.5 -287.5zM259 1120q0 112 48 181t144 69q95 0 141.5 -67.5t46.5 -182.5q0 -114 -46.5 -183.5t-141.5 -69.5q-96 0 -144 69t-48 184zM430 0h195 l834 1495h-186zM1079 380q0 -176 96 -288.5t270 -112.5q172 0 269.5 113t97.5 288q0 177 -96 287t-271 110q-172 0 -269 -111.5t-97 -285.5zM1256 382q0 112 48 181t144 69q95 0 141.5 -67.5t46.5 -182.5q0 -113 -46.5 -183t-141.5 -70q-96 0 -144 69.5t-48 183.5z" />
<glyph unicode="&#x26;" horiz-adv-x="1420" d="M95 422q0 -140 61 -240t170.5 -150t255.5 -50q247 0 439 171l173 -183l142 127l-187 196q28 36 54 74.5t52.5 83t42.5 73t45 81t38 68.5l-145 99q-114 -218 -212 -348l-358 377q334 179 334 398q0 79 -32 140.5t-86 98t-120 55t-140 18.5q-163 0 -276.5 -91.5 t-113.5 -247.5q0 -170 169 -343q-43 -25 -77 -47.5t-71 -52t-64 -61t-49 -69t-33.5 -82.5t-11.5 -95zM316 413q-1 93 58.5 166.5t135.5 114.5l387 -410q-19 -18 -49.5 -35t-62 -30.5t-64.5 -25.5t-59.5 -19.5t-45 -12t-23.5 -4.5q-1 0 -1 1l4 2q-129 0 -205 66.5t-75 186.5z M443 1190q0 75 51 116.5t130 41.5q39 0 70 -9.5t53.5 -28.5t34 -48.5t11.5 -67.5q0 -81 -64.5 -153t-160.5 -122q-72 83 -98.5 142t-26.5 129z" />
<glyph unicode="'" horiz-adv-x="524" d="M123 1529l71 -597h131l38 597h-240z" />
<glyph unicode="(" horiz-adv-x="826" d="M210 663q0 254 75 507t196 423h197v-37q-261 -366 -261 -893q0 -532 261 -898v-32h-197q-121 171 -196 423.5t-75 506.5z" />
<glyph unicode=")" horiz-adv-x="826" d="M152 -235v-32h197q121 171 196 423.5t75 506.5t-75 507t-196 423h-197v-37q261 -366 261 -893q0 -532 -261 -898z" />
<glyph unicode="*" horiz-adv-x="997" d="M35 1035l343 -79l-237 -316l185 -108l173 336l182 -337q13 8 91.5 54.5t90.5 54.5q-189 249 -239 316l347 79l-59 204l-339 -144l34 397h-211l34 -397l-337 144z" />
<glyph unicode="+" horiz-adv-x="1166" d="M110 614h363v-381h213v381h361v209h-360v375h-214v-375h-363v-209z" />
<glyph unicode="," horiz-adv-x="655" d="M189 -327h159l120 453v134h-240z" />
<glyph unicode="-" horiz-adv-x="911" d="M158 474h595v182h-595v-182z" />
<glyph unicode="." horiz-adv-x="684" d="M201 134q0 -70 37.5 -106.5t101.5 -36.5t101.5 37t37.5 106q0 70 -37 106.5t-102 36.5t-102 -36.5t-37 -106.5z" />
<glyph unicode="/" horiz-adv-x="996" d="M93 -164h183l635 1724h-187z" />
<glyph unicode="0" d="M106 717q0 -344 144.5 -540.5t411.5 -196.5t409 196t142 541q0 352 -144.5 555.5t-406.5 203.5t-409 -204.5t-147 -554.5zM398 720q1 256 72 399.5t192 143.5q124 0 191.5 -138.5t67.5 -404.5q0 -263 -67 -395t-192 -132t-194.5 132.5t-69.5 394.5z" />
<glyph unicode="1" d="M196 0h1004v193h-337v1263h-250q-63 -47 -189.5 -98t-221.5 -76v-192q27 3 63.5 11.5t76.5 20.5t81 26.5t81 31t72 32.5v-1019h-380v-193z" />
<glyph unicode="2" d="M137 1249l128 -141h23q61 72 154.5 115t189.5 43q40 0 76 -9t66.5 -28t52.5 -45.5t34.5 -63.5t12.5 -81q0 -60 -19 -110t-52.5 -92.5t-96.5 -104.5l-541 -532l43 -200h901l9 201h-635l380 360q150 144 209.5 247.5t59.5 228.5q0 194 -130.5 316.5t-366.5 122.5 q-152 0 -283 -63.5t-215 -163.5z" />
<glyph unicode="3" horiz-adv-x="1236" d="M118 200q51 -88 180.5 -154t289.5 -66q85 0 161 17.5t140 52.5t110.5 84.5t72.5 117.5t26 147q0 53 -11.5 101t-37 92t-63.5 78.5t-94.5 58.5t-126.5 33q65 11 116 35t83.5 55t53.5 71t29.5 81t8.5 87q0 186 -127 285.5t-345 99.5q-146 0 -272.5 -59.5t-190.5 -169.5 l133 -131l21 -3q111 150 297 150q108 0 162 -51.5t54 -149.5q0 -56 -18 -97t-47 -65.5t-74 -39t-91 -19t-107 -4.5l-91 -1l23 -181h70q60 0 106.5 -4.5t88.5 -15t72 -28.5t52 -44.5t33 -64t11 -85.5q0 -106 -64.5 -164t-179.5 -58q-93 0 -177 38t-133 107h-20z" />
<glyph unicode="4" d="M113 530l33 -181h592v-349h281v349h181l14 191h-195v916h-320zM343 537l395 637v-637h-395z" />
<glyph unicode="5" d="M174 203q66 -102 189 -162.5t298 -60.5q123 0 222.5 41t162 111t96 159t33.5 188q0 89 -28 171t-82 149.5t-142.5 108t-200.5 40.5q-53 0 -98 -10.5t-80.5 -29.5t-68.5 -48l45 404h550l26 192h-801l-54 -786l204 -33q32 61 91 92.5t141 31.5q72 0 126.5 -40t81 -101.5 t26.5 -132.5q0 -85 -28.5 -150t-91 -105t-152.5 -40q-207 0 -308 157h-18z" />
<glyph unicode="6" d="M150 459q0 -100 35 -187t100 -152t164 -102.5t220 -37.5q236 0 376.5 131t140.5 336q0 107 -35.5 193.5t-96 141t-136 84t-158.5 29.5q-61 0 -115 -17t-99 -45q69 88 141 184t170 227.5t139 185.5v26h-297l-365 -514q-95 -131 -139.5 -239t-44.5 -244zM421 449 q0 70 22 125t58 87.5t79 49t90 16.5q114 0 179 -75.5t65 -199.5q0 -120 -66 -197.5t-181 -77.5t-180.5 76.5t-65.5 195.5z" />
<glyph unicode="7" d="M178 1456l13 -204h656l-515 -1252h290l519 1257l-3 199h-960z" />
<glyph unicode="8" d="M144 379q0 -191 141 -295t377 -104q235 0 374 104t139 295q0 143 -70 246.5t-194 147.5q236 90 236 340q0 172 -134.5 267.5t-351.5 95.5t-352.5 -95.5t-135.5 -267.5q0 -130 66 -216t179 -125q-131 -47 -202.5 -147t-71.5 -246zM424 393q0 115 65 192.5t173 106.5 q106 -29 170.5 -107t64.5 -191q0 -118 -56.5 -174.5t-178.5 -56.5q-238 0 -238 230zM440 1105q0 90 60.5 141.5t161.5 51.5t159.5 -51.5t58.5 -141.5q0 -101 -55.5 -172t-162.5 -104q-107 33 -164.5 104.5t-57.5 171.5z" />
<glyph unicode="9" d="M161 1013q0 -107 36.5 -194.5t98 -142.5t138.5 -85t161 -30q102 0 197 51q-68 -87 -142 -182.5t-169.5 -219.5t-141.5 -183v-27h293l379 517q98 130 145 238t47 243q0 206 -139.5 342t-379.5 136q-236 0 -379.5 -129.5t-143.5 -333.5zM433 1007q0 119 68 196.5t183 77.5 t181.5 -77t66.5 -196q0 -48 -10.5 -88.5t-28.5 -70.5t-42.5 -53t-53.5 -37.5t-59.5 -21.5t-61.5 -7q-115 0 -179 76t-64 201z" />
<glyph unicode=":" horiz-adv-x="683" d="M194 136q0 -65 41.5 -104.5t107.5 -39.5q67 0 107.5 39.5t40.5 104.5q0 66 -40.5 106.5t-107.5 40.5t-108 -40.5t-41 -106.5zM194 954q0 -65 41.5 -104.5t107.5 -39.5q67 0 107.5 39.5t40.5 104.5q0 66 -40.5 106.5t-107.5 40.5t-108 -40.5t-41 -106.5z" />
<glyph unicode=";" horiz-adv-x="740" d="M226 -327h158l121 453v134h-241zM230 953q0 -65 41 -104t108 -39t107 39t40 104q0 67 -40 107.5t-107 40.5t-108 -40.5t-41 -107.5z" />
<glyph unicode="&#x3c;" horiz-adv-x="1107" d="M67 625l938 -461v204l-670 321l670 347v198l-938 -493v-116z" />
<glyph unicode="=" horiz-adv-x="1170" d="M111 453h938v187h-938v-187zM111 863h938v186h-938v-186z" />
<glyph unicode="&#x3e;" horiz-adv-x="1107" d="M88 167l939 457v117l-938 496v-198l665 -350l-666 -318v-204z" />
<glyph unicode="?" horiz-adv-x="999" d="M115 1398l62 -191q134 80 246 80q19 0 36.5 -2.5t32.5 -7.5t28 -12t23.5 -16t19 -20.5t15 -24.5t10.5 -28.5t6 -32t2 -34.5q0 -49 -20.5 -100.5t-53.5 -105.5t-68.5 -112.5t-71 -143.5t-55.5 -178l80 -15q41 89 104 167t118.5 131.5t106.5 111.5t81.5 134.5t30.5 173.5 q0 112 -54.5 192.5t-139.5 117.5t-190 37q-95 0 -189.5 -31t-159.5 -90zM228 123q0 -61 37 -100.5t103 -39.5q65 0 101 39t36 101q0 61 -36 100t-101 39q-66 0 -103 -39t-37 -100z" />
<glyph unicode="@" horiz-adv-x="1983" d="M150 657q0 -190 60.5 -344t169 -257.5t261 -159.5t335.5 -56q157 0 302.5 37.5t241.5 107.5l-54 136q-190 -114 -487 -114q-146 0 -264.5 48.5t-196.5 135t-120 205t-42 257.5q0 145 47 275t133 228.5t215.5 156t285.5 57.5q152 0 272 -45.5t194 -124.5t112 -179.5 t38 -216.5q0 -190 -65 -297t-150 -107q-46 0 -75.5 35t-29.5 94q0 57 9.5 136.5t29 203.5t28.5 191q-63 34 -161 58.5t-187 24.5q-110 0 -201 -46t-149 -121.5t-89.5 -168.5t-31.5 -192q0 -79 20.5 -146t60.5 -118t104 -80t145 -29q98 0 172 63t113 165q22 -105 83.5 -163 t158.5 -58q72 0 142.5 35.5t129.5 101.5t95.5 173t36.5 237q0 165 -62 305t-169 235t-253.5 148.5t-313.5 53.5q-191 0 -357.5 -68t-284 -185t-185 -280t-67.5 -348zM782 607q0 106 34.5 194.5t100.5 141.5t151 53q44 0 120 -14l-40 -246q-26 -176 -74.5 -259t-144.5 -83 q-147 0 -147 213z" />
<glyph unicode="A" horiz-adv-x="1479" d="M58 0h288l140 408h503l144 -408h288l-512 1456h-338zM544 590l195 621l196 -621h-391z" />
<glyph unicode="B" horiz-adv-x="1409" d="M187 14q225 -18 397 -18q205 0 343.5 26t221 82t117.5 135t35 194q0 148 -74.5 233t-239.5 120q134 40 201.5 119t67.5 186q0 201 -148 288t-486 87q-190 0 -435 -22v-1430zM475 196v489h204q179 0 257.5 -52t78.5 -189q0 -68 -15.5 -111.5t-57.5 -77.5t-121 -49 t-203 -15q-34 0 -70 1.5t-73 3.5zM475 863v411q82 6 166 6q181 0 253.5 -47.5t72.5 -167.5q0 -111 -74 -156.5t-205 -45.5h-213z" />
<glyph unicode="C" horiz-adv-x="1513" d="M134 731q0 -376 205 -575q182 -176 486 -176q102 0 191 23t155 62t117 92t82 112.5t45 124.5l-209 82h-22q-14 -58 -43.5 -109t-72.5 -92t-103.5 -65t-130.5 -24q-90 0 -162 32t-125 97.5t-82 170.5t-29 245q0 539 415 539q65 0 122 -25t98 -66.5t69.5 -92.5t41.5 -106 h22l209 82q-17 81 -63 154t-118 132t-177.5 94t-229.5 35q-159 0 -287.5 -50t-218 -144.5t-137.5 -235t-48 -316.5z" />
<glyph unicode="D" horiz-adv-x="1527" d="M187 8q34 -4 67.5 -7t65.5 -5.5t63 -4t61 -2t59 -0.5q143 0 262 18.5t210.5 53t162 86.5t118.5 115t79 141.5t44.5 164t13.5 184.5q0 146 -25 255.5t-84 198t-155 144.5t-238 85.5t-334 29.5q-165 0 -370 -21v-1436zM475 197v1066q34 3 65.5 4.5t60.5 1.5 q65 0 120.5 -6.5t100.5 -19t82.5 -30t66 -41.5t50.5 -50.5t37.5 -60.5t26.5 -68t17 -75.5t8.5 -82t2.5 -88.5q0 -104 -15 -185.5t-52.5 -152t-98 -117t-153.5 -73t-216 -26.5q-49 0 -103 4z" />
<glyph unicode="E" horiz-adv-x="1335" d="M187 0h1011l8 204h-732v446h662v199h-662v409h701l13 198h-1001v-1456z" />
<glyph unicode="F" horiz-adv-x="1234" d="M187 0h288v624h630v197h-630v429h687l14 206h-989v-1456z" />
<glyph unicode="G" horiz-adv-x="1536" d="M134 732q0 -353 182 -552.5t515 -199.5q332 0 558 99v717h-551l-9 -184l316 -21v-365q-53 -19 -119.5 -30t-146.5 -11q-219 0 -331 133t-112 414q0 263 108.5 400.5t321.5 137.5q215 0 331 -186h22l175 119q-66 125 -205 199t-343 74q-333 0 -522.5 -197.5t-189.5 -546.5 z" />
<glyph unicode="H" horiz-adv-x="1568" d="M189 -3h288v650h614v-650h288v1459h-288v-608h-614v608h-288v-1459z" />
<glyph unicode="I" horiz-adv-x="1012" d="M155 -3h697v161h-203v1137h203v161h-697v-161h207v-1137h-207v-161z" />
<glyph unicode="J" horiz-adv-x="807" d="M41 -278l97 -219l128 53q85 35 140.5 65.5t94.5 72.5t59 75.5t30 101t12 120t2 159.5v1306h-287v-1301q0 -75 -1 -117t-5.5 -83.5t-11 -62t-21 -40.5t-32 -31.5t-46.5 -24.5z" />
<glyph unicode="K" horiz-adv-x="1386" d="M187 0h288v553l103 109l493 -662h322v13l-603 803l557 629v11h-315l-557 -627v627h-288v-1456z" />
<glyph unicode="L" horiz-adv-x="1154" d="M187 0h944l13 193h-669v1263h-288v-1456z" />
<glyph unicode="M" horiz-adv-x="1860" d="M168 -3h269v520l9 530l385 -842h193l390 836l8 -521v-523h270v556l-23 903h-301l-434 -925l-434 925h-309l-23 -907v-552z" />
<glyph unicode="N" horiz-adv-x="1581" d="M187 0h271v635l-16 407l665 -1042h287v1456h-266v-671l14 -397l-678 1068h-277v-1456z" />
<glyph unicode="O" horiz-adv-x="1641" d="M136 722q0 -353 176 -548t511 -195q334 0 508 195t174 548q0 356 -176.5 555t-505.5 199q-333 0 -510 -198.5t-177 -555.5zM438 721q0 257 96 399.5t289 142.5t286.5 -142t93.5 -400q0 -254 -92.5 -391.5t-288.5 -137.5t-290 138t-94 391z" />
<glyph unicode="P" horiz-adv-x="1382" d="M187 0h288v567q48 -4 92 -5.5t86 -1.5q149 0 261.5 22.5t185.5 62t118 100t63.5 130.5t18.5 160q0 56 -8 102t-26 87.5t-46 74.5t-68 60.5t-93 47t-120 33t-149.5 20t-181.5 6.5q-179 0 -421 -22v-1444zM475 757v513q23 2 44 3t41.5 2t39.5 1h37q82 0 144.5 -7.5 t105 -23.5t71 -37t44 -50.5t21.5 -60.5t6 -72q0 -52 -9.5 -91t-35.5 -75t-70.5 -58.5t-117 -36t-171.5 -13.5q-34 0 -71.5 1.5t-78.5 4.5z" />
<glyph unicode="Q" horiz-adv-x="1630" d="M136 722q0 -353 176 -548t511 -195q334 0 508 195t174 548q0 356 -176.5 555t-505.5 199q-333 0 -510 -198.5t-177 -555.5zM438 721q0 257 96 399.5t289 142.5t286.5 -142t93.5 -400q0 -254 -92.5 -391.5t-288.5 -137.5t-290 138t-94 391zM786 62q14 -44 185 -271 t235 -280l181 145q-57 49 -178.5 206.5t-170.5 234.5z" />
<glyph unicode="R" horiz-adv-x="1418" d="M187 0h288v634l250 1l322 -635h311v18l-347 654q289 82 289 381q0 59 -8 108t-25 90t-42.5 72.5t-62.5 56.5t-83.5 42t-106 28.5t-129 16.5t-154.5 5q-189 0 -502 -28v-1444zM475 815v448q135 12 227 12q183 0 259.5 -49.5t76.5 -170.5q0 -91 -30 -142t-103 -74.5 t-204 -23.5h-226z" />
<glyph unicode="S" horiz-adv-x="1225" d="M94 203q69 -93 200 -158t312 -65q85 0 160.5 15t141.5 48t113.5 81.5t75 119t27.5 156.5q0 55 -8.5 101t-22.5 82t-39 67t-52 54t-66.5 46t-77.5 40.5t-91 38.5l-188 76q-59 24 -92 41t-57.5 39.5t-33.5 48t-9 63.5q0 48 18.5 84t52 56t74 29.5t89.5 9.5q84 0 159.5 -37 t117.5 -106h19l177 115q-59 97 -184.5 162.5t-295.5 65.5h-4q-292 0 -421 -150q-85 -101 -85 -259q0 -46 7 -84t19 -69t32 -57.5t43 -47.5t54.5 -40.5t63.5 -35t74 -32.5l213 -87q58 -24 95 -42.5t65 -38.5t42.5 -41.5t21 -46.5t6.5 -59q0 -101 -65 -148t-177 -47 q-85 0 -170.5 42t-142.5 106h-23z" />
<glyph unicode="T" horiz-adv-x="1215" d="M24 1264h440v-1267h287v1267h440v192h-1167v-192z" />
<glyph unicode="U" horiz-adv-x="1492" d="M157 538q0 -263 147 -410.5t438 -147.5q290 0 440 149t150 407v921h-287v-905q0 -182 -74 -270.5t-229 -88.5q-154 0 -226 87.5t-72 270.5v906h-287v-919z" />
<glyph unicode="V" horiz-adv-x="1411" d="M42 1456l499 -1459h304l524 1459h-287l-298 -913l-85 -281q-41 140 -92 304t-92 292t-97 303.5t-93 294.5h-283z" />
<glyph unicode="W" horiz-adv-x="2013" d="M63 1456l368 -1456h265l313 1083l298 -1083h265l378 1456h-277l-243 -1089l-302 1072h-241l-303 -1062l-251 1079h-270z" />
<glyph unicode="X" horiz-adv-x="1356" d="M18 -3h296l352 530l352 -530h316l-491 738l474 721h-307l-317 -496l-330 496h-315l467 -703z" />
<glyph unicode="Y" horiz-adv-x="1356" d="M38 1456l497 -913v-543h287v544l496 912h-297l-344 -651l-347 651h-292z" />
<glyph unicode="Z" horiz-adv-x="1228" d="M100 0h1056l-4 193h-716l703 1091l-3 172h-1017l9 -192h698l-726 -1099v-165z" />
<glyph unicode="[" horiz-adv-x="823" d="M222 -252h455v168h-239v1396h239v168h-455v-1732z" />
<glyph unicode="\" horiz-adv-x="937" d="M95 1493l506 -1492h199l-504 1492h-201z" />
<glyph unicode="]" horiz-adv-x="965" d="M292 -84v-168h455v1732h-455v-168h239v-1396h-239z" />
<glyph unicode="^" horiz-adv-x="1399" d="M100 285h267l328 760l337 -760h267l-549 1171h-119z" />
<glyph unicode="_" horiz-adv-x="954" d="M0 -111v-164h954v164h-954z" />
<glyph unicode="`" horiz-adv-x="1004" d="M90 1600l324 -392h159l-185 392h-298z" />
<glyph unicode="a" horiz-adv-x="1141" d="M99 300q0 -154 92 -236t246 -82q115 0 196.5 36.5t145.5 106.5l25 -125h208v669q0 115 -32.5 200t-92.5 135.5t-137.5 74.5t-174.5 24q-240 0 -437 -110l59 -175q83 44 176 68.5t169 24.5q205 0 205 -201v-99l-188 2h-9q-99 0 -179.5 -18t-142.5 -54.5t-95.5 -98 t-33.5 -142.5zM344 303q0 89 65 129.5t194 40.5h5h138v-221q-95 -108 -245 -108q-67 0 -112 40t-45 119z" />
<glyph unicode="b" horiz-adv-x="1240" d="M146 0h233l11 126q29 -41 69 -72.5t100.5 -52.5t131.5 -21q217 0 335 154t118 412q0 122 -26.5 223t-78 176.5t-134 117t-189.5 41.5q-108 0 -187 -51t-123 -148l9 224v431l-269 -20v-1540zM411 270v292q0 360 250 360q108 0 158 -92.5t50 -283.5q0 -190 -58 -287 t-167 -97q-152 0 -233 108z" />
<glyph unicode="c" horiz-adv-x="1103" d="M96 542q0 -259 143 -410.5t385 -151.5q303 0 411 246l-166 90h-13q-29 -69 -84 -107.5t-135 -39.5q-123 0 -195.5 96t-72.5 277q0 91 19 162t54.5 117t84 70t108.5 24h2q80 0 135 -39.5t84 -108.5h13l166 91q-107 246 -411 246q-243 0 -385.5 -151.5t-142.5 -410.5z" />
<glyph unicode="d" horiz-adv-x="1235" d="M98 539q0 -275 134 -426q119 -133 315 -133h4q98 0 175 46.5t124 126.5l10 -153h238v1560l-271 -20v-395l4 -161q-101 119 -275 119h-1h-1h-2q-145 0 -248 -71t-154.5 -197.5t-51.5 -295.5zM371 540q0 383 237 383q146 0 221 -104v-550q-74 -106 -227 -106 q-231 0 -231 377z" />
<glyph unicode="e" horiz-adv-x="1167" d="M96 540q0 -257 152 -408.5t399 -151.5q122 0 227.5 33t172.5 88l-60 151h-15q-149 -90 -294 -90q-131 0 -214.5 78.5t-94.5 231.5h689q10 58 10 117q0 240 -113.5 377.5t-337.5 137.5q-231 0 -376 -152t-145 -412zM372 626q9 144 78 221t178 77q106 0 158.5 -74 t54.5 -224h-469z" />
<glyph unicode="f" horiz-adv-x="801" d="M51 925h168v-925h271v925h269v157h-269v78q0 102 37 139.5t131 37.5q50 0 120 -10l11 169q-92 23 -215 23q-66 0 -117 -9t-97 -33t-76 -63.5t-47.5 -103.5t-17.5 -150v-82l-163 -18z" />
<glyph unicode="g" horiz-adv-x="1232" d="M96 555q0 -349 195 -488q108 -77 258 -77h2q184 0 287 109l4 -82q1 -18 1 -35q0 -65 -14 -115.5t-39.5 -84.5t-64 -55.5t-84 -31t-102.5 -9.5h-3.5h-3.5q-135 0 -274 50h-26l-20 -184q156 -51 359 -51q252 0 386.5 128t134.5 391v1062h-253l-4 -101q-102 123 -275 123h-2 q-95 0 -177.5 -35t-146.5 -102t-101 -173t-37 -239zM369 555q0 190 65 278.5t175 88.5q74 0 125 -25.5t94 -78.5v-569q-36 -41 -95 -64t-126 -23q-117 0 -177.5 99t-60.5 294z" />
<glyph unicode="h" horiz-adv-x="1241" d="M152 0h271v608q0 145 59 229.5t180 84.5q93 0 133.5 -64.5t40.5 -213.5v-644h272v672q0 207 -90 319.5t-265 112.5q-241 0 -336 -225l6 274v407l-271 -20v-1540z" />
<glyph unicode="i" horiz-adv-x="608" d="M143 1445q0 -74 44.5 -117.5t122.5 -43.5t122.5 43.5t44.5 117.5q0 71 -44.5 113t-122.5 42t-122.5 -42t-44.5 -113zM171 0h271v1082h-271v-1082z" />
<glyph unicode="j" horiz-adv-x="641" d="M-38 -281l78 -200l75 25q81 25 133.5 47.5t102 56.5t76 77t42.5 106t16 147v1104h-271v-1071q0 -70 -4 -105.5t-22.5 -67.5t-51.5 -50.5t-95 -39.5zM182 1445q0 -74 44.5 -117.5t122.5 -43.5t122.5 43.5t44.5 117.5q0 71 -44.5 113t-122.5 42t-122.5 -42t-44.5 -113z" />
<glyph unicode="k" horiz-adv-x="1158" d="M152 0h271v412l84 78l356 -490h278v28l-434 574l410 459v21h-289l-410 -456l5 176v758l-271 -20v-1540z" />
<glyph unicode="l" horiz-adv-x="702" d="M151 336q0 -205 97 -281q82 -64 264 -65q18 0 37 1l83 2l13 178l-103 8q-74 5 -97 33t-23 109v1239l-271 -20v-1204z" />
<glyph unicode="m" horiz-adv-x="1873" d="M146 0h271v631q10 138 68.5 214.5t153.5 76.5q90 0 129.5 -70.5t39.5 -235.5v-616h271v654q6 118 74 193t150 75q93 0 129.5 -73t36.5 -214v-635h271v686q0 200 -92 309t-264 109q-123 0 -208.5 -60t-133.5 -167q-39 115 -123.5 171t-198.5 56q-115 0 -196.5 -56.5 t-128.5 -158.5l-18 193h-231v-1082z" />
<glyph unicode="n" horiz-adv-x="1236" d="M148 0h271v617q0 144 61.5 224.5t178.5 80.5q93 0 133 -66.5t40 -209.5v-646h271v662q0 213 -91 327.5t-271 114.5q-240 0 -342 -217l-20 195h-231v-1082z" />
<glyph unicode="o" horiz-adv-x="1230" d="M96 544q0 -256 138.5 -410.5t380.5 -154.5t380.5 154.5t138.5 410.5q0 255 -138 407.5t-381 152.5t-381 -152.5t-138 -407.5zM369 543q0 185 61.5 282t184.5 97t184.5 -97t61.5 -282q0 -183 -62 -282t-184 -99t-184 98.5t-62 282.5z" />
<glyph unicode="p" horiz-adv-x="1242" d="M148 -467h268v406l-5 158q103 -117 284 -117q142 0 244.5 72.5t153.5 199t51 293.5q0 166 -45.5 289.5t-143.5 196.5t-240 73q-121 0 -201 -60.5t-118 -164.5l-12 203h-236v-1549zM413 270v393q13 121 73.5 190t170.5 69q109 0 161.5 -93t52.5 -283q0 -384 -231 -384 q-146 0 -227 108z" />
<glyph unicode="q" horiz-adv-x="1234" d="M96 547q0 -169 50 -295.5t154 -199t251 -72.5h2q83 0 154 31.5t121 87.5l-4 -136v-430h268v1549h-236l-8 -147q-44 77 -118.5 123t-181.5 46q-214 0 -333 -153.5t-119 -403.5zM369 548q0 374 230 374q150 0 228 -118v-543q-74 -99 -220 -99q-238 0 -238 386z" />
<glyph unicode="r" horiz-adv-x="827" d="M143 0h271v611q0 122 80 197.5t209 75.5h8.5h9.5l49 -3l18 202q-51 9 -108 9q-88 0 -164.5 -50t-123.5 -159l-18 199h-231v-1082z" />
<glyph unicode="s" horiz-adv-x="993" d="M70 172q150 -192 455 -192q47 0 91 6.5t84.5 20t75 33t63 47t49 60.5t31.5 75t11 89q0 42 -5 73t-22 66t-46.5 63t-80.5 57.5t-123 56.5l-135 51q-81 29 -108 56t-27 68q0 37 17.5 62.5t53.5 39t89 13.5q68 0 128.5 -26.5t99.5 -75.5h13l127 112q-56 88 -159 132.5 t-239 44.5q-189 0 -298 -83t-109 -226q0 -56 13.5 -98.5t47 -81.5t90.5 -71t143 -61l116 -39q66 -23 102 -46t47 -44t11 -51q0 -67 -41 -103.5t-119 -36.5q-185 0 -294 132h-22z" />
<glyph unicode="t" horiz-adv-x="848" d="M47 924h166v-546q0 -73 5.5 -123.5t20.5 -97t42.5 -75t72 -50.5t108 -31.5t150.5 -9.5l157 4l9 180l-134 5q-103 4 -133 42t-30 149v553h288v158h-288v321l-238 -19l-23 -301l-167 -14z" />
<glyph unicode="u" horiz-adv-x="1235" d="M133 407q0 -207 97 -317t283 -110q116 0 196.5 45t132.5 123l14 -148h233v1082h-271v-805q-89 -116 -229 -116q-98 0 -141.5 64t-43.5 206v651h-271v-675z" />
<glyph unicode="v" horiz-adv-x="1091" d="M34 1082l381 -1082h271l374 1082h-272q-177 -611 -228 -790q-83 263 -249 790h-277z" />
<glyph unicode="w" horiz-adv-x="1522" d="M13 1082l277 -1085h241l242 826l211 -826h250l273 1085h-235l-164 -800l-210 800h-255l-217 -805l-162 805h-251z" />
<glyph unicode="x" horiz-adv-x="1078" d="M24 -3h260l245 354l234 -354h292l-366 550l352 535h-257l-225 -340l-226 340h-289l355 -536z" />
<glyph unicode="y" horiz-adv-x="1134" d="M5 1082l439 -983l-189 -457l221 -76l641 1516h-253l-286 -718l-303 718h-270z" />
<glyph unicode="z" horiz-adv-x="985" d="M84 0h826v178h-522l507 746v158h-799v-171h508l-520 -767v-144z" />
<glyph unicode="{" horiz-adv-x="911" d="M190 535q43 0 75.5 -5.5t55 -13.5t37.5 -26t23 -33.5t12 -45t5 -52.5t1 -64v-282q0 -78 17 -133t46.5 -88t80 -51.5t105 -24.5t134.5 -6v158q-56 1 -85.5 7t-51.5 26.5t-28.5 57t-6.5 101.5v292q0 118 -40.5 184.5t-158.5 88.5q62 12 102.5 36t61 61.5t28 78.5t7.5 98 v292q0 65 6.5 101.5t28.5 57t51.5 26.5t85.5 7v158q-80 0 -134.5 -6t-105 -24.5t-80 -51.5t-46.5 -88t-17 -133v-283q0 -32 -0.5 -50.5t-2.5 -43.5t-6 -39.5t-11.5 -32t-18 -27t-26 -20t-36 -15.5t-47.5 -8.5t-61 -3.5v-180z" />
<glyph unicode="|" horiz-adv-x="713" d="M267 -394h179v1870h-179v-1870z" />
<glyph unicode="}" horiz-adv-x="911" d="M145 -132v-158q80 0 134.5 6t105 24.5t80 51.5t46.5 88t17 133v282q0 41 1 64t5 52.5t12 45t23 33.5t37.5 26t55 13.5t75.5 5.5v180q-34 0 -61 3.5t-47.5 8.5t-36 15.5t-26 20t-18 27t-11.5 32t-6 39.5t-2.5 43.5t-0.5 50.5v283q0 78 -17 133t-46.5 88t-80 51.5 t-105 24.5t-134.5 6v-158q56 -1 85.5 -7t51.5 -26.5t28.5 -57t6.5 -101.5v-292q0 -57 7.5 -98t28 -78.5t61 -61.5t102.5 -36q-118 -22 -158.5 -88.5t-40.5 -184.5v-292q0 -65 -6.5 -101.5t-28.5 -57t-51.5 -26.5t-85.5 -7z" />
<glyph unicode="~" horiz-adv-x="1192" d="M93 610l70 -130q34 65 85.5 107t111.5 42q33 0 71 -10t66.5 -22t80.5 -36q76 -35 130.5 -52t112.5 -17q98 0 175 55.5t116 143.5l-70 122q-101 -142 -211 -142q-59 0 -217 70q-147 66 -246 66q-187 0 -275 -197z" />
<glyph unicode="&#xa1;" horiz-adv-x="740" d="M221 1033q0 -59 38.5 -101t101.5 -42t102 42t39 101t-39.5 102t-101.5 43t-101 -43t-39 -102zM249 -159v-189h223v189l-66 877h-99z" />
<glyph unicode="&#xa2;" horiz-adv-x="1103" d="M96 542q0 -259 143 -410.5t385 -151.5q303 0 411 246l-166 90h-13q-29 -69 -84 -107.5t-135 -39.5q-123 0 -195.5 96t-72.5 277q0 180 72 276.5t194 96.5h2q80 0 135 -39.5t84 -108.5h13l166 91q-107 246 -411 246q-243 0 -385.5 -151.5t-142.5 -410.5zM547 -303h126 l10 348h-132zM551 1047h127l10 329h-131z" />
<glyph unicode="&#xa3;" horiz-adv-x="1182" d="M79 674h180v-478l-175 -20l11 -176h977l9 198h-545v476h342v168h-342v157q0 148 56.5 224t162.5 76q59 0 109 -20t111 -60h20l90 167q-53 49 -149.5 90.5t-229.5 41.5q-447 0 -447 -550v-126h-180v-168z" />
<glyph unicode="&#xa4;" horiz-adv-x="1135" d="M53 1152l181 -178q-73 -110 -73 -240q0 -132 73 -241l-180 -176l89 -89l176 172q106 -85 250 -85q137 0 247 86l181 -174l84 91l-177 175q73 106 73 241q0 130 -74 240l179 176l-85 92l-181 -174q-109 87 -247 87q-137 0 -249 -86l-177 173zM292 734q0 120 79.5 205 t197.5 85q119 0 199 -85t80 -205q0 -121 -79 -205t-200 -84q-119 0 -198 84t-79 205z" />
<glyph unicode="&#xa5;" horiz-adv-x="1356" d="M38 1456l497 -913v-543h287v544l496 912h-297l-344 -651l-347 651h-292zM222 248h886v126h-886v-126zM222 522h886v126h-886v-126z" />
<glyph unicode="&#xa6;" horiz-adv-x="713" d="M260 -308h179v722h-179v-722zM260 786h179v720h-179v-720z" />
<glyph unicode="&#xa7;" horiz-adv-x="1049" d="M158 1207q0 -73 30 -129t95 -103q-118 -97 -118 -215q0 -97 58.5 -158.5t198.5 -114.5q103 -38 158.5 -68.5t73.5 -55.5t18 -57q0 -145 -167 -145q-77 0 -165 27t-160 66v-192q74 -38 161 -60t165 -22q83 0 150.5 19t120 58.5t81 107t28.5 158.5q0 133 -90 213 q95 93 95 220q0 103 -54.5 168t-199.5 119q-117 44 -170 72t-68.5 49.5t-15.5 57.5q0 113 169 113q133 0 255 -65l51 155q-149 90 -327 90q-60 0 -114 -10.5t-102 -34.5t-82.5 -59.5t-54.5 -87.5t-20 -116zM353 806q0 73 55 101q49 -20 148 -57q57 -22 91 -45.5t47.5 -47 t13.5 -52.5q0 -57 -36 -95q-86 34 -137 50q-113 46 -147.5 72.5t-34.5 73.5z" />
<glyph unicode="&#xa8;" horiz-adv-x="1020" d="M128 1390q0 -61 35 -97t98 -36q62 0 96.5 36t34.5 97q0 62 -34.5 99t-96.5 37q-64 0 -98.5 -37t-34.5 -99zM604 1390q0 -60 35.5 -96.5t98.5 -36.5q62 0 96.5 36t34.5 97q0 62 -34.5 99t-96.5 37q-64 0 -99 -37t-35 -99z" />
<glyph unicode="&#xa9;" horiz-adv-x="1752" d="M57 728q0 -169 63 -314.5t169 -243.5t245.5 -153.5t292.5 -55.5t294 55.5t248 153.5t171 243.5t64 314.5q0 136 -41.5 257.5t-114.5 213.5t-170.5 159.5t-213 102t-237.5 34.5q-153 0 -292.5 -55t-245.5 -153t-169 -243.5t-63 -315.5zM195 728q0 142 51.5 264t138.5 204 t201.5 128t240.5 46q101 0 195.5 -29t173.5 -85.5t138.5 -133.5t93 -178.5t33.5 -215.5q0 -142 -51.5 -263.5t-139 -204t-202.5 -129t-241 -46.5t-240.5 46.5t-201.5 129t-138.5 204t-51.5 263.5zM370 732q0 -112 39.5 -206t106 -154.5t152.5 -94t180 -33.5q155 0 283 80 l-41 108q-113 -65 -233 -65q-142 0 -234 97.5t-92 269.5q0 167 92 265t230 98q120 0 231 -69l46 109q-130 83 -286 83q-94 0 -179.5 -34t-151 -95t-104.5 -154.5t-39 -204.5z" />
<glyph unicode="&#xaa;" horiz-adv-x="1146" d="M151 868q0 -133 79.5 -204t212.5 -71q99 0 169.5 32t125.5 92l22 -108h179v578q0 99 -28 172.5t-79.5 117.5t-118.5 64.5t-151 20.5q-208 0 -378 -95l51 -151q72 38 152.5 59t145.5 21q177 0 177 -174v-85l-162 2h-8q-85 0 -154.5 -15.5t-123.5 -47.5t-82.5 -85 t-28.5 -123zM362 871q0 77 56.5 112t167.5 35h4h120v-191q-82 -94 -212 -94q-58 0 -97 35t-39 103z" />
<glyph unicode="&#xab;" horiz-adv-x="1024" d="M60 562l303 -424h174l-262 427l268 425h-177zM456 562l303 -424h174l-262 427l267 425h-177z" />
<glyph unicode="&#xac;" horiz-adv-x="1220" d="M99 654h810v-403h172v581h-982v-178z" />
<glyph unicode="&#xad;" horiz-adv-x="970" d="M153 292h658v188h-658v-188z" />
<glyph unicode="&#xae;" horiz-adv-x="1877" d="M146 729q0 -170 62.5 -315.5t168 -243.5t244 -153.5t289.5 -55.5q152 0 290.5 55.5t244 153.5t168.5 243.5t63 315.5q0 169 -63 314.5t-168.5 243.5t-244 153t-290.5 55q-151 0 -289.5 -55t-244 -153t-168 -243.5t-62.5 -314.5zM287 729q0 142 50.5 263.5t136 203.5 t199 128.5t237.5 46.5t238 -46.5t199.5 -128.5t136.5 -204t51 -263q0 -142 -51 -264t-136.5 -204.5t-199.5 -129t-238 -46.5t-237.5 46.5t-199 129t-136 204.5t-50.5 264zM615 309h145v405h139l219 -405h166q-228 406 -236 417q103 21 149.5 77.5t46.5 153.5q0 134 -81 187 t-252 53h-296v-888zM760 821v260h125q56 0 84 -1.5t59 -8t43.5 -20.5t21 -37.5t8.5 -61.5q0 -75 -44 -103t-151 -28h-146z" />
<glyph unicode="&#xaf;" horiz-adv-x="1091" d="M212 1296h649v127h-649v-127z" />
<glyph unicode="&#xb0;" horiz-adv-x="852" d="M118 1200q0 -128 86.5 -216t221.5 -88q136 0 222.5 89t86.5 215q0 127 -87 211.5t-222 84.5t-221.5 -84.5t-86.5 -211.5zM260 1199q0 76 49 123.5t118 47.5q68 0 116.5 -47.5t48.5 -123.5q0 -79 -48.5 -127t-117.5 -48t-117.5 48t-48.5 127z" />
<glyph unicode="&#xb1;" horiz-adv-x="1136" d="M105 0h934v164h-934v-164zM114 636h362v-361h186v361h360v180h-360v362h-186v-362h-362v-180z" />
<glyph unicode="&#xb2;" horiz-adv-x="815" d="M139 1358l71 -110q76 98 207 98q53 0 91 -37.5t38 -97.5q0 -51 -94 -176q-72 -80 -123.5 -127.5t-94.5 -82.5t-80 -72v-133h537l14 133h-314q55 52 96 86t88 81q130 133 130 295q0 126 -81.5 200.5t-191.5 74.5q-197 0 -293 -132z" />
<glyph unicode="&#xb3;" horiz-adv-x="880" d="M157 683q117 -80 277 -80q135 0 227 67.5t92 192.5q0 78 -43 136t-115 73q71 15 107 66.5t37 122.5q0 115 -77.5 170.5t-197.5 55.5q-83 0 -162.5 -23.5t-136.5 -66.5l54 -103q101 68 218 68q71 0 113.5 -29t42.5 -88q0 -57 -35 -86.5t-127 -29.5h-119v-122l117 2h3 q88 0 132 -37.5t44 -102.5q0 -68 -51 -104t-128 -36q-130 0 -215 73z" />
<glyph unicode="&#xb4;" horiz-adv-x="763" d="M344 1208h159l319 392h-293z" />
<glyph unicode="&#xb5;" horiz-adv-x="1221" d="M133 -308h271v299q50 -11 109 -11q216 0 329 168l14 -148h233v1082h-271v-805q-89 -116 -229 -116q-98 0 -141.5 64t-43.5 206v651h-271v-1390z" />
<glyph unicode="&#xb6;" horiz-adv-x="1196" d="M115 1083q0 -72 23.5 -135t70.5 -114.5t126.5 -81.5t182.5 -30v-952h154v1548h167v-1548h154v1686h-384q-136 0 -233 -26.5t-153.5 -77t-82 -117t-25.5 -152.5z" />
<glyph unicode="&#xb7;" horiz-adv-x="625" d="M173 644q0 -70 37.5 -106.5t101.5 -36.5t101.5 37t37.5 106q0 70 -37 106.5t-102 36.5t-102 -36.5t-37 -106.5z" />
<glyph unicode="&#xb8;" horiz-adv-x="722" d="M237 -376q81 -35 164 -35q110 0 181.5 55.5t71.5 150.5q0 54 -22 92t-59.5 56.5t-86.5 18.5q-53 0 -111 -22v-62q24 4 44 4q52 0 75 -23t23 -60q-2 -43 -37.5 -69t-92.5 -26q-17 0 -35 2.5t-38 7.5t-40 13z" />
<glyph unicode="&#xb9;" horiz-adv-x="870" d="M237 1218q30 6 164 76v-560h-152v-142h479v142h-152v739h-135q-25 -17 -95.5 -55.5t-108.5 -55.5v-144z" />
<glyph unicode="&#xba;" horiz-adv-x="965" d="M123 1115q0 -175 94.5 -287.5t262.5 -112.5q161 0 259 114.5t98 285.5q0 181 -92 292.5t-265 111.5q-168 0 -262.5 -113t-94.5 -291zM302 1115q0 126 45.5 190.5t132.5 64.5q91 0 138 -66t47 -192q0 -248 -185 -248q-178 0 -178 251z" />
<glyph unicode="&#xbb;" horiz-adv-x="1024" d="M73 138h176l305 428l-303 424h-173l262 -427zM462 138h174l307 428l-304 424h-171l258 -427z" />
<glyph unicode="&#xbc;" horiz-adv-x="1671" d="M110 1237q104 40 167 74v-568h-153v-146h456v146h-137v750h-136q-25 -18 -94.5 -56.5t-102.5 -52.5v-147zM336 0h183l956 1493h-179zM990 184h383v-184h153v184h108l5 129h-113v555h-163l-373 -558v-126zM1159 313l214 351v-351h-214z" />
<glyph unicode="&#xbd;" horiz-adv-x="1867" d="M138 1252q14 5 75.5 33t86.5 42v-600h-153v-130h471v130h-141v767h-136q-58 -42 -203 -110v-132zM389 0h173l951 1494h-174zM1157 717l91 -98q41 54 98 84t116 30q57 0 95 -32.5t38 -89.5q0 -46 -26 -93.5t-87 -109.5l-281 -278l18 -130h536l6 135h-353l182 165 q95 85 136.5 157.5t41.5 153.5q0 117 -78 192.5t-223 75.5q-98 0 -180 -46t-130 -116z" />
<glyph unicode="&#xbe;" horiz-adv-x="1734" d="M108 657q116 -73 258 -73q86 0 156 28t115 90.5t45 149.5q0 75 -42 132.5t-117 75.5q72 15 105.5 70.5t34.5 121.5q0 111 -77.5 167t-194.5 56q-157 0 -279 -83l55 -110q105 60 202 60q63 0 100.5 -28t37.5 -83t-34.5 -83.5t-117.5 -28.5h-108v-131l108 1h4 q168 0 168 -135q0 -68 -46 -102t-118 -34q-109 0 -201 63zM419 0h183l955 1493h-178zM1068 184h383v-184h154v184h107l6 129h-113v555h-164l-373 -558v-126zM1237 313l214 351v-351h-214z" />
<glyph unicode="&#xbf;" horiz-adv-x="999" d="M80 49q0 -112 54.5 -192.5t139.5 -117.5t190 -37q95 0 189.5 31t159.5 90l-62 191q-134 -80 -246 -80q-19 0 -36.5 2.5t-32.5 7.5t-28 12t-23.5 16t-19 20.5t-15 24.5t-10.5 28.5t-6 32t-2 34.5q0 49 20.5 100.5t53.5 105.5t68.5 112.5t71 143.5t55.5 178l-80 15 q-41 -89 -104 -167t-118.5 -131.5t-106.5 -111.5t-81.5 -134.5t-30.5 -173.5zM423 1098q0 -61 36 -100t101 -39q66 0 103 39t37 100t-37 100.5t-103 39.5q-65 0 -101 -39t-36 -101z" />
<glyph unicode="&#xc0;" horiz-adv-x="1465" d="M58 0h288l140 408h503l144 -408h288l-512 1456h-338zM313 1983l324 -392h159l-185 392h-298zM544 590l195 621l196 -621h-391z" />
<glyph unicode="&#xc1;" horiz-adv-x="1465" d="M58 0h288l140 408h503l144 -408h288l-512 1456h-338zM544 590l195 621l196 -621h-391zM658 1591h159l319 392h-293z" />
<glyph unicode="&#xc2;" horiz-adv-x="1465" d="M58 0h288l140 408h503l144 -408h288l-512 1456h-338zM408 1652h215l114 219l115 -219h214l-204 372h-249zM544 590l195 621l196 -621h-391z" />
<glyph unicode="&#xc3;" horiz-adv-x="1465" d="M58 0h288l140 408h503l144 -408h288l-512 1456h-338zM409 1657h118q18 100 72 100q28 0 77.5 -25t106 -50t103.5 -25q88 0 132 69.5t44 172.5h-119q-9 -46 -23.5 -65t-38.5 -19q-23 0 -66.5 21t-101.5 42.5t-115 21.5q-95 0 -142 -68.5t-47 -174.5zM544 590l195 621 l196 -621h-391z" />
<glyph unicode="&#xc4;" horiz-adv-x="1465" d="M58 0h288l140 408h503l144 -408h288l-512 1456h-338zM362 1764q0 -61 35 -97t98 -36q62 0 96.5 36t34.5 97q0 62 -34.5 99t-96.5 37q-64 0 -98.5 -37t-34.5 -99zM544 590l195 621l196 -621h-391zM838 1764q0 -60 35.5 -96.5t98.5 -36.5q62 0 96.5 36t34.5 97 q0 62 -34.5 99t-96.5 37q-64 0 -99 -37t-35 -99z" />
<glyph unicode="&#xc5;" horiz-adv-x="1465" d="M58 0h288l140 408h503l144 -408h288l-512 1456h-338zM531 1783q0 -85 58 -145t151 -60q94 0 153 60t59 145q0 84 -58.5 143t-153.5 59q-94 0 -151.5 -58.5t-57.5 -143.5zM544 590l195 621l196 -621h-391zM647 1781q0 42 25.5 73t67.5 31q43 0 69.5 -31t26.5 -73 q0 -43 -26.5 -73.5t-69.5 -30.5q-44 0 -68.5 29.5t-24.5 74.5z" />
<glyph unicode="&#xc6;" horiz-adv-x="1826" d="M-41 0h289l225 410h400v-410h862l11 198h-638v454h566v194h-566v418h605l13 192h-931zM558 587l315 583v-583h-315z" />
<glyph unicode="&#xc7;" horiz-adv-x="1519" d="M134 731q0 -376 205 -575q182 -176 486 -176q102 0 191 23t155 62t117 92t82 112.5t45 124.5l-209 82h-22q-14 -58 -43.5 -109t-72.5 -92t-103.5 -65t-130.5 -24q-90 0 -162 32t-125 97.5t-82 170.5t-29 245q0 539 415 539q65 0 122 -25t98 -66.5t69.5 -92.5t41.5 -106 h22l209 82q-17 81 -63 154t-118 132t-177.5 94t-229.5 35q-159 0 -287.5 -50t-218 -144.5t-137.5 -235t-48 -316.5zM635 -394q81 -35 164 -35q110 0 181.5 55.5t71.5 150.5q0 54 -22 92t-59.5 56.5t-86.5 18.5q-53 0 -111 -22v-62q24 4 44 4q52 0 75 -23t23 -60 q-2 -43 -37.5 -69t-92.5 -26q-17 0 -35 2.5t-38 7.5t-40 13z" />
<glyph unicode="&#xc8;" horiz-adv-x="1293" d="M187 0h1011l8 204h-732v446h662v199h-662v409h701l13 198h-1001v-1456zM216 1983l324 -392h159l-185 392h-298z" />
<glyph unicode="&#xc9;" horiz-adv-x="1293" d="M187 0h1011l8 204h-732v446h662v199h-662v409h701l13 198h-1001v-1456zM562 1591h159l319 392h-293z" />
<glyph unicode="&#xca;" horiz-adv-x="1293" d="M187 0h1011l8 204h-732v446h662v199h-662v409h701l13 198h-1001v-1456zM312 1652h215l114 219l115 -219h214l-204 372h-249z" />
<glyph unicode="&#xcb;" horiz-adv-x="1293" d="M187 0h1011l8 204h-732v446h662v199h-662v409h701l13 198h-1001v-1456zM265 1764q0 -61 35 -97t98 -36q62 0 96.5 36t34.5 97q0 62 -34.5 99t-96.5 37q-64 0 -98.5 -37t-34.5 -99zM741 1764q0 -60 35.5 -96.5t98.5 -36.5q62 0 96.5 36t34.5 97q0 62 -34.5 99t-96.5 37 q-64 0 -99 -37t-35 -99z" />
<glyph unicode="&#xcc;" horiz-adv-x="962" d="M70 1983l324 -392h159l-185 392h-298zM155 -3h697v161h-203v1137h203v161h-697v-161h207v-1137h-207v-161z" />
<glyph unicode="&#xcd;" horiz-adv-x="962" d="M155 -3h697v161h-203v1137h203v161h-697v-161h207v-1137h-207v-161zM415 1591h159l319 392h-293z" />
<glyph unicode="&#xce;" horiz-adv-x="962" d="M155 -3h697v161h-203v1137h203v161h-697v-161h207v-1137h-207v-161zM166 1652h215l114 219l115 -219h214l-204 372h-249z" />
<glyph unicode="&#xcf;" horiz-adv-x="962" d="M119 1764q0 -61 35 -97t98 -36q62 0 96.5 36t34.5 97q0 62 -34.5 99t-96.5 37q-64 0 -98.5 -37t-34.5 -99zM155 -3h697v161h-203v1137h203v161h-697v-161h207v-1137h-207v-161zM595 1764q0 -60 35.5 -96.5t98.5 -36.5q62 0 96.5 36t34.5 97q0 62 -34.5 99t-96.5 37 q-64 0 -99 -37t-35 -99z" />
<glyph unicode="&#xd0;" horiz-adv-x="1527" d="M55 667h595v182h-595v-182zM187 8q34 -4 67.5 -7t65.5 -5.5t63 -4t61 -2t59 -0.5q143 0 262 18.5t210.5 53t162 86.5t118.5 115t79 141.5t44.5 164t13.5 184.5q0 146 -25 255.5t-84 198t-155 144.5t-238 85.5t-334 29.5q-165 0 -370 -21v-1436zM475 197v1066 q34 3 65.5 4.5t60.5 1.5q65 0 120.5 -6.5t100.5 -19t82.5 -30t66 -41.5t50.5 -50.5t37.5 -60.5t26.5 -68t17 -75.5t8.5 -82t2.5 -88.5q0 -104 -15 -185.5t-52.5 -152t-98 -117t-153.5 -73t-216 -26.5q-49 0 -103 4z" />
<glyph unicode="&#xd1;" horiz-adv-x="1617" d="M187 0h271v635l-16 407l665 -1042h287v1456h-266v-671l14 -397l-678 1068h-277v-1456zM433 1657h118q18 100 72 100q28 0 77.5 -25t106 -50t103.5 -25q88 0 132 69.5t44 172.5h-119q-9 -46 -23.5 -65t-38.5 -19q-23 0 -66.5 21t-101.5 42.5t-115 21.5q-95 0 -142 -68.5 t-47 -174.5z" />
<glyph unicode="&#xd2;" horiz-adv-x="1659" d="M136 722q0 -353 176 -548t511 -195q334 0 508 195t174 548q0 356 -176.5 555t-505.5 199q-333 0 -510 -198.5t-177 -555.5zM396 1983l324 -392h159l-185 392h-298zM438 721q0 257 96 399.5t289 142.5t286.5 -142t93.5 -400q0 -254 -92.5 -391.5t-288.5 -137.5t-290 138 t-94 391z" />
<glyph unicode="&#xd3;" horiz-adv-x="1659" d="M136 722q0 -353 176 -548t511 -195q334 0 508 195t174 548q0 356 -176.5 555t-505.5 199q-333 0 -510 -198.5t-177 -555.5zM438 721q0 257 96 399.5t289 142.5t286.5 -142t93.5 -400q0 -254 -92.5 -391.5t-288.5 -137.5t-290 138t-94 391zM741 1591h159l319 392h-293z " />
<glyph unicode="&#xd4;" horiz-adv-x="1659" d="M136 722q0 -353 176 -548t511 -195q334 0 508 195t174 548q0 356 -176.5 555t-505.5 199q-333 0 -510 -198.5t-177 -555.5zM438 721q0 257 96 399.5t289 142.5t286.5 -142t93.5 -400q0 -254 -92.5 -391.5t-288.5 -137.5t-290 138t-94 391zM491 1652h215l114 219l115 -219 h214l-204 372h-249z" />
<glyph unicode="&#xd5;" horiz-adv-x="1659" d="M136 722q0 -353 176 -548t511 -195q334 0 508 195t174 548q0 356 -176.5 555t-505.5 199q-333 0 -510 -198.5t-177 -555.5zM438 721q0 257 96 399.5t289 142.5t286.5 -142t93.5 -400q0 -254 -92.5 -391.5t-288.5 -137.5t-290 138t-94 391zM493 1657h118q18 100 72 100 q28 0 77.5 -25t106 -50t103.5 -25q88 0 132 69.5t44 172.5h-119q-9 -46 -23.5 -65t-38.5 -19q-23 0 -66.5 21t-101.5 42.5t-115 21.5q-95 0 -142 -68.5t-47 -174.5z" />
<glyph unicode="&#xd6;" horiz-adv-x="1659" d="M136 722q0 -353 176 -548t511 -195q334 0 508 195t174 548q0 356 -176.5 555t-505.5 199q-333 0 -510 -198.5t-177 -555.5zM438 721q0 257 96 399.5t289 142.5t286.5 -142t93.5 -400q0 -254 -92.5 -391.5t-288.5 -137.5t-290 138t-94 391zM445 1764q0 -61 35 -97t98 -36 q62 0 96.5 36t34.5 97q0 62 -34.5 99t-96.5 37q-64 0 -98.5 -37t-34.5 -99zM921 1764q0 -60 35.5 -96.5t98.5 -36.5q62 0 96.5 36t34.5 97q0 62 -34.5 99t-96.5 37q-64 0 -99 -37t-35 -99z" />
<glyph unicode="&#xd7;" horiz-adv-x="994" d="M99 292l119 -129l281 293l278 -292l119 130q-225 240 -275 291l273 292l-122 126l-273 -289l-277 291l-119 -127l272 -293z" />
<glyph unicode="&#xd8;" horiz-adv-x="1643" d="M136 722q0 -257 93.5 -431.5t275.5 -252.5l-94 -248l120 -44l97 252q88 -19 195 -19q334 0 508 195t174 548q0 247 -86.5 421.5t-253.5 258.5l100 261l-126 48l-100 -262q-97 27 -216 27q-333 0 -510 -198.5t-177 -555.5zM438 721q0 257 96 399.5t289 142.5q76 0 137 -23 l-365 -965q-157 119 -157 446zM708 207l364 952q131 -131 131 -438q0 -254 -92.5 -391.5t-288.5 -137.5q-63 0 -114 15z" />
<glyph unicode="&#xd9;" horiz-adv-x="1510" d="M157 538q0 -263 147 -410.5t438 -147.5q290 0 440 149t150 407v921h-287v-905q0 -182 -74 -270.5t-229 -88.5q-154 0 -226 87.5t-72 270.5v906h-287v-919zM329 1983l324 -392h159l-185 392h-298z" />
<glyph unicode="&#xda;" horiz-adv-x="1510" d="M157 538q0 -263 147 -410.5t438 -147.5q290 0 440 149t150 407v921h-287v-905q0 -182 -74 -270.5t-229 -88.5q-154 0 -226 87.5t-72 270.5v906h-287v-919zM674 1591h159l319 392h-293z" />
<glyph unicode="&#xdb;" horiz-adv-x="1510" d="M157 538q0 -263 147 -410.5t438 -147.5q290 0 440 149t150 407v921h-287v-905q0 -182 -74 -270.5t-229 -88.5q-154 0 -226 87.5t-72 270.5v906h-287v-919zM424 1652h215l114 219l115 -219h214l-204 372h-249z" />
<glyph unicode="&#xdc;" horiz-adv-x="1510" d="M157 538q0 -263 147 -410.5t438 -147.5q290 0 440 149t150 407v921h-287v-905q0 -182 -74 -270.5t-229 -88.5q-154 0 -226 87.5t-72 270.5v906h-287v-919zM378 1764q0 -61 35 -97t98 -36q62 0 96.5 36t34.5 97q0 62 -34.5 99t-96.5 37q-64 0 -98.5 -37t-34.5 -99z M854 1764q0 -60 35.5 -96.5t98.5 -36.5q62 0 96.5 36t34.5 97q0 62 -34.5 99t-96.5 37q-64 0 -99 -37t-35 -99z" />
<glyph unicode="&#xdd;" horiz-adv-x="1301" d="M38 1456l497 -913v-543h287v544l496 912h-297l-344 -651l-347 651h-292zM572 1591h159l319 392h-293z" />
<glyph unicode="&#xde;" horiz-adv-x="1333" d="M180 0h288v385h160q161 0 273.5 28.5t180.5 87t98.5 139.5t30.5 193q0 211 -144.5 302.5t-462.5 91.5h-136v249h-288v-1476zM468 578v460h147h2.5h2.5q90 0 150 -12.5t96 -40t51 -66.5t15 -97q0 -85 -28 -136t-102.5 -79.5t-204.5 -28.5h-129z" />
<glyph unicode="&#xdf;" horiz-adv-x="1311" d="M143 0h271v1017q0 151 57.5 225.5t176.5 74.5q82 0 127 -38t45 -109q0 -51 -19 -96t-46 -78.5t-54.5 -66.5t-46.5 -75t-19 -89q0 -39 18 -75.5t46.5 -64.5t63.5 -55.5t70 -55.5t63.5 -56.5t46.5 -65.5t18 -77q0 -66 -38 -104t-109 -38q-58 0 -120 17.5t-101 39.5 l-56 -176q173 -74 345 -74q176 0 268 87t92 245q0 63 -21 119.5t-55 97t-75 75.5t-82.5 61t-75.5 47.5t-55 41t-21 35.5q0 18 22 43.5t53.5 56.5t63 69t53.5 94.5t22 118.5q0 160 -121.5 250.5t-315.5 90.5q-227 0 -359 -127t-132 -347v-1038z" />
<glyph unicode="&#xe0;" horiz-adv-x="1146" d="M99 300q0 -154 92 -236t246 -82q115 0 196.5 36.5t145.5 106.5l25 -125h208v669q0 115 -32.5 200t-92.5 135.5t-137.5 74.5t-174.5 24q-240 0 -437 -110l59 -175q83 44 176 68.5t169 24.5q205 0 205 -201v-99l-188 2h-9q-99 0 -179.5 -18t-142.5 -54.5t-95.5 -98 t-33.5 -142.5zM123 1608l324 -392h159l-185 392h-298zM344 303q0 89 65 129.5t194 40.5h5h138v-221q-95 -108 -245 -108q-67 0 -112 40t-45 119z" />
<glyph unicode="&#xe1;" horiz-adv-x="1146" d="M99 300q0 -154 92 -236t246 -82q115 0 196.5 36.5t145.5 106.5l25 -125h208v669q0 115 -32.5 200t-92.5 135.5t-137.5 74.5t-174.5 24q-240 0 -437 -110l59 -175q83 44 176 68.5t169 24.5q205 0 205 -201v-99l-188 2h-9q-99 0 -179.5 -18t-142.5 -54.5t-95.5 -98 t-33.5 -142.5zM344 303q0 89 65 129.5t194 40.5h5h138v-221q-95 -108 -245 -108q-67 0 -112 40t-45 119zM468 1216h159l319 392h-293z" />
<glyph unicode="&#xe2;" horiz-adv-x="1146" d="M99 300q0 -154 92 -236t246 -82q115 0 196.5 36.5t145.5 106.5l25 -125h208v669q0 115 -32.5 200t-92.5 135.5t-137.5 74.5t-174.5 24q-240 0 -437 -110l59 -175q83 44 176 68.5t169 24.5q205 0 205 -201v-99l-188 2h-9q-99 0 -179.5 -18t-142.5 -54.5t-95.5 -98 t-33.5 -142.5zM218 1277h215l114 219l115 -219h214l-204 372h-249zM344 303q0 89 65 129.5t194 40.5h5h138v-221q-95 -108 -245 -108q-67 0 -112 40t-45 119z" />
<glyph unicode="&#xe3;" horiz-adv-x="1146" d="M99 300q0 -154 92 -236t246 -82q115 0 196.5 36.5t145.5 106.5l25 -125h208v669q0 115 -32.5 200t-92.5 135.5t-137.5 74.5t-174.5 24q-240 0 -437 -110l59 -175q83 44 176 68.5t169 24.5q205 0 205 -201v-99l-188 2h-9q-99 0 -179.5 -18t-142.5 -54.5t-95.5 -98 t-33.5 -142.5zM220 1282h118q18 100 72 100q28 0 77.5 -25t106 -50t103.5 -25q88 0 132 69.5t44 172.5h-119q-9 -46 -23.5 -65t-38.5 -19q-23 0 -66.5 21t-101.5 42.5t-115 21.5q-95 0 -142 -68.5t-47 -174.5zM344 303q0 89 65 129.5t194 40.5h5h138v-221 q-95 -108 -245 -108q-67 0 -112 40t-45 119z" />
<glyph unicode="&#xe4;" horiz-adv-x="1146" d="M99 300q0 -154 92 -236t246 -82q115 0 196.5 36.5t145.5 106.5l25 -125h208v669q0 115 -32.5 200t-92.5 135.5t-137.5 74.5t-174.5 24q-240 0 -437 -110l59 -175q83 44 176 68.5t169 24.5q205 0 205 -201v-99l-188 2h-9q-99 0 -179.5 -18t-142.5 -54.5t-95.5 -98 t-33.5 -142.5zM172 1389q0 -61 35 -97t98 -36q62 0 96.5 36t34.5 97q0 62 -34.5 99t-96.5 37q-64 0 -98.5 -37t-34.5 -99zM344 303q0 89 65 129.5t194 40.5h5h138v-221q-95 -108 -245 -108q-67 0 -112 40t-45 119zM648 1389q0 -60 35.5 -96.5t98.5 -36.5q62 0 96.5 36 t34.5 97q0 62 -34.5 99t-96.5 37q-64 0 -99 -37t-35 -99z" />
<glyph unicode="&#xe5;" horiz-adv-x="1146" d="M99 300q0 -154 92 -236t246 -82q115 0 196.5 36.5t145.5 106.5l25 -125h208v669q0 115 -32.5 200t-92.5 135.5t-137.5 74.5t-174.5 24q-240 0 -437 -110l59 -175q83 44 176 68.5t169 24.5q205 0 205 -201v-99l-188 2h-9q-99 0 -179.5 -18t-142.5 -54.5t-95.5 -98 t-33.5 -142.5zM342 1408q0 -85 58 -145t151 -60q94 0 153 60t59 145q0 84 -58.5 143t-153.5 59q-94 0 -151.5 -58.5t-57.5 -143.5zM344 303q0 89 65 129.5t194 40.5h5h138v-221q-95 -108 -245 -108q-67 0 -112 40t-45 119zM458 1406q0 42 25.5 73t67.5 31q43 0 69.5 -31 t26.5 -73q0 -43 -26.5 -73.5t-69.5 -30.5q-44 0 -68.5 29.5t-24.5 74.5z" />
<glyph unicode="&#xe6;" horiz-adv-x="1705" d="M65 300q0 -154 90 -234.5t244 -83.5q144 0 256.5 46.5t175.5 144.5q60 -93 155.5 -143t242.5 -50q123 0 228 33t172 88l-54 156q-159 -95 -314 -95q-48 0 -87 7.5t-76.5 27t-65 51.5t-46.5 84t-25 121q74 -2 133 -2q101 0 177.5 7t146.5 26.5t114.5 52t71 86t26.5 125.5 q0 44 -10.5 86.5t-31.5 82.5t-54.5 73.5t-76.5 58.5t-101.5 39t-125.5 14q-247 0 -358 -185q-29 92 -114.5 138t-215.5 46q-228 0 -448 -126l69 -162q182 96 350 96q103 0 156 -47.5t53 -153.5v-87q-62 7 -209 7h-4q-99 0 -179.5 -20t-140 -59.5t-92 -103t-32.5 -145.5z M311 301q0 94 61 141t190 47q95 0 162 -8q0 -19 6.5 -83.5t13.5 -78.5q-11 -76 -83.5 -126t-184.5 -50q-24 0 -47 5t-44.5 17t-37.5 30t-26 45.5t-10 60.5zM963 611q10 158 84.5 236.5t187.5 78.5q44 0 78 -9t56.5 -24.5t36.5 -37t20 -45t6 -50.5q0 -23 -4 -40t-15.5 -36 t-34.5 -31.5t-59 -23.5t-91.5 -16.5t-128.5 -5.5q-61 0 -136 4z" />
<glyph unicode="&#xe7;" horiz-adv-x="1120" d="M96 542q0 -259 143 -410.5t385 -151.5q303 0 411 246l-166 90h-13q-29 -69 -84 -107.5t-135 -39.5q-123 0 -195.5 96t-72.5 277q0 91 19 162t54.5 117t84 70t108.5 24h2q80 0 135 -39.5t84 -108.5h13l166 91q-107 246 -411 246q-243 0 -385.5 -151.5t-142.5 -410.5z M403 -393q81 -35 164 -35q110 0 181.5 55.5t71.5 150.5q0 54 -22 92t-59.5 56.5t-86.5 18.5q-53 0 -111 -22v-62q24 4 44 4q52 0 75 -23t23 -60q-2 -43 -37.5 -69t-92.5 -26q-17 0 -35 2.5t-38 7.5t-40 13z" />
<glyph unicode="&#xe8;" horiz-adv-x="1183" d="M96 540q0 -257 152 -408.5t399 -151.5q122 0 227.5 33t172.5 88l-60 151h-15q-149 -90 -294 -90q-131 0 -214.5 78.5t-94.5 231.5h689q10 58 10 117q0 240 -113.5 377.5t-337.5 137.5q-231 0 -376 -152t-145 -412zM187 1609l324 -392h159l-185 392h-298zM372 626 q9 144 78 221t178 77q106 0 158.5 -74t54.5 -224h-469z" />
<glyph unicode="&#xe9;" horiz-adv-x="1183" d="M96 540q0 -257 152 -408.5t399 -151.5q122 0 227.5 33t172.5 88l-60 151h-15q-149 -90 -294 -90q-131 0 -214.5 78.5t-94.5 231.5h689q10 58 10 117q0 240 -113.5 377.5t-337.5 137.5q-231 0 -376 -152t-145 -412zM372 626q9 144 78 221t178 77q106 0 158.5 -74 t54.5 -224h-469zM532 1217h159l319 392h-293z" />
<glyph unicode="&#xea;" horiz-adv-x="1183" d="M96 540q0 -257 152 -408.5t399 -151.5q122 0 227.5 33t172.5 88l-60 151h-15q-149 -90 -294 -90q-131 0 -214.5 78.5t-94.5 231.5h689q10 58 10 117q0 240 -113.5 377.5t-337.5 137.5q-231 0 -376 -152t-145 -412zM282 1278h215l114 219l115 -219h214l-204 372h-249z M372 626q9 144 78 221t178 77q106 0 158.5 -74t54.5 -224h-469z" />
<glyph unicode="&#xeb;" horiz-adv-x="1183" d="M96 540q0 -257 152 -408.5t399 -151.5q122 0 227.5 33t172.5 88l-60 151h-15q-149 -90 -294 -90q-131 0 -214.5 78.5t-94.5 231.5h689q10 58 10 117q0 240 -113.5 377.5t-337.5 137.5q-231 0 -376 -152t-145 -412zM236 1390q0 -61 35 -97t98 -36q62 0 96.5 36t34.5 97 q0 62 -34.5 99t-96.5 37q-64 0 -98.5 -37t-34.5 -99zM372 626q9 144 78 221t178 77q106 0 158.5 -74t54.5 -224h-469zM712 1390q0 -60 35.5 -96.5t98.5 -36.5q62 0 96.5 36t34.5 97q0 62 -34.5 99t-96.5 37q-64 0 -99 -37t-35 -99z" />
<glyph unicode="&#xec;" horiz-adv-x="576" d="M-130 1609l324 -392h159l-185 392h-298zM158 0h271v1082h-271v-1082z" />
<glyph unicode="&#xed;" horiz-adv-x="576" d="M158 0h271v1082h-271v-1082zM215 1217h159l319 392h-293z" />
<glyph unicode="&#xee;" horiz-adv-x="576" d="M-35 1278h215l114 219l115 -219h214l-204 372h-249zM158 0h271v1082h-271v-1082z" />
<glyph unicode="&#xef;" horiz-adv-x="576" d="M-81 1390q0 -61 35 -97t98 -36q62 0 96.5 36t34.5 97q0 62 -34.5 99t-96.5 37q-64 0 -98.5 -37t-34.5 -99zM158 0h271v1082h-271v-1082zM395 1390q0 -60 35.5 -96.5t98.5 -36.5q62 0 96.5 36t34.5 97q0 62 -34.5 99t-96.5 37q-64 0 -99 -37t-35 -99z" />
<glyph unicode="&#xf0;" horiz-adv-x="1191" d="M79 482q0 -218 141.5 -361t375.5 -143q241 0 377 135.5t136 364.5q-1 213 -96 381q-50 90 -122 180.5t-198 232.5l223 89l-61 156l-274 -111l-127 128h-263l208 -205l-192 -79l58 -155l248 99q71 -71 139.5 -152.5t103.5 -136.5q-105 57 -194 57q-215 0 -349 -132.5 t-134 -347.5zM295 483q0 143 79.5 229t221.5 86q144 0 226.5 -89t82.5 -225q0 -150 -79 -237.5t-224 -87.5t-226 92.5t-81 231.5z" />
<glyph unicode="&#xf1;" horiz-adv-x="1238" d="M148 0h271v617q0 144 61.5 224.5t178.5 80.5q93 0 133 -66.5t40 -209.5v-646h271v662q0 213 -91 327.5t-271 114.5q-240 0 -342 -217l-20 195h-231v-1082zM353 1274h118q18 100 72 100q28 0 77.5 -25t106 -50t103.5 -25q88 0 132 69.5t44 172.5h-119q-9 -46 -23.5 -65 t-38.5 -19q-23 0 -66.5 21t-101.5 42.5t-115 21.5q-95 0 -142 -68.5t-47 -174.5z" />
<glyph unicode="&#xf2;" horiz-adv-x="1241" d="M96 544q0 -256 138.5 -410.5t380.5 -154.5t380.5 154.5t138.5 410.5q0 255 -138 407.5t-381 152.5t-381 -152.5t-138 -407.5zM196 1609l324 -392h159l-185 392h-298zM369 543q0 185 61.5 282t184.5 97t184.5 -97t61.5 -282q0 -183 -62 -282t-184 -99t-184 98.5t-62 282.5 z" />
<glyph unicode="&#xf3;" horiz-adv-x="1241" d="M96 544q0 -256 138.5 -410.5t380.5 -154.5t380.5 154.5t138.5 410.5q0 255 -138 407.5t-381 152.5t-381 -152.5t-138 -407.5zM369 543q0 185 61.5 282t184.5 97t184.5 -97t61.5 -282q0 -183 -62 -282t-184 -99t-184 98.5t-62 282.5zM541 1217h159l319 392h-293z" />
<glyph unicode="&#xf4;" horiz-adv-x="1241" d="M96 544q0 -256 138.5 -410.5t380.5 -154.5t380.5 154.5t138.5 410.5q0 255 -138 407.5t-381 152.5t-381 -152.5t-138 -407.5zM292 1278h215l114 219l115 -219h214l-204 372h-249zM369 543q0 185 61.5 282t184.5 97t184.5 -97t61.5 -282q0 -183 -62 -282t-184 -99 t-184 98.5t-62 282.5z" />
<glyph unicode="&#xf5;" horiz-adv-x="1241" d="M96 544q0 -256 138.5 -410.5t380.5 -154.5t380.5 154.5t138.5 410.5q0 255 -138 407.5t-381 152.5t-381 -152.5t-138 -407.5zM293 1283h118q18 100 72 100q28 0 77.5 -25t106 -50t103.5 -25q88 0 132 69.5t44 172.5h-119q-9 -46 -23.5 -65t-38.5 -19q-23 0 -66.5 21 t-101.5 42.5t-115 21.5q-95 0 -142 -68.5t-47 -174.5zM369 543q0 185 61.5 282t184.5 97t184.5 -97t61.5 -282q0 -183 -62 -282t-184 -99t-184 98.5t-62 282.5z" />
<glyph unicode="&#xf6;" horiz-adv-x="1241" d="M96 544q0 -256 138.5 -410.5t380.5 -154.5t380.5 154.5t138.5 410.5q0 255 -138 407.5t-381 152.5t-381 -152.5t-138 -407.5zM245 1390q0 -61 35 -97t98 -36q62 0 96.5 36t34.5 97q0 62 -34.5 99t-96.5 37q-64 0 -98.5 -37t-34.5 -99zM369 543q0 185 61.5 282t184.5 97 t184.5 -97t61.5 -282q0 -183 -62 -282t-184 -99t-184 98.5t-62 282.5zM721 1390q0 -60 35.5 -96.5t98.5 -36.5q62 0 96.5 36t34.5 97q0 62 -34.5 99t-96.5 37q-64 0 -99 -37t-35 -99z" />
<glyph unicode="&#xf7;" horiz-adv-x="1224" d="M93 498h1023v179h-1023v-179zM482 25h246v255h-246v-255zM482 888h252v246h-252v-246z" />
<glyph unicode="&#xf8;" horiz-adv-x="1230" d="M96 544q0 -256 138.5 -410.5t380.5 -154.5t380.5 154.5t138.5 410.5q0 255 -138 407.5t-381 152.5t-381 -152.5t-138 -407.5zM212 -125l72 -46l734 1376l-77 46zM369 543q0 185 61.5 282t184.5 97t184.5 -97t61.5 -282q0 -183 -62 -282t-184 -99t-184 98.5t-62 282.5z " />
<glyph unicode="&#xf9;" horiz-adv-x="1238" d="M133 407q0 -207 97 -317t283 -110q116 0 196.5 45t132.5 123l14 -148h233v1082h-271v-805q-89 -116 -229 -116q-98 0 -141.5 64t-43.5 206v651h-271v-675zM193 1609l324 -392h159l-185 392h-298z" />
<glyph unicode="&#xfa;" horiz-adv-x="1238" d="M133 407q0 -207 97 -317t283 -110q116 0 196.5 45t132.5 123l14 -148h233v1082h-271v-805q-89 -116 -229 -116q-98 0 -141.5 64t-43.5 206v651h-271v-675zM538 1217h159l319 392h-293z" />
<glyph unicode="&#xfb;" horiz-adv-x="1238" d="M133 407q0 -207 97 -317t283 -110q116 0 196.5 45t132.5 123l14 -148h233v1082h-271v-805q-89 -116 -229 -116q-98 0 -141.5 64t-43.5 206v651h-271v-675zM289 1278h215l114 219l115 -219h214l-204 372h-249z" />
<glyph unicode="&#xfc;" horiz-adv-x="1238" d="M133 407q0 -207 97 -317t283 -110q116 0 196.5 45t132.5 123l14 -148h233v1082h-271v-805q-89 -116 -229 -116q-98 0 -141.5 64t-43.5 206v651h-271v-675zM242 1390q0 -61 35 -97t98 -36q62 0 96.5 36t34.5 97q0 62 -34.5 99t-96.5 37q-64 0 -98.5 -37t-34.5 -99z M718 1390q0 -60 35.5 -96.5t98.5 -36.5q62 0 96.5 36t34.5 97q0 62 -34.5 99t-96.5 37q-64 0 -99 -37t-35 -99z" />
<glyph unicode="&#xfd;" horiz-adv-x="1115" d="M5 1082l439 -983l-189 -457l221 -76l641 1516h-253l-286 -718l-303 718h-270zM472 1217h159l319 392h-293z" />
<glyph unicode="&#xfe;" horiz-adv-x="1161" d="M149 0h233l11 126q46 -64 122 -105t179 -41q217 0 335 154t118 412q0 122 -26.5 223t-78 176.5t-134 117t-189.5 41.5q-108 0 -187 -51t-123 -148l9 224v431l-269 -20v-1540zM149 -444h265v903h-265v-903zM414 270v292q0 360 250 360q108 0 158 -92.5t50 -283.5 q0 -190 -58 -287t-167 -97q-152 0 -233 108z" />
<glyph unicode="&#xff;" horiz-adv-x="1115" d="M5 1082l439 -983l-189 -457l221 -76l641 1516h-253l-286 -718l-303 718h-270zM176 1390q0 -61 35 -97t98 -36q62 0 96.5 36t34.5 97q0 62 -34.5 99t-96.5 37q-64 0 -98.5 -37t-34.5 -99zM652 1390q0 -60 35.5 -96.5t98.5 -36.5q62 0 96.5 36t34.5 97q0 62 -34.5 99 t-96.5 37q-64 0 -99 -37t-35 -99z" />
<glyph unicode="&#x152;" horiz-adv-x="2294" d="M106 725q0 -354 171 -548.5t494 -194.5q262 0 403 139v-121h974l8 198h-739v455h669v193h-669v418h708l13 192h-964v-119q-140 143 -403 143q-321 0 -493 -197.5t-172 -557.5zM364 724q0 261 100 405t307 144q105 0 182.5 -38.5t125.5 -111t71 -172t23 -227.5 q0 -535 -403 -535q-209 0 -307.5 140.5t-98.5 394.5z" />
<glyph unicode="&#x153;" horiz-adv-x="1876" d="M85 543q0 -256 133 -408.5t364 -152.5q123 0 229 62.5t157 158.5q59 -98 174 -159.5t245 -61.5q117 0 215.5 33.5t156.5 83.5l-59 150h-13q-49 -38 -123 -64t-156 -26q-48 0 -90.5 9t-84.5 31.5t-73 57.5t-52.5 89.5t-26.5 124.5h689q8 54 8 114q0 117 -28 212 t-81.5 162.5t-135 104.5t-185.5 37q-113 0 -218.5 -62.5t-159.5 -158.5q-51 96 -157 158.5t-231 62.5q-232 0 -364.5 -151t-132.5 -407zM314 543q0 382 268 382q267 0 267 -382q0 -185 -66 -284.5t-201 -99.5q-136 0 -202 99.5t-66 284.5zM1085 621q10 149 86.5 229.5 t184.5 80.5q107 0 162.5 -75t61.5 -235h-495z" />
<glyph unicode="&#x178;" horiz-adv-x="1301" d="M38 1456l497 -913v-543h287v544l496 912h-297l-344 -651l-347 651h-292zM276 1764q0 -61 35 -97t98 -36q62 0 96.5 36t34.5 97q0 62 -34.5 99t-96.5 37q-64 0 -98.5 -37t-34.5 -99zM752 1764q0 -60 35.5 -96.5t98.5 -36.5q62 0 96.5 36t34.5 97q0 62 -34.5 99t-96.5 37 q-64 0 -99 -37t-35 -99z" />
<glyph unicode="&#x2c6;" horiz-adv-x="909" d="M110 1278h215l114 219l115 -219h214l-204 372h-249z" />
<glyph unicode="&#x2dc;" horiz-adv-x="980" d="M160 1274h118q18 100 72 100q28 0 77.5 -25t106 -50t103.5 -25q88 0 132 69.5t44 172.5h-119q-9 -46 -23.5 -65t-38.5 -19q-23 0 -66.5 21t-101.5 42.5t-115 21.5q-95 0 -142 -68.5t-47 -174.5z" />
<glyph unicode="&#x2000;" horiz-adv-x="1012" />
<glyph unicode="&#x2001;" horiz-adv-x="2024" />
<glyph unicode="&#x2002;" horiz-adv-x="1012" />
<glyph unicode="&#x2003;" horiz-adv-x="2024" />
<glyph unicode="&#x2004;" horiz-adv-x="674" />
<glyph unicode="&#x2005;" horiz-adv-x="506" />
<glyph unicode="&#x2006;" horiz-adv-x="337" />
<glyph unicode="&#x2007;" horiz-adv-x="337" />
<glyph unicode="&#x2008;" horiz-adv-x="253" />
<glyph unicode="&#x2009;" horiz-adv-x="404" />
<glyph unicode="&#x200a;" horiz-adv-x="112" />
<glyph unicode="&#x2010;" horiz-adv-x="911" d="M158 474h595v182h-595v-182z" />
<glyph unicode="&#x2011;" horiz-adv-x="911" d="M158 474h595v182h-595v-182z" />
<glyph unicode="&#x2012;" horiz-adv-x="911" d="M158 474h595v182h-595v-182z" />
<glyph unicode="&#x2013;" horiz-adv-x="1245" d="M104 482h1037v178h-1037v-178z" />
<glyph unicode="&#x2014;" horiz-adv-x="2184" d="M60 482h2064v177h-2064v-177z" />
<glyph unicode="&#x2018;" horiz-adv-x="528" d="M136 1026h247l41 503h-171z" />
<glyph unicode="&#x2019;" horiz-adv-x="528" d="M136 1026h171l117 503h-247z" />
<glyph unicode="&#x201a;" horiz-adv-x="492" d="M101 -347h167l118 498h-239z" />
<glyph unicode="&#x201c;" horiz-adv-x="940" d="M136 1026h247l41 503h-171zM526 1026h246l41 503h-170z" />
<glyph unicode="&#x201d;" horiz-adv-x="940" d="M136 1026h171l117 503h-247zM526 1026h170l117 503h-246z" />
<glyph unicode="&#x201e;" horiz-adv-x="864" d="M107 -347h165l115 498h-237zM469 -347h163l117 498h-238z" />
<glyph unicode="&#x2022;" horiz-adv-x="939" d="M124 715q0 -149 96 -243t238 -94t241 96t99 246t-96 244.5t-238 94.5t-241 -97t-99 -247z" />
<glyph unicode="&#x2026;" horiz-adv-x="1507" d="M152 134q0 -70 37.5 -106.5t101.5 -36.5t101.5 37t37.5 106q0 70 -37 106.5t-102 36.5t-102 -36.5t-37 -106.5zM664 134q0 -70 37.5 -106.5t101.5 -36.5t101.5 37t37.5 106q0 70 -37 106.5t-102 36.5t-102 -36.5t-37 -106.5zM1160 134q0 -70 37.5 -106.5t101.5 -36.5 t101.5 37t37.5 106q0 70 -37 106.5t-102 36.5t-102 -36.5t-37 -106.5z" />
<glyph unicode="&#x202f;" horiz-adv-x="404" />
<glyph unicode="&#x2039;" horiz-adv-x="775" d="M153 575l277 -414h182l-266 414l272 423h-182z" />
<glyph unicode="&#x203a;" horiz-adv-x="766" d="M144 161h182l285 418l-279 417h-182l265 -416z" />
<glyph unicode="&#x205f;" horiz-adv-x="506" />
<glyph unicode="&#x20ac;" horiz-adv-x="1391" d="M-71 527h877l3 134h-569v149h569l4 133h-879l-2 -133h172v-149h-173zM78 731q0 -178 48 -319.5t137.5 -236.5t218 -145t287.5 -50q127 0 233 34.5t177.5 93.5t116.5 131.5t63 154.5l-209 82h-22q-14 -58 -43.5 -109t-72.5 -92t-103.5 -65t-130.5 -24q-90 0 -162 32 t-125 97.5t-82 170.5t-29 245q0 539 415 539q52 0 100 -16.5t84.5 -44.5t66.5 -65t49.5 -78.5t30.5 -85.5h22l209 82q-14 64 -45 123.5t-82.5 113t-117.5 93t-154.5 62.5t-188.5 23q-127 0 -235 -31.5t-192 -94t-143 -152.5t-90 -208.5t-31 -259.5z" />
<glyph unicode="&#x2122;" horiz-adv-x="2126" d="M83 1317h283v-795h177v795h284v139h-744v-139zM940 522h164l12 656l271 -562h102l272 557l13 -651h162l-18 934h-179l-300 -620l-300 620h-180z" />
<glyph unicode="&#x25fc;" horiz-adv-x="1080" d="M0 0v1080h1080v-1080h-1080z" />
</font>
</defs>
</svg>
